<svg xmlns="http://www.w3.org/2000/svg" xmlns:xlink="http://www.w3.org/1999/xlink" width="500" zoomAndPan="magnify" viewBox="0 0 375 374.999991" height="500" preserveAspectRatio="xMidYMid meet" version="1.0"><path fill="#ffffff" d="M 234.574219 0 C 232.992188 0.21875 231.53125 0.929688 230.351562 1.984375 C 230.351562 1.984375 226.472656 5.214844 222.40625 10.179688 C 219.273438 13.996094 216.699219 19.800781 214.464844 25.574219 C 197.582031 33.175781 170.269531 48.414062 146.1875 75.476562 C 122.785156 101.761719 103.015625 139.035156 100.75 188.941406 C 100.472656 188.785156 100.285156 188.847656 100.007812 188.691406 C 94.453125 185.835938 86.539062 182.734375 76.667969 182.734375 C 62.671875 182.734375 44.859375 186.085938 30.242188 198.375 C 15.621094 210.664062 5.164062 231.738281 5.164062 263.671875 C 5.164062 320.15625 54.261719 365.464844 108.449219 365.464844 C 134.300781 365.464844 160.246094 354.046875 179.703125 335.425781 C 209.683594 365.21875 255.832031 374.839844 297.636719 354.292969 C 344.40625 331.328125 370.226562 267.519531 344.808594 215.753906 C 330.222656 186.085938 309.335938 172.429688 289.941406 168.332031 C 280.257812 166.285156 271.195312 166.410156 263.375 167.589844 C 255.554688 168.765625 248.910156 171 244.257812 173.296875 C 235.195312 177.765625 229.578125 184.378906 225.882812 189.4375 C 220.640625 176.183594 215.144531 156.382812 212.972656 133.820312 C 211.390625 117.46875 211.578125 99.558594 214.214844 81.1875 C 218.527344 92.484375 225.820312 104.058594 238.296875 113.464844 C 252.140625 123.890625 268.960938 127.398438 284.726562 127.117188 C 300.492188 126.839844 315.296875 122.835938 326.4375 117.4375 C 328.578125 116.410156 330.160156 114.488281 330.75 112.191406 C 331.308594 109.863281 330.84375 107.441406 329.417969 105.519531 C 319.019531 91.644531 311.601562 64.988281 286.710938 49.40625 C 270.449219 39.226562 253.257812 34.574219 240.035156 32.277344 C 241.710938 30.785156 243.449219 29.234375 245 27.808594 C 248.230469 24.859375 250.867188 22.71875 252.945312 19.367188 C 254.621094 16.574219 254.4375 13.035156 252.449219 10.425781 C 249.097656 6.019531 245.3125 3.445312 242.269531 1.984375 C 239.230469 0.527344 236.3125 0 236.3125 0 C 235.722656 -0.0625 235.164062 -0.0625 234.574219 0 Z M 224.890625 46.675781 C 233.765625 46.957031 255.273438 48.445312 278.269531 62.816406 C 294.128906 72.746094 301.265625 90.25 311.042969 106.261719 C 303.128906 108.964844 294.191406 111.042969 284.476562 111.230469 C 271.257812 111.476562 257.910156 108.496094 247.730469 100.800781 C 222.875 82.054688 223.992188 56.019531 224.890625 46.675781 Z M 205.523438 48.167969 C 196.183594 78.640625 194.539062 109.117188 197.082031 135.558594 C 199.503906 160.667969 205.433594 181.863281 211.730469 196.886719 C 211.328125 196.886719 211.140625 196.886719 210.738281 196.886719 C 204.5 196.730469 195.964844 197.320312 187.152344 201.601562 C 185.847656 200.421875 184.546875 199.179688 183.179688 198.125 C 167.632812 186.148438 150.53125 182.734375 140.226562 182.734375 C 130.171875 182.734375 122.414062 186.085938 116.890625 188.941406 C 116.796875 188.972656 116.734375 188.910156 116.640625 188.941406 C 118.84375 143.164062 136.78125 110.144531 158.105469 86.152344 C 174.117188 68.152344 191.28125 56.171875 205.523438 48.167969 Z M 275.539062 182.734375 C 279.078125 182.765625 282.707031 183.167969 286.464844 183.972656 C 301.484375 187.140625 317.839844 196.636719 330.65625 222.707031 C 351.792969 265.78125 328.828125 321.398438 290.683594 340.140625 C 254.3125 358.019531 215.488281 349.730469 190.132812 323.753906 C 203.351562 306.964844 211.730469 286.359375 211.730469 263.671875 C 211.730469 242.507812 206.238281 226.121094 198.078125 214.015625 C 202.296875 212.679688 206.238281 212.679688 210.242188 212.773438 C 215.488281 212.898438 220.578125 214.636719 227.375 211.285156 C 234.203125 207.933594 235.753906 202.78125 238.792969 198.621094 C 241.835938 194.464844 245.125 190.679688 251.207031 187.699219 C 255.585938 185.558594 264.894531 182.671875 275.539062 182.734375 Z M 76.667969 198.621094 C 83.15625 198.621094 87.933594 200.484375 92.558594 202.84375 C 97.183594 205.203125 100.9375 209.050781 108.449219 209.050781 C 115.957031 209.050781 119.558594 205.203125 124.089844 202.84375 C 128.621094 200.484375 133.460938 198.621094 140.226562 198.621094 C 146.746094 198.621094 161.457031 201.261719 173.496094 210.539062 C 174.769531 211.535156 176.011719 212.652344 177.222656 213.769531 C 177.902344 216.5 179.984375 218.671875 182.683594 219.476562 C 190.316406 229.035156 195.84375 242.910156 195.84375 263.671875 C 195.84375 283.75 187.371094 302.308594 174.488281 317.050781 C 174.210938 317.269531 173.960938 317.515625 173.746094 317.796875 C 173.714844 317.859375 173.777344 317.984375 173.746094 318.042969 C 173.15625 318.542969 172.660156 319.132812 172.253906 319.78125 C 155.1875 337.96875 131.226562 349.578125 108.449219 349.578125 C 63.230469 349.578125 21.054688 310.84375 21.054688 263.671875 C 21.054688 235.089844 29.621094 219.632812 40.417969 210.539062 C 51.21875 201.445312 65.277344 198.621094 76.667969 198.621094 Z M 76.667969 198.621094 " fill-opacity="1" fill-rule="nonzero"/><path fill="#ffffff" d="M 234.574219 0 C 232.992188 0.21875 231.53125 0.929688 230.351562 1.984375 C 230.351562 1.984375 226.472656 5.214844 222.40625 10.179688 C 219.273438 13.996094 216.699219 19.800781 214.464844 25.574219 C 197.582031 33.175781 170.269531 48.414062 146.1875 75.476562 C 122.785156 101.761719 103.015625 139.035156 100.75 188.941406 C 100.472656 188.785156 100.285156 188.847656 100.007812 188.691406 C 94.453125 185.835938 86.539062 182.734375 76.667969 182.734375 C 62.671875 182.734375 44.859375 186.085938 30.242188 198.375 C 15.621094 210.664062 5.164062 231.738281 5.164062 263.671875 C 5.164062 320.15625 54.261719 365.464844 108.449219 365.464844 C 134.300781 365.464844 160.246094 354.046875 179.703125 335.425781 C 209.683594 365.21875 255.832031 374.839844 297.636719 354.292969 C 344.40625 331.328125 370.226562 267.519531 344.808594 215.753906 C 330.222656 186.085938 309.335938 172.429688 289.941406 168.332031 C 280.257812 166.285156 271.195312 166.410156 263.375 167.589844 C 255.554688 168.765625 248.910156 171 244.257812 173.296875 C 235.195312 177.765625 229.578125 184.378906 225.882812 189.4375 C 220.640625 176.183594 215.144531 156.382812 212.972656 133.820312 C 211.390625 117.46875 211.578125 99.558594 214.214844 81.1875 C 218.527344 92.484375 225.820312 104.058594 238.296875 113.464844 C 252.140625 123.890625 268.960938 127.398438 284.726562 127.117188 C 300.492188 126.839844 315.296875 122.835938 326.4375 117.4375 C 328.578125 116.410156 330.160156 114.488281 330.75 112.191406 C 331.308594 109.863281 330.84375 107.441406 329.417969 105.519531 C 319.019531 91.644531 311.601562 64.988281 286.710938 49.40625 C 270.449219 39.226562 253.257812 34.574219 240.035156 32.277344 C 241.710938 30.785156 243.449219 29.234375 245 27.808594 C 248.230469 24.859375 250.867188 22.71875 252.945312 19.367188 C 254.621094 16.574219 254.4375 13.035156 252.449219 10.425781 C 249.097656 6.019531 245.3125 3.445312 242.269531 1.984375 C 239.230469 0.527344 236.3125 0 236.3125 0 C 235.722656 -0.0625 235.164062 -0.0625 234.574219 0 Z M 224.890625 46.675781 C 233.765625 46.957031 255.273438 48.445312 278.269531 62.816406 C 294.128906 72.746094 301.265625 90.25 311.042969 106.261719 C 303.128906 108.964844 294.191406 111.042969 284.476562 111.230469 C 271.257812 111.476562 257.910156 108.496094 247.730469 100.800781 C 222.875 82.054688 223.992188 56.019531 224.890625 46.675781 Z M 205.523438 48.167969 C 196.183594 78.640625 194.539062 109.117188 197.082031 135.558594 C 199.503906 160.667969 205.433594 181.863281 211.730469 196.886719 C 211.328125 196.886719 211.140625 196.886719 210.738281 196.886719 C 204.5 196.730469 195.964844 197.320312 187.152344 201.601562 C 185.847656 200.421875 184.546875 199.179688 183.179688 198.125 C 167.632812 186.148438 150.53125 182.734375 140.226562 182.734375 C 130.171875 182.734375 122.414062 186.085938 116.890625 188.941406 C 116.796875 188.972656 116.734375 188.910156 116.640625 188.941406 C 118.84375 143.164062 136.78125 110.144531 158.105469 86.152344 C 174.117188 68.152344 191.28125 56.171875 205.523438 48.167969 Z M 275.539062 182.734375 C 279.078125 182.765625 282.707031 183.167969 286.464844 183.972656 C 301.484375 187.140625 317.839844 196.636719 330.65625 222.707031 C 351.792969 265.78125 328.828125 321.398438 290.683594 340.140625 C 254.3125 358.019531 215.488281 349.730469 190.132812 323.753906 C 203.351562 306.964844 211.730469 286.359375 211.730469 263.671875 C 211.730469 242.507812 206.238281 226.121094 198.078125 214.015625 C 202.296875 212.679688 206.238281 212.679688 210.242188 212.773438 C 215.488281 212.898438 220.578125 214.636719 227.375 211.285156 C 234.203125 207.933594 235.753906 202.78125 238.792969 198.621094 C 241.835938 194.464844 245.125 190.679688 251.207031 187.699219 C 255.585938 185.558594 264.894531 182.671875 275.539062 182.734375 Z M 76.667969 198.621094 C 83.15625 198.621094 87.933594 200.484375 92.558594 202.84375 C 97.183594 205.203125 100.9375 209.050781 108.449219 209.050781 C 115.957031 209.050781 119.558594 205.203125 124.089844 202.84375 C 128.621094 200.484375 133.460938 198.621094 140.226562 198.621094 C 146.746094 198.621094 161.457031 201.261719 173.496094 210.539062 C 174.769531 211.535156 176.011719 212.652344 177.222656 213.769531 C 177.902344 216.5 179.984375 218.671875 182.683594 219.476562 C 190.316406 229.035156 195.84375 242.910156 195.84375 263.671875 C 195.84375 283.75 187.371094 302.308594 174.488281 317.050781 C 174.210938 317.269531 173.960938 317.515625 173.746094 317.796875 C 173.714844 317.859375 173.777344 317.984375 173.746094 318.042969 C 173.15625 318.542969 172.660156 319.132812 172.253906 319.78125 C 155.1875 337.96875 131.226562 349.578125 108.449219 349.578125 C 63.230469 349.578125 21.054688 310.84375 21.054688 263.671875 C 21.054688 235.089844 29.621094 219.632812 40.417969 210.539062 C 51.21875 201.445312 65.277344 198.621094 76.667969 198.621094 Z M 76.667969 198.621094 " fill-opacity="1" fill-rule="nonzero"/></svg>