<svg version="1.1" id="Layer_1" xmlns="http://www.w3.org/2000/svg" xmlns:xlink="http://www.w3.org/1999/xlink" x="0px" y="0px"
	 width="100%" viewBox="0 0 500 500" enable-background="new 0 0 500 500" xml:space="preserve">
<path fill="#000000" opacity="1.000000" stroke="none" 
	d="
M402.000000,501.000000 
	C268.430023,501.000000 134.860062,501.000000 1.000000,501.000000 
	C1.000000,433.312714 1.000000,365.625031 1.275494,297.093689 
	C2.326524,297.577087 3.290258,298.829865 3.847791,300.242920 
	C8.267487,311.444794 16.359819,318.477051 28.063234,320.967865 
	C37.947746,323.071533 47.843040,322.553436 57.629974,319.807983 
	C59.571220,319.263428 61.994324,318.917511 63.779335,319.587708 
	C73.567917,323.262756 83.409004,324.225006 93.478043,321.090759 
	C96.311516,320.208740 97.762985,320.956390 99.172531,323.739868 
	C105.282768,335.806000 113.617226,346.346802 124.957420,353.653961 
	C139.545700,363.054047 154.691925,371.625763 169.874191,380.056610 
	C186.956100,389.542328 201.279816,401.464813 210.133041,419.418640 
	C215.242264,429.779846 223.651993,437.322357 234.822495,440.568634 
	C241.745636,442.580597 249.171036,443.537811 256.397308,443.686340 
	C269.529877,443.956238 282.690125,442.845764 295.824036,443.094238 
	C311.288055,443.386780 324.999634,448.838776 336.248230,459.669098 
	C342.359436,465.553040 347.816040,472.148041 354.158386,477.754272 
	C367.270599,489.344574 383.009705,495.623108 400.019806,499.029572 
	C400.780884,499.182007 401.344421,500.320709 402.000000,501.000000 
z"/>
<path fill="#000000" opacity="1.000000" stroke="none" 
	d="
M260.000000,0.999998 
	C340.284393,1.000000 420.568787,1.000000 501.000000,1.000000 
	C501.000000,158.021988 501.000000,315.044006 500.723999,472.827087 
	C498.634644,472.141724 496.853729,470.652374 495.002838,469.255829 
	C480.845001,458.573334 468.284393,446.242645 456.808624,432.738037 
	C429.364899,400.442444 412.142792,363.032013 401.045441,321.842865 
	C405.769165,320.934357 410.423737,319.194519 415.016174,319.345459 
	C422.725769,319.598816 430.381470,321.699127 438.085541,321.870850 
	C453.684021,322.218475 467.178589,312.431458 470.842194,297.221008 
	C474.892242,280.406311 475.213928,262.974365 470.187775,246.447784 
	C460.748962,215.411942 438.805084,195.611359 409.154205,184.003418 
	C402.774780,181.505966 395.798096,180.534088 388.424622,178.691574 
	C388.424622,177.482162 388.440521,175.695923 388.422058,173.910065 
	C388.289551,161.084961 388.360748,148.253494 387.970917,135.436127 
	C387.032135,104.570221 375.820404,77.624641 355.853058,54.329636 
	C331.175659,25.539686 299.425507,9.387876 262.382782,2.941453 
	C261.502563,2.788268 260.790497,1.668778 260.000000,0.999998 
z"/>
<path fill="#FBFBFB" opacity="1.000000" stroke="none" 
	d="
M259.531342,0.999998 
	C260.790497,1.668778 261.502563,2.788268 262.382782,2.941453 
	C299.425507,9.387876 331.175659,25.539686 355.853058,54.329636 
	C375.820404,77.624641 387.032135,104.570221 387.970917,135.436127 
	C388.360748,148.253494 388.289551,161.084961 388.422058,173.910065 
	C388.440521,175.695923 388.424622,177.482162 388.424622,178.691574 
	C395.798096,180.534088 402.774780,181.505966 409.154205,184.003418 
	C438.805084,195.611359 460.748962,215.411942 470.187775,246.447784 
	C475.213928,262.974365 474.892242,280.406311 470.842194,297.221008 
	C467.178589,312.431458 453.684021,322.218475 438.085541,321.870850 
	C430.381470,321.699127 422.725769,319.598816 415.016174,319.345459 
	C410.423737,319.194519 405.769165,320.934357 401.045441,321.842865 
	C412.142792,363.032013 429.364899,400.442444 456.808624,432.738037 
	C468.284393,446.242645 480.845001,458.573334 495.002838,469.255829 
	C496.853729,470.652374 498.634644,472.141724 500.723999,473.294067 
	C501.000000,475.700012 501.000000,478.400024 500.712097,481.270477 
	C496.846222,483.777435 493.558197,486.993835 489.636169,488.286285 
	C477.616882,492.247040 465.346161,495.442017 453.199310,499.023193 
	C452.039398,499.365173 451.062073,500.326294 450.000000,501.000000 
	C434.312439,501.000000 418.624878,501.000000 402.468658,501.000000 
	C401.344421,500.320709 400.780884,499.182007 400.019806,499.029572 
	C383.009705,495.623108 367.270599,489.344574 354.158386,477.754272 
	C347.816040,472.148041 342.359436,465.553040 336.248230,459.669098 
	C324.999634,448.838776 311.288055,443.386780 295.824036,443.094238 
	C282.690125,442.845764 269.529877,443.956238 256.397308,443.686340 
	C249.171036,443.537811 241.745636,442.580597 234.822495,440.568634 
	C223.651993,437.322357 215.242264,429.779846 210.133041,419.418640 
	C201.279816,401.464813 186.956100,389.542328 169.874191,380.056610 
	C154.691925,371.625763 139.545700,363.054047 124.957420,353.653961 
	C113.617226,346.346802 105.282768,335.806000 99.172531,323.739868 
	C97.762985,320.956390 96.311516,320.208740 93.478043,321.090759 
	C83.409004,324.225006 73.567917,323.262756 63.779335,319.587708 
	C61.994324,318.917511 59.571220,319.263428 57.629974,319.807983 
	C47.843040,322.553436 37.947746,323.071533 28.063234,320.967865 
	C16.359819,318.477051 8.267487,311.444794 3.847791,300.242920 
	C3.290258,298.829865 2.326524,297.577087 1.275494,296.625000 
	C1.000000,280.979095 1.000000,264.958221 1.310728,248.799316 
	C2.042547,248.196259 2.682324,247.799988 2.853402,247.256271 
	C12.081924,217.926514 32.001785,198.335953 59.509758,186.141724 
	C67.524994,182.588593 76.388649,180.949356 85.372932,178.281509 
	C85.372932,169.728348 85.275452,160.411514 85.400856,151.097687 
	C85.521782,142.116516 85.028297,133.020172 86.266624,124.179184 
	C92.120468,82.386147 113.982239,50.548046 148.569916,27.198927 
	C167.771683,14.236382 189.184814,6.609990 212.032379,2.919661 
	C212.772308,2.800150 213.347839,1.662850 214.000000,1.000002 
	C229.020889,1.000000 244.041794,1.000000 259.531342,0.999998 
M347.932312,205.492065 
	C352.369568,194.744583 359.508759,186.711502 370.542603,182.313004 
	C371.818665,181.804321 373.138123,179.531067 373.163605,178.053955 
	C373.373383,165.895020 373.379547,153.729980 373.263733,141.568527 
	C372.884003,101.689720 356.262970,69.794395 325.019470,45.544853 
	C293.524750,21.100327 257.386932,12.460040 218.240036,17.200361 
	C180.593384,21.759016 149.251984,38.701569 125.343613,68.506996 
	C111.868652,85.305588 103.220856,104.549789 101.320297,125.898338 
	C99.760101,143.423538 100.654175,161.172775 100.685471,178.822311 
	C100.687698,180.073456 102.325768,181.632980 103.579254,182.514099 
	C107.876854,185.534988 112.960167,187.691101 116.626526,191.309204 
	C127.298042,201.840271 130.498840,215.557175 130.926697,229.955322 
	C131.317490,243.106400 131.101807,256.276764 131.066162,269.438385 
	C131.056274,273.088257 131.079498,276.793213 130.496429,280.376740 
	C128.299561,293.878357 121.553482,304.792999 110.680077,313.361969 
	C116.216400,325.220184 123.927246,335.167450 134.614944,342.272064 
	C144.800430,349.042816 155.361755,355.361969 166.224609,360.976562 
	C190.071259,373.302063 211.651932,387.731018 223.816132,413.061401 
	C227.985321,421.743195 235.881836,426.830109 245.544861,427.890839 
	C252.458847,428.649841 259.498718,428.248108 266.481781,428.394684 
	C280.755646,428.694366 295.222321,427.661224 309.254242,429.665314 
	C327.198151,432.228119 342.101685,441.904114 353.738953,455.908813 
	C366.026489,470.696167 381.583130,479.662170 400.256897,483.557037 
	C418.096893,487.277985 435.965729,486.827179 453.738312,483.408844 
	C462.341187,481.754181 470.762939,479.157898 480.396667,476.699585 
	C430.266083,435.421539 401.127258,382.962189 385.710938,322.457062 
	C361.476837,318.747192 343.720062,299.007996 343.006104,274.911438 
	C342.616455,261.760590 342.867706,248.591278 342.782501,235.430588 
	C342.717590,225.401901 343.761200,215.566986 347.932312,205.492065 
M34.928894,221.436111 
	C26.716650,230.128433 19.369324,239.880997 17.624994,251.652435 
	C15.769035,264.177246 15.717657,277.172180 16.615679,289.838684 
	C17.344364,300.116760 24.525023,306.184814 33.675159,306.960663 
	C41.498241,307.624023 49.149174,306.895782 56.708313,304.190125 
	C59.616558,303.149231 63.742817,303.171844 66.510109,304.450256 
	C86.832031,313.838470 111.405121,302.970459 114.698448,280.810486 
	C117.885269,259.367157 118.069336,237.348221 113.725189,215.848236 
	C111.655647,205.605713 105.437630,197.301376 94.288094,195.678146 
	C87.916374,194.750519 80.970795,195.217209 74.687576,196.731888 
	C59.113304,200.486328 46.581570,209.722305 34.928894,221.436111 
M457.041595,254.624023 
	C457.020386,254.291565 457.048096,253.947266 456.970947,253.628342 
	C450.198364,225.634979 420.556000,198.843567 392.174622,195.054596 
	C378.483978,193.226883 367.869995,197.814651 362.954773,208.875992 
	C360.386566,214.655533 358.454010,221.163986 358.179657,227.428421 
	C357.495056,243.060898 357.649414,258.747650 357.967438,274.402466 
	C358.475403,299.409302 384.575287,315.041595 407.321198,304.487091 
	C410.091278,303.201691 414.209534,303.147125 417.122345,304.172150 
	C424.523499,306.776672 431.990601,307.560394 439.669952,306.997192 
	C447.793701,306.401367 455.813110,300.929688 456.521637,293.205231 
	C457.666992,280.718872 457.023041,268.068359 457.041595,254.624023 
z"/>
<path fill="#000000" opacity="1.000000" stroke="none" 
	d="
M213.531342,1.000002 
	C213.347839,1.662850 212.772308,2.800150 212.032379,2.919661 
	C189.184814,6.609990 167.771683,14.236382 148.569916,27.198927 
	C113.982239,50.548046 92.120468,82.386147 86.266624,124.179184 
	C85.028297,133.020172 85.521782,142.116516 85.400856,151.097687 
	C85.275452,160.411514 85.372932,169.728348 85.372932,178.281509 
	C76.388649,180.949356 67.524994,182.588593 59.509758,186.141724 
	C32.001785,198.335953 12.081924,217.926514 2.853402,247.256271 
	C2.682324,247.799988 2.042547,248.196259 1.310728,248.330658 
	C1.000000,165.745026 1.000000,83.490051 1.000000,1.000000 
	C71.687386,1.000000 142.375031,1.000000 213.531342,1.000002 
z"/>
<path fill="#030303" opacity="1.000000" stroke="none" 
	d="
M450.468658,501.000000 
	C451.062073,500.326294 452.039398,499.365173 453.199310,499.023193 
	C465.346161,495.442017 477.616882,492.247040 489.636169,488.286285 
	C493.558197,486.993835 496.846222,483.777435 500.712097,481.720459 
	C501.000000,488.293488 501.000000,494.586945 501.000000,501.000000 
	C484.312592,501.000000 467.624969,501.000000 450.468658,501.000000 
z"/>
<path fill="#010101" opacity="1.000000" stroke="none" 
	d="
M347.751038,205.835114 
	C343.761200,215.566986 342.717590,225.401901 342.782501,235.430588 
	C342.867706,248.591278 342.616455,261.760590 343.006104,274.911438 
	C343.720062,299.007996 361.476837,318.747192 385.710938,322.457062 
	C401.127258,382.962189 430.266083,435.421539 480.396667,476.699585 
	C470.762939,479.157898 462.341187,481.754181 453.738312,483.408844 
	C435.965729,486.827179 418.096893,487.277985 400.256897,483.557037 
	C381.583130,479.662170 366.026489,470.696167 353.738953,455.908813 
	C342.101685,441.904114 327.198151,432.228119 309.254242,429.665314 
	C295.222321,427.661224 280.755646,428.694366 266.481781,428.394684 
	C259.498718,428.248108 252.458847,428.649841 245.544861,427.890839 
	C235.881836,426.830109 227.985321,421.743195 223.816132,413.061401 
	C211.651932,387.731018 190.071259,373.302063 166.224609,360.976562 
	C155.361755,355.361969 144.800430,349.042816 134.614944,342.272064 
	C123.927246,335.167450 116.216400,325.220184 110.680077,313.361969 
	C121.553482,304.792999 128.299561,293.878357 130.496429,280.376740 
	C131.079498,276.793213 131.056274,273.088257 131.066162,269.438385 
	C131.101807,256.276764 131.317490,243.106400 130.926697,229.955322 
	C130.498840,215.557175 127.298042,201.840271 116.626526,191.309204 
	C112.960167,187.691101 107.876854,185.534988 103.579254,182.514099 
	C102.325768,181.632980 100.687698,180.073456 100.685471,178.822311 
	C100.654175,161.172775 99.760101,143.423538 101.320297,125.898338 
	C103.220856,104.549789 111.868652,85.305588 125.343613,68.506996 
	C149.251984,38.701569 180.593384,21.759016 218.240036,17.200361 
	C257.386932,12.460040 293.524750,21.100327 325.019470,45.544853 
	C356.262970,69.794395 372.884003,101.689720 373.263733,141.568527 
	C373.379547,153.729980 373.373383,165.895020 373.163605,178.053955 
	C373.138123,179.531067 371.818665,181.804321 370.542603,182.313004 
	C359.508759,186.711502 352.369568,194.744583 347.751038,205.835114 
M300.441437,254.913147 
	C308.023560,245.898209 312.475952,235.639145 313.373108,223.789673 
	C313.932922,216.395935 311.327667,213.043243 304.059326,213.039795 
	C259.256348,213.018509 214.453354,213.016800 169.650375,213.042282 
	C162.693939,213.046234 159.802719,216.553635 160.380829,223.419937 
	C162.010300,242.773453 172.071289,256.850647 187.661667,267.513580 
	C203.602646,278.416260 221.675156,280.703308 240.363968,280.396759 
	C263.549652,280.016418 284.077087,273.259827 300.441437,254.913147 
M323.931366,145.909760 
	C321.189514,129.411240 311.746857,118.481773 295.194000,112.669586 
	C297.812927,111.903336 299.447479,111.365074 301.113525,110.954819 
	C302.719452,110.559372 304.347321,110.221367 305.984100,109.988403 
	C311.537659,109.197945 315.102234,105.818512 314.703888,101.644798 
	C314.229523,96.674797 310.244904,93.958015 303.982941,95.011314 
	C279.167206,99.185425 259.251648,110.231903 249.282181,134.841141 
	C243.530777,149.038330 244.695145,162.596451 254.263962,174.686264 
	C263.753632,186.676056 276.369751,191.907272 291.686584,189.173203 
	C312.301025,185.493515 324.470734,169.389313 323.931366,145.909760 
M196.617966,188.233444 
	C216.004501,183.060181 228.622208,164.115768 225.041168,144.715103 
	C222.424469,130.538712 215.259415,118.824936 203.798355,109.894966 
	C192.672089,101.225845 179.907516,96.540131 166.047699,94.766052 
	C161.166351,94.141220 157.527328,97.055992 157.050262,101.257088 
	C156.555695,105.612160 159.398453,108.730972 164.349747,109.559753 
	C168.422226,110.241440 172.455231,111.158836 177.411896,112.153625 
	C175.522034,113.029297 174.533630,113.582542 173.482224,113.960373 
	C153.135971,121.271866 142.694763,142.570389 149.458023,163.003937 
	C155.728760,181.949387 173.557892,191.779297 196.617966,188.233444 
z"/>
<path fill="#010101" opacity="1.000000" stroke="none" 
	d="
M35.177635,221.185242 
	C46.581570,209.722305 59.113304,200.486328 74.687576,196.731888 
	C80.970795,195.217209 87.916374,194.750519 94.288094,195.678146 
	C105.437630,197.301376 111.655647,205.605713 113.725189,215.848236 
	C118.069336,237.348221 117.885269,259.367157 114.698448,280.810486 
	C111.405121,302.970459 86.832031,313.838470 66.510109,304.450256 
	C63.742817,303.171844 59.616558,303.149231 56.708313,304.190125 
	C49.149174,306.895782 41.498241,307.624023 33.675159,306.960663 
	C24.525023,306.184814 17.344364,300.116760 16.615679,289.838684 
	C15.717657,277.172180 15.769035,264.177246 17.624994,251.652435 
	C19.369324,239.880997 26.716650,230.128433 35.177635,221.185242 
z"/>
<path fill="#010101" opacity="1.000000" stroke="none" 
	d="
M457.088165,255.055603 
	C457.023041,268.068359 457.666992,280.718872 456.521637,293.205231 
	C455.813110,300.929688 447.793701,306.401367 439.669952,306.997192 
	C431.990601,307.560394 424.523499,306.776672 417.122345,304.172150 
	C414.209534,303.147125 410.091278,303.201691 407.321198,304.487091 
	C384.575287,315.041595 358.475403,299.409302 357.967438,274.402466 
	C357.649414,258.747650 357.495056,243.060898 358.179657,227.428421 
	C358.454010,221.163986 360.386566,214.655533 362.954773,208.875992 
	C367.869995,197.814651 378.483978,193.226883 392.174622,195.054596 
	C420.556000,198.843567 450.198364,225.634979 456.970947,253.628342 
	C457.048096,253.947266 457.020386,254.291565 457.088165,255.055603 
z"/>
<path fill="#FCFCFC" opacity="1.000000" stroke="none" 
	d="
M300.210022,255.185089 
	C284.077087,273.259827 263.549652,280.016418 240.363968,280.396759 
	C221.675156,280.703308 203.602646,278.416260 187.661667,267.513580 
	C172.071289,256.850647 162.010300,242.773453 160.380829,223.419937 
	C159.802719,216.553635 162.693939,213.046234 169.650375,213.042282 
	C214.453354,213.016800 259.256348,213.018509 304.059326,213.039795 
	C311.327667,213.043243 313.932922,216.395935 313.373108,223.789673 
	C312.475952,235.639145 308.023560,245.898209 300.210022,255.185089 
M182.241257,242.141098 
	C186.223587,246.109772 189.647827,250.957291 194.281708,253.899948 
	C218.601761,269.343933 244.470444,268.890808 270.412537,259.054321 
	C284.395172,253.752518 293.856995,243.297195 297.836914,228.202698 
	C257.139984,228.202698 216.766403,228.202698 175.316711,228.202698 
	C177.701553,233.020950 179.798584,237.257706 182.241257,242.141098 
z"/>
<path fill="#FBFBFB" opacity="1.000000" stroke="none" 
	d="
M323.954285,146.366180 
	C324.470734,169.389313 312.301025,185.493515 291.686584,189.173203 
	C276.369751,191.907272 263.753632,186.676056 254.263962,174.686264 
	C244.695145,162.596451 243.530777,149.038330 249.282181,134.841141 
	C259.251648,110.231903 279.167206,99.185425 303.982941,95.011314 
	C310.244904,93.958015 314.229523,96.674797 314.703888,101.644798 
	C315.102234,105.818512 311.537659,109.197945 305.984100,109.988403 
	C304.347321,110.221367 302.719452,110.559372 301.113525,110.954819 
	C299.447479,111.365074 297.812927,111.903336 295.194000,112.669586 
	C311.746857,118.481773 321.189514,129.411240 323.954285,146.366180 
M306.922150,161.114273 
	C307.631958,157.090714 309.056976,153.041031 308.911163,149.048706 
	C308.543121,138.974335 303.119873,131.807007 293.859863,128.221161 
	C285.072479,124.818336 276.489807,126.134430 269.218262,132.391937 
	C261.938110,138.656799 259.370239,146.819183 261.579590,156.129532 
	C264.151947,166.969833 271.503662,173.422897 282.283936,174.728485 
	C292.917358,176.016296 301.172180,171.181900 306.922150,161.114273 
z"/>
<path fill="#FBFBFB" opacity="1.000000" stroke="none" 
	d="
M196.244385,188.413300 
	C173.557892,191.779297 155.728760,181.949387 149.458023,163.003937 
	C142.694763,142.570389 153.135971,121.271866 173.482224,113.960373 
	C174.533630,113.582542 175.522034,113.029297 177.411896,112.153625 
	C172.455231,111.158836 168.422226,110.241440 164.349747,109.559753 
	C159.398453,108.730972 156.555695,105.612160 157.050262,101.257088 
	C157.527328,97.055992 161.166351,94.141220 166.047699,94.766052 
	C179.907516,96.540131 192.672089,101.225845 203.798355,109.894966 
	C215.259415,118.824936 222.424469,130.538712 225.041168,144.715103 
	C228.622208,164.115768 216.004501,183.060181 196.244385,188.413300 
M195.230270,173.034149 
	C196.557999,172.374268 197.931366,171.791977 199.206284,171.042297 
	C209.919525,164.742661 213.827545,150.498352 207.923965,139.370300 
	C201.973129,128.153168 188.144135,123.327744 176.899124,128.544662 
	C164.699585,134.204422 159.305801,146.962433 163.980179,159.101990 
	C168.702774,171.366699 181.160065,177.125183 195.230270,173.034149 
z"/>
<path fill="#010101" opacity="1.000000" stroke="none" 
	d="
M182.068420,241.817780 
	C179.798584,237.257706 177.701553,233.020950 175.316711,228.202698 
	C216.766403,228.202698 257.139984,228.202698 297.836914,228.202698 
	C293.856995,243.297195 284.395172,253.752518 270.412537,259.054321 
	C244.470444,268.890808 218.601761,269.343933 194.281708,253.899948 
	C189.647827,250.957291 186.223587,246.109772 182.068420,241.817780 
z"/>
<path fill="#010101" opacity="1.000000" stroke="none" 
	d="
M306.747437,161.457153 
	C301.172180,171.181900 292.917358,176.016296 282.283936,174.728485 
	C271.503662,173.422897 264.151947,166.969833 261.579590,156.129532 
	C259.370239,146.819183 261.938110,138.656799 269.218262,132.391937 
	C276.489807,126.134430 285.072479,124.818336 293.859863,128.221161 
	C303.119873,131.807007 308.543121,138.974335 308.911163,149.048706 
	C309.056976,153.041031 307.631958,157.090714 306.747437,161.457153 
z"/>
<path fill="#020202" opacity="1.000000" stroke="none" 
	d="
M194.843384,173.112030 
	C181.160065,177.125183 168.702774,171.366699 163.980179,159.101990 
	C159.305801,146.962433 164.699585,134.204422 176.899124,128.544662 
	C188.144135,123.327744 201.973129,128.153168 207.923965,139.370300 
	C213.827545,150.498352 209.919525,164.742661 199.206284,171.042297 
	C197.931366,171.791977 196.557999,172.374268 194.843384,173.112030 
z"/>
</svg>