<svg xmlns="http://www.w3.org/2000/svg" xmlns:xlink="http://www.w3.org/1999/xlink" width="500" zoomAndPan="magnify" viewBox="0 0 375 374.999991" height="500" preserveAspectRatio="xMidYMid meet" version="1.0"><defs><clipPath id="8aa61d6afd"><path d="M 0 0.46875 L 375 0.46875 L 375 374.71875 L 0 374.71875 Z M 0 0.46875 " clip-rule="nonzero"/></clipPath><clipPath id="dfa6f20e3b"><path d="M 0 0.46875 L 375 0.46875 L 375 374.71875 L 0 374.71875 Z M 0 0.46875 " clip-rule="nonzero"/></clipPath></defs><g clip-path="url(#8aa61d6afd)"><path fill="#ffffff" d="M 373.617188 114.121094 C 370.988281 110.175781 361.433594 106.527344 346.042969 103.488281 C 345.0625 97.695312 346.023438 92.1875 349.027344 88.070312 C 351.691406 84.421875 353.402344 80.238281 354.105469 75.648438 C 355.238281 68.285156 353.175781 60.558594 348.761719 54.296875 L 361.285156 30.535156 C 364.347656 24.742188 362.765625 18.105469 357.683594 15.421875 L 349.933594 11.335938 C 347.273438 9.9375 344.078125 9.914062 341.167969 11.289062 C 338.785156 12.414062 336.75 14.40625 335.429688 16.90625 L 322.917969 40.644531 C 320.621094 40.613281 318.320312 40.828125 316.050781 41.3125 C 307.554688 43.097656 300.421875 48.394531 296.496094 55.84375 C 295.910156 56.964844 295.402344 58.109375 294.984375 59.257812 C 293.855469 62.355469 291.84375 64.738281 289.699219 66.628906 C 281.195312 54.898438 267.421875 47.226562 251.859375 47.226562 C 238.382812 47.226562 225.613281 53.226562 216.8125 63.1875 C 208.238281 53.425781 195.703125 47.226562 181.722656 47.226562 C 163.175781 47.226562 147.125 57.90625 139.570312 73.71875 C 136.730469 66.027344 134.941406 57.1875 134.941406 46.96875 L 134.941406 29.691406 L 140.785156 29.691406 C 147.230469 29.691406 152.476562 24.445312 152.476562 18.003906 L 152.476562 12.15625 C 152.476562 5.714844 147.230469 0.46875 140.785156 0.46875 L 99.871094 0.46875 C 93.429688 0.46875 88.183594 5.714844 88.183594 12.15625 L 88.183594 18.003906 C 88.183594 24.445312 93.429688 29.691406 99.871094 29.691406 L 105.71875 29.691406 L 105.71875 33.375 C 103.25 36.335938 98.15625 42.847656 93.171875 51.464844 C 89.089844 51.265625 84.542969 51.746094 80.992188 52.859375 C 77.347656 54.007812 74.011719 55.921875 71.054688 58.410156 L 57.128906 34.5625 C 56.316406 33.167969 54.96875 32.175781 53.398438 31.808594 C 51.839844 31.460938 50.179688 31.753906 48.84375 32.636719 L 37.964844 39.875 C 35.621094 41.433594 34.722656 44.441406 35.824219 47.03125 L 35.9375 47.296875 C 26.691406 47.976562 13.757812 53.28125 1.402344 73.390625 C 0.460938 74.921875 0.273438 76.796875 0.898438 78.480469 C 1.523438 80.160156 2.886719 81.46875 4.59375 82.015625 C 5.003906 82.148438 9.222656 83.441406 15.636719 83.441406 C 23.617188 83.441406 34.996094 81.363281 46.707031 72.636719 L 47.054688 73.445312 C 43.683594 75.035156 40.648438 77.167969 38.136719 79.855469 C 32.324219 86.070312 29.800781 94.417969 30.34375 103.242188 C 14.1875 106.328125 4.226562 110.058594 1.515625 114.121094 C 0.710938 115.324219 0.386719 116.785156 0.597656 118.226562 L 33.070312 336.101562 C 34.871094 348.199219 44.152344 357.984375 56.160156 360.433594 C 81.933594 365.703125 133.273438 374.53125 187.566406 374.53125 C 241.859375 374.53125 293.199219 365.703125 318.96875 360.433594 C 330.980469 357.984375 340.261719 348.203125 342.0625 336.101562 L 374.535156 118.226562 C 374.746094 116.792969 374.421875 115.324219 373.617188 114.121094 Z M 331.824219 325.503906 C 320.402344 327.382812 306.320312 329.683594 290.269531 331.878906 L 295.484375 287.546875 C 295.859375 284.335938 293.566406 281.433594 290.363281 281.054688 C 287.144531 280.65625 284.25 282.96875 283.875 286.175781 L 278.316406 333.4375 C 262.566406 335.394531 245.253906 337.125 226.945312 338.226562 L 233.914062 274.484375 C 277.515625 273.191406 315.691406 270.09375 340.734375 265.71875 Z M 43.3125 325.503906 L 34.398438 265.71875 C 46.1875 267.777344 60.886719 269.550781 77.703125 270.988281 L 84.863281 331.878906 C 68.8125 329.683594 54.730469 327.382812 43.3125 325.503906 Z M 112.117188 139.125 C 112.246094 139.136719 112.371094 139.171875 112.5 139.171875 C 112.554688 139.171875 112.609375 139.152344 112.667969 139.148438 C 127.40625 139.800781 142.710938 140.246094 158 140.496094 C 158.03125 140.496094 158.058594 140.511719 158.085938 140.511719 C 158.109375 140.511719 158.132812 140.5 158.160156 140.5 C 166.050781 140.628906 173.929688 140.703125 181.722656 140.730469 L 181.722656 140.742188 C 181.800781 140.742188 181.878906 140.730469 181.957031 140.730469 C 183.832031 140.734375 185.703125 140.742188 187.566406 140.742188 C 206.636719 140.742188 225.476562 140.445312 243.453125 139.882812 C 243.476562 139.882812 243.503906 139.890625 243.527344 139.890625 C 243.550781 139.890625 243.570312 139.878906 243.59375 139.878906 C 250.265625 139.671875 256.804688 139.425781 263.195312 139.140625 C 263.199219 139.140625 263.207031 139.144531 263.210938 139.144531 C 263.226562 139.144531 263.238281 139.136719 263.253906 139.136719 C 265.96875 139.019531 268.667969 138.894531 271.320312 138.761719 C 270.128906 141.128906 269.394531 143.761719 269.394531 146.585938 C 269.394531 150.015625 270.417969 153.191406 272.125 155.894531 C 246.195312 157.449219 217.308594 158.277344 187.566406 158.277344 C 98.328125 158.277344 35.515625 151.335938 16.28125 144.136719 L 13.917969 128.289062 C 32.328125 133.6875 69.796875 137.246094 112.117188 139.125 Z M 109.222656 124.378906 C 98.988281 116.703125 93.480469 107.582031 92.390625 96.492188 C 91.203125 84.398438 95.570312 71.953125 100.855469 61.785156 C 99.113281 75.753906 99.722656 93.660156 109.84375 107.835938 C 117.15625 118.074219 128.328125 124.71875 143.039062 127.882812 L 143.695312 128.539062 C 133.316406 128.292969 123.476562 127.960938 114.1875 127.558594 C 112.40625 126.554688 110.722656 125.5 109.222656 124.378906 Z M 216.777344 124.820312 C 217.996094 126.203125 219.273438 127.523438 220.640625 128.75 C 218.015625 128.796875 215.382812 128.84375 212.734375 128.878906 C 214.164062 127.609375 215.515625 126.257812 216.777344 124.820312 Z M 321.996094 158.277344 C 321.996094 161.5 319.375 164.121094 316.152344 164.121094 C 315.796875 164.121094 315.484375 163.964844 315.140625 163.902344 C 315.75 162.125 316.152344 160.253906 316.152344 158.277344 C 316.152344 156.296875 315.75 154.425781 315.140625 152.652344 C 315.484375 152.589844 315.796875 152.429688 316.152344 152.429688 C 319.375 152.429688 321.996094 155.050781 321.996094 158.277344 Z M 310.304688 175.808594 C 310.304688 179.035156 307.6875 181.65625 304.460938 181.65625 C 301.234375 181.65625 298.617188 179.035156 298.617188 175.808594 C 301.839844 175.808594 304.828125 174.875 307.425781 173.347656 C 308.300781 173.859375 309.203125 174.296875 310.152344 174.648438 C 310.230469 175.027344 310.304688 175.410156 310.304688 175.808594 Z M 239.390625 227.558594 L 246.296875 168.855469 C 259.246094 168.359375 271.6875 167.695312 283.425781 166.871094 C 284.476562 168.714844 285.832031 170.335938 287.453125 171.683594 C 287.132812 173.023438 286.925781 174.398438 286.925781 175.8125 C 286.925781 182.039062 290.214844 187.480469 295.117188 190.59375 L 291.105469 224.71875 C 275.390625 225.960938 257.976562 226.929688 239.390625 227.558594 Z M 84.027344 224.71875 L 77.085938 165.699219 C 92.667969 167.054688 110.085938 168.125 128.835938 168.851562 L 133.863281 211.5625 C 134.210938 214.535156 136.738281 216.722656 139.660156 216.722656 C 139.890625 216.722656 140.117188 216.710938 140.351562 216.683594 C 143.554688 216.304688 145.847656 213.402344 145.472656 210.191406 L 140.65625 169.269531 C 155.679688 169.722656 171.40625 169.964844 187.566406 169.964844 C 203.554688 169.964844 219.28125 169.71875 234.480469 169.261719 L 227.582031 227.90625 C 214.621094 228.234375 201.222656 228.414062 187.566406 228.414062 C 149.679688 228.414062 113.734375 227.066406 84.027344 224.71875 Z M 298.617188 164.121094 C 295.390625 164.121094 292.773438 161.5 292.773438 158.277344 C 292.773438 155.050781 295.390625 152.429688 298.617188 152.429688 C 301.839844 152.429688 304.460938 155.050781 304.460938 158.277344 C 304.460938 161.5 301.839844 164.121094 298.617188 164.121094 Z M 304.460938 134.898438 C 304.460938 138.121094 301.839844 140.742188 298.617188 140.742188 C 295.390625 140.742188 292.773438 138.121094 292.773438 134.898438 C 292.773438 132.484375 294.238281 130.414062 296.328125 129.523438 C 296.390625 129.503906 296.449219 129.496094 296.511719 129.480469 C 297.167969 129.222656 297.871094 129.054688 298.617188 129.054688 C 301.839844 129.050781 304.460938 131.671875 304.460938 134.898438 Z M 282.847656 142.421875 C 283.578125 143.949219 284.519531 145.34375 285.644531 146.585938 C 284.519531 147.832031 283.578125 149.226562 282.847656 150.753906 C 281.761719 149.691406 281.082031 148.222656 281.082031 146.585938 C 281.082031 144.953125 281.761719 143.484375 282.847656 142.421875 Z M 316.152344 140.742188 C 315.796875 140.742188 315.484375 140.585938 315.140625 140.523438 C 315.75 138.746094 316.152344 136.875 316.152344 134.898438 C 316.152344 132.917969 315.75 131.046875 315.140625 129.273438 C 315.484375 129.210938 315.796875 129.050781 316.152344 129.050781 C 319.375 129.050781 321.996094 131.671875 321.996094 134.898438 C 321.996094 138.121094 319.375 140.742188 316.152344 140.742188 Z M 310.152344 118.527344 C 309.203125 118.878906 308.300781 119.3125 307.425781 119.824219 C 304.824219 118.300781 301.839844 117.363281 298.617188 117.363281 C 298.617188 114.136719 301.234375 111.519531 304.460938 111.519531 C 307.6875 111.519531 310.304688 114.136719 310.304688 117.363281 C 310.304688 117.773438 310.234375 118.152344 310.152344 118.527344 Z M 286.925781 117.363281 C 286.925781 118.777344 287.136719 120.152344 287.453125 121.488281 C 285.523438 123.097656 283.941406 125.085938 282.84375 127.375 C 281.761719 126.3125 281.082031 124.84375 281.082031 123.207031 C 281.082031 119.984375 283.703125 117.363281 286.925781 117.363281 Z M 65.179688 164.570312 L 72.136719 223.695312 C 53.695312 221.964844 38.308594 219.808594 27.1875 217.320312 L 18.195312 156.984375 C 28.972656 159.9375 45.199219 162.503906 65.179688 164.570312 Z M 96.820312 333.4375 L 89.582031 271.925781 C 105.472656 273.074219 122.875 273.941406 141.261719 274.488281 L 148.765625 338.257812 C 130.242188 337.160156 112.734375 335.414062 96.820312 333.4375 Z M 160.609375 338.859375 L 153.066406 274.789062 C 164.316406 275.035156 175.84375 275.171875 187.566406 275.171875 C 199.308594 275.171875 210.855469 275.035156 222.121094 274.789062 L 215.117188 338.835938 C 206.109375 339.226562 196.925781 339.464844 187.566406 339.464844 C 178.414062 339.460938 169.425781 339.234375 160.609375 338.859375 Z M 342.554688 253.5 C 310.375 259.675781 251.757812 263.480469 187.566406 263.480469 C 123.375 263.480469 64.757812 259.675781 32.578125 253.5 L 29.023438 229.648438 C 61.472656 236.054688 121.8125 240.101562 187.566406 240.101562 C 253.320312 240.101562 313.660156 236.054688 346.109375 229.648438 Z M 347.945312 217.320312 C 336.824219 219.808594 321.4375 221.964844 302.996094 223.695312 L 306.589844 193.128906 C 315.246094 192.066406 321.996094 184.75 321.996094 175.808594 C 321.996094 175.457031 321.875 175.125 321.855469 174.777344 C 327.660156 172.761719 332.113281 167.84375 333.335938 161.714844 C 342.921875 160.273438 350.824219 158.703125 356.933594 157.007812 Z M 358.851562 144.144531 C 354.664062 145.695312 346.59375 147.886719 331.59375 150.148438 C 330.910156 148.859375 330.09375 147.660156 329.125 146.585938 C 331.929688 143.476562 333.683594 139.40625 333.683594 134.898438 C 333.683594 134.464844 333.589844 134.0625 333.558594 133.640625 C 347.359375 131.847656 355.855469 130.042969 361.183594 128.503906 Z M 348.199219 115.867188 C 351.292969 116.558594 353.8125 117.21875 355.878906 117.835938 C 353.875 118.351562 351.378906 118.917969 348.292969 119.507812 C 348.300781 118.292969 348.285156 117.082031 348.199219 115.867188 Z M 345.773438 22.359375 L 350.945312 25.082031 L 339.976562 45.890625 C 338.316406 44.820312 336.574219 43.941406 334.789062 43.191406 Z M 305.972656 63.253906 C 306.214844 62.585938 306.503906 61.929688 306.839844 61.296875 C 309.140625 56.933594 313.375 53.820312 318.460938 52.753906 C 324.308594 51.507812 330.503906 53.070312 335.472656 57.011719 C 340.710938 61.160156 343.492188 67.78125 342.554688 73.875 C 342.136719 76.597656 341.136719 79.054688 339.585938 81.175781 C 333.941406 88.898438 332.386719 99.253906 335.335938 109.589844 C 336.441406 113.46875 336.867188 117.496094 336.601562 121.429688 C 334.140625 121.78125 331.445312 122.136719 328.523438 122.492188 C 326.6875 120.660156 324.417969 119.296875 321.921875 118.417969 C 321.941406 118.066406 321.996094 117.71875 321.996094 117.363281 C 321.996094 107.695312 314.128906 99.828125 304.460938 99.828125 C 302.179688 99.828125 300.015625 100.296875 298.015625 101.09375 C 298.371094 98.753906 298.617188 96.394531 298.617188 93.984375 C 298.617188 88.019531 297.449219 82.328125 295.402344 77.074219 C 300.375 73.285156 304.019531 68.601562 305.972656 63.253906 Z M 251.859375 58.914062 C 271.195312 58.914062 286.925781 74.644531 286.925781 93.984375 C 286.925781 98.101562 286.214844 102.085938 284.839844 105.886719 C 276.164062 106.929688 269.394531 114.253906 269.394531 123.207031 C 269.394531 123.53125 269.472656 123.835938 269.488281 124.15625 C 267.140625 125.53125 264.695312 126.699219 262.09375 127.488281 C 256.226562 127.746094 250.238281 127.976562 244.125 128.167969 C 235.886719 126.316406 228.574219 121.496094 223.582031 114.691406 C 226.6875 108.441406 228.480469 101.425781 228.480469 93.984375 C 228.480469 86.554688 226.691406 79.554688 223.597656 73.3125 C 230.195312 64.273438 240.511719 58.914062 251.859375 58.914062 Z M 181.722656 58.914062 C 201.058594 58.914062 216.789062 74.644531 216.789062 93.984375 C 216.789062 113.230469 201.207031 128.890625 181.992188 129.039062 C 178.738281 129.03125 175.523438 129.011719 172.347656 128.988281 C 174.796875 127.808594 176.710938 125.683594 177.417969 122.894531 C 178.449219 118.832031 176.710938 114.6875 173.089844 112.585938 C 165.5 108.152344 155.1875 100.480469 147.191406 88.613281 C 149.808594 71.574219 164.246094 58.914062 181.722656 58.914062 Z M 99.871094 18.003906 L 99.871094 12.15625 L 140.785156 12.15625 L 140.785156 18.003906 L 129.097656 18.003906 C 125.867188 18.003906 123.25 20.617188 123.25 23.847656 L 123.25 46.96875 C 123.25 84.902344 144.128906 106.917969 160.371094 118.304688 C 140.839844 117.589844 127.070312 111.808594 119.382812 101.074219 C 103.898438 79.441406 116.90625 43.785156 117.035156 43.429688 C 117.28125 42.773438 117.40625 42.078125 117.40625 41.382812 L 117.40625 23.847656 C 117.40625 20.617188 114.792969 18.003906 111.5625 18.003906 Z M 16.78125 71.765625 C 25.335938 61.152344 33.09375 58.875 38.171875 58.875 C 39.238281 58.875 40.15625 58.992188 40.972656 59.136719 L 41.96875 61.484375 C 32.4375 69.433594 23.1875 71.550781 16.78125 71.765625 Z M 48.480469 46.925781 L 50.160156 45.804688 L 63.199219 68.132812 C 62.808594 68.847656 62.410156 69.5625 62.058594 70.316406 C 60.847656 70.292969 59.648438 70.332031 58.46875 70.425781 Z M 46.675781 87.835938 C 50.945312 83.269531 57.515625 81.277344 65.1875 82.226562 C 67.964844 82.601562 70.5625 80.917969 71.449219 78.289062 C 73.902344 70.960938 78.542969 65.890625 84.5 64.011719 C 85.277344 63.765625 86.179688 63.570312 87.136719 63.417969 C 82.691406 73.742188 79.582031 85.617188 80.75 97.589844 C 81.828125 108.582031 86.339844 118.273438 94.148438 126.539062 C 77.355469 125.546875 62.890625 124.328125 50.925781 122.996094 C 40.796875 111.097656 38.890625 96.164062 46.675781 87.835938 Z M 35.488281 121.015625 C 28.605469 119.992188 23.078125 118.941406 19.027344 117.902344 C 22.28125 116.925781 26.671875 115.820312 32.691406 114.679688 C 33.449219 116.8125 34.390625 118.929688 35.488281 121.015625 Z M 316.628906 348.984375 C 291.292969 354.160156 240.832031 362.839844 187.566406 362.839844 C 134.300781 362.839844 83.839844 354.160156 58.503906 348.984375 C 52.4375 347.746094 47.570312 343.378906 45.519531 337.714844 C 78.320312 343.089844 130.113281 351.152344 187.566406 351.152344 C 245.019531 351.152344 296.8125 343.089844 329.617188 337.714844 C 327.5625 343.378906 322.695312 347.746094 316.628906 348.984375 Z M 316.628906 348.984375 " fill-opacity="1" fill-rule="nonzero"/></g><path fill="#ffffff" d="M 184 78.070312 C 186.425781 78.070312 189.035156 77.527344 191.703125 76.148438 C 194.574219 74.667969 195.699219 71.148438 194.222656 68.277344 C 192.738281 65.398438 189.214844 64.265625 186.351562 65.761719 C 183.148438 67.390625 180.421875 65.179688 179.871094 64.691406 C 177.542969 62.507812 173.878906 62.59375 171.664062 64.902344 C 169.429688 67.234375 169.5 70.929688 171.824219 73.167969 C 174.121094 75.375 178.605469 78.070312 184 78.070312 Z M 184 78.070312 " fill-opacity="1" fill-rule="nonzero"/><path fill="#ffffff" d="M 256.914062 79.703125 C 259.335938 79.703125 261.945312 79.160156 264.617188 77.78125 C 267.488281 76.300781 268.609375 72.78125 267.132812 69.910156 C 265.648438 67.03125 262.121094 65.898438 259.261719 67.390625 C 256.097656 69.019531 253.332031 66.804688 252.789062 66.320312 C 250.453125 64.140625 246.796875 64.210938 244.574219 66.53125 C 242.339844 68.851562 242.40625 72.558594 244.734375 74.792969 C 247.03125 77.003906 251.515625 79.703125 256.914062 79.703125 Z M 256.914062 79.703125 " fill-opacity="1" fill-rule="nonzero"/><path fill="#ffffff" d="M 199.257812 114.441406 C 199.257812 114.828125 199.183594 115.203125 199.035156 115.558594 C 198.886719 115.917969 198.675781 116.234375 198.398438 116.507812 C 198.125 116.78125 197.808594 116.992188 197.453125 117.140625 C 197.09375 117.289062 196.722656 117.363281 196.332031 117.363281 C 195.945312 117.363281 195.574219 117.289062 195.214844 117.140625 C 194.855469 116.992188 194.542969 116.78125 194.265625 116.507812 C 193.992188 116.234375 193.78125 115.917969 193.632812 115.558594 C 193.484375 115.203125 193.410156 114.828125 193.410156 114.441406 C 193.410156 114.054688 193.484375 113.679688 193.632812 113.324219 C 193.78125 112.964844 193.992188 112.648438 194.265625 112.375 C 194.542969 112.101562 194.855469 111.890625 195.214844 111.742188 C 195.574219 111.59375 195.945312 111.519531 196.332031 111.519531 C 196.722656 111.519531 197.09375 111.59375 197.453125 111.742188 C 197.808594 111.890625 198.125 112.101562 198.398438 112.375 C 198.675781 112.648438 198.886719 112.964844 199.035156 113.324219 C 199.183594 113.679688 199.257812 114.054688 199.257812 114.441406 Z M 199.257812 114.441406 " fill-opacity="1" fill-rule="nonzero"/><path fill="#ffffff" d="M 205.101562 102.75 C 205.101562 103.140625 205.027344 103.511719 204.878906 103.871094 C 204.730469 104.226562 204.519531 104.542969 204.246094 104.816406 C 203.96875 105.09375 203.65625 105.304688 203.296875 105.453125 C 202.9375 105.601562 202.566406 105.671875 202.179688 105.671875 C 201.789062 105.671875 201.417969 105.601562 201.058594 105.453125 C 200.703125 105.304688 200.386719 105.09375 200.113281 104.816406 C 199.835938 104.542969 199.625 104.226562 199.476562 103.871094 C 199.332031 103.511719 199.257812 103.140625 199.257812 102.75 C 199.257812 102.363281 199.332031 101.992188 199.476562 101.632812 C 199.625 101.273438 199.835938 100.960938 200.113281 100.683594 C 200.386719 100.410156 200.703125 100.199219 201.058594 100.050781 C 201.417969 99.902344 201.789062 99.828125 202.179688 99.828125 C 202.566406 99.828125 202.9375 99.902344 203.296875 100.050781 C 203.65625 100.199219 203.96875 100.410156 204.246094 100.683594 C 204.519531 100.960938 204.730469 101.273438 204.878906 101.632812 C 205.027344 101.992188 205.101562 102.363281 205.101562 102.75 Z M 205.101562 102.75 " fill-opacity="1" fill-rule="nonzero"/><path fill="#ffffff" d="M 234.324219 114.441406 C 234.324219 114.828125 234.25 115.203125 234.101562 115.558594 C 233.953125 115.917969 233.742188 116.234375 233.46875 116.507812 C 233.195312 116.78125 232.878906 116.992188 232.519531 117.140625 C 232.164062 117.289062 231.789062 117.363281 231.402344 117.363281 C 231.015625 117.363281 230.640625 117.289062 230.285156 117.140625 C 229.925781 116.992188 229.609375 116.78125 229.335938 116.507812 C 229.0625 116.234375 228.851562 115.917969 228.703125 115.558594 C 228.554688 115.203125 228.480469 114.828125 228.480469 114.441406 C 228.480469 114.054688 228.554688 113.679688 228.703125 113.324219 C 228.851562 112.964844 229.0625 112.648438 229.335938 112.375 C 229.609375 112.101562 229.925781 111.890625 230.285156 111.742188 C 230.640625 111.59375 231.015625 111.519531 231.402344 111.519531 C 231.789062 111.519531 232.164062 111.59375 232.519531 111.742188 C 232.878906 111.890625 233.195312 112.101562 233.46875 112.375 C 233.742188 112.648438 233.953125 112.964844 234.101562 113.324219 C 234.25 113.679688 234.324219 114.054688 234.324219 114.441406 Z M 234.324219 114.441406 " fill-opacity="1" fill-rule="nonzero"/><path fill="#ffffff" d="M 175.878906 102.75 C 175.878906 103.140625 175.804688 103.511719 175.65625 103.871094 C 175.507812 104.226562 175.296875 104.542969 175.019531 104.816406 C 174.746094 105.09375 174.429688 105.304688 174.074219 105.453125 C 173.714844 105.601562 173.34375 105.671875 172.953125 105.671875 C 172.566406 105.671875 172.195312 105.601562 171.835938 105.453125 C 171.476562 105.304688 171.164062 105.09375 170.886719 104.816406 C 170.613281 104.542969 170.402344 104.226562 170.253906 103.871094 C 170.105469 103.511719 170.03125 103.140625 170.03125 102.75 C 170.03125 102.363281 170.105469 101.992188 170.253906 101.632812 C 170.402344 101.273438 170.613281 100.960938 170.886719 100.683594 C 171.164062 100.410156 171.476562 100.199219 171.835938 100.050781 C 172.195312 99.902344 172.566406 99.828125 172.953125 99.828125 C 173.34375 99.828125 173.714844 99.902344 174.074219 100.050781 C 174.429688 100.199219 174.746094 100.410156 175.019531 100.683594 C 175.296875 100.960938 175.507812 101.273438 175.65625 101.632812 C 175.804688 101.992188 175.878906 102.363281 175.878906 102.75 Z M 175.878906 102.75 " fill-opacity="1" fill-rule="nonzero"/><path fill="#ffffff" d="M 187.566406 120.285156 C 187.566406 120.671875 187.492188 121.046875 187.34375 121.402344 C 187.195312 121.761719 186.984375 122.078125 186.710938 122.351562 C 186.4375 122.625 186.121094 122.835938 185.761719 122.984375 C 185.40625 123.132812 185.03125 123.207031 184.644531 123.207031 C 184.257812 123.207031 183.882812 123.132812 183.527344 122.984375 C 183.167969 122.835938 182.851562 122.625 182.578125 122.351562 C 182.304688 122.078125 182.09375 121.761719 181.945312 121.402344 C 181.796875 121.046875 181.722656 120.671875 181.722656 120.285156 C 181.722656 119.898438 181.796875 119.523438 181.945312 119.167969 C 182.09375 118.808594 182.304688 118.492188 182.578125 118.21875 C 182.851562 117.945312 183.167969 117.734375 183.527344 117.585938 C 183.882812 117.4375 184.257812 117.363281 184.644531 117.363281 C 185.03125 117.363281 185.40625 117.4375 185.761719 117.585938 C 186.121094 117.734375 186.4375 117.945312 186.710938 118.21875 C 186.984375 118.492188 187.195312 118.808594 187.34375 119.167969 C 187.492188 119.523438 187.566406 119.898438 187.566406 120.285156 Z M 187.566406 120.285156 " fill-opacity="1" fill-rule="nonzero"/><path fill="#ffffff" d="M 187.566406 108.597656 C 187.566406 108.984375 187.492188 109.355469 187.34375 109.714844 C 187.195312 110.074219 186.984375 110.386719 186.710938 110.664062 C 186.4375 110.9375 186.121094 111.148438 185.761719 111.296875 C 185.40625 111.445312 185.03125 111.519531 184.644531 111.519531 C 184.257812 111.519531 183.882812 111.445312 183.527344 111.296875 C 183.167969 111.148438 182.851562 110.9375 182.578125 110.664062 C 182.304688 110.386719 182.09375 110.074219 181.945312 109.714844 C 181.796875 109.355469 181.722656 108.984375 181.722656 108.597656 C 181.722656 108.207031 181.796875 107.835938 181.945312 107.476562 C 182.09375 107.121094 182.304688 106.804688 182.578125 106.53125 C 182.851562 106.253906 183.167969 106.042969 183.527344 105.894531 C 183.882812 105.746094 184.257812 105.671875 184.644531 105.671875 C 185.03125 105.671875 185.40625 105.746094 185.761719 105.894531 C 186.121094 106.042969 186.4375 106.253906 186.710938 106.53125 C 186.984375 106.804688 187.195312 107.121094 187.34375 107.476562 C 187.492188 107.835938 187.566406 108.207031 187.566406 108.597656 Z M 187.566406 108.597656 " fill-opacity="1" fill-rule="nonzero"/><path fill="#ffffff" d="M 246.015625 108.597656 C 246.015625 108.984375 245.941406 109.355469 245.792969 109.714844 C 245.644531 110.074219 245.433594 110.386719 245.15625 110.664062 C 244.882812 110.9375 244.566406 111.148438 244.210938 111.296875 C 243.851562 111.445312 243.480469 111.519531 243.089844 111.519531 C 242.703125 111.519531 242.332031 111.445312 241.972656 111.296875 C 241.613281 111.148438 241.300781 110.9375 241.023438 110.664062 C 240.75 110.386719 240.539062 110.074219 240.390625 109.714844 C 240.242188 109.355469 240.167969 108.984375 240.167969 108.597656 C 240.167969 108.207031 240.242188 107.835938 240.390625 107.476562 C 240.539062 107.121094 240.75 106.804688 241.023438 106.53125 C 241.300781 106.253906 241.613281 106.042969 241.972656 105.894531 C 242.332031 105.746094 242.703125 105.671875 243.089844 105.671875 C 243.480469 105.671875 243.851562 105.746094 244.210938 105.894531 C 244.566406 106.042969 244.882812 106.253906 245.15625 106.53125 C 245.433594 106.804688 245.644531 107.121094 245.792969 107.476562 C 245.941406 107.835938 246.015625 108.207031 246.015625 108.597656 Z M 246.015625 108.597656 " fill-opacity="1" fill-rule="nonzero"/><path fill="#ffffff" d="M 251.859375 120.285156 C 251.859375 120.671875 251.785156 121.046875 251.636719 121.402344 C 251.488281 121.761719 251.277344 122.078125 251.003906 122.351562 C 250.726562 122.625 250.414062 122.835938 250.054688 122.984375 C 249.695312 123.132812 249.324219 123.207031 248.9375 123.207031 C 248.546875 123.207031 248.175781 123.132812 247.816406 122.984375 C 247.460938 122.835938 247.144531 122.625 246.871094 122.351562 C 246.59375 122.078125 246.382812 121.761719 246.234375 121.402344 C 246.085938 121.046875 246.015625 120.671875 246.015625 120.285156 C 246.015625 119.898438 246.085938 119.523438 246.234375 119.167969 C 246.382812 118.808594 246.59375 118.492188 246.871094 118.21875 C 247.144531 117.945312 247.460938 117.734375 247.816406 117.585938 C 248.175781 117.4375 248.546875 117.363281 248.9375 117.363281 C 249.324219 117.363281 249.695312 117.4375 250.054688 117.585938 C 250.414062 117.734375 250.726562 117.945312 251.003906 118.21875 C 251.277344 118.492188 251.488281 118.808594 251.636719 119.167969 C 251.785156 119.523438 251.859375 119.898438 251.859375 120.285156 Z M 251.859375 120.285156 " fill-opacity="1" fill-rule="nonzero"/><path fill="#ffffff" d="M 263.546875 114.441406 C 263.546875 114.828125 263.472656 115.203125 263.324219 115.558594 C 263.175781 115.917969 262.964844 116.234375 262.691406 116.507812 C 262.417969 116.78125 262.101562 116.992188 261.742188 117.140625 C 261.386719 117.289062 261.011719 117.363281 260.625 117.363281 C 260.238281 117.363281 259.863281 117.289062 259.507812 117.140625 C 259.148438 116.992188 258.832031 116.78125 258.558594 116.507812 C 258.285156 116.234375 258.074219 115.917969 257.925781 115.558594 C 257.777344 115.203125 257.703125 114.828125 257.703125 114.441406 C 257.703125 114.054688 257.777344 113.679688 257.925781 113.324219 C 258.074219 112.964844 258.285156 112.648438 258.558594 112.375 C 258.832031 112.101562 259.148438 111.890625 259.507812 111.742188 C 259.863281 111.59375 260.238281 111.519531 260.625 111.519531 C 261.011719 111.519531 261.386719 111.59375 261.742188 111.742188 C 262.101562 111.890625 262.417969 112.101562 262.691406 112.375 C 262.964844 112.648438 263.175781 112.964844 263.324219 113.324219 C 263.472656 113.679688 263.546875 114.054688 263.546875 114.441406 Z M 263.546875 114.441406 " fill-opacity="1" fill-rule="nonzero"/><g clip-path="url(#dfa6f20e3b)"><path fill="#ffffff" d="M 373.617188 114.121094 C 370.988281 110.175781 361.433594 106.527344 346.042969 103.488281 C 345.0625 97.695312 346.023438 92.1875 349.027344 88.070312 C 351.691406 84.421875 353.402344 80.238281 354.105469 75.648438 C 355.238281 68.285156 353.175781 60.558594 348.761719 54.296875 L 361.285156 30.535156 C 364.347656 24.742188 362.765625 18.105469 357.683594 15.421875 L 349.933594 11.335938 C 347.273438 9.9375 344.078125 9.914062 341.167969 11.289062 C 338.785156 12.414062 336.75 14.40625 335.429688 16.90625 L 322.917969 40.644531 C 320.621094 40.613281 318.320312 40.828125 316.050781 41.3125 C 307.554688 43.097656 300.421875 48.394531 296.496094 55.84375 C 295.910156 56.964844 295.402344 58.109375 294.984375 59.257812 C 293.855469 62.355469 291.84375 64.738281 289.699219 66.628906 C 281.195312 54.898438 267.421875 47.226562 251.859375 47.226562 C 238.382812 47.226562 225.613281 53.226562 216.8125 63.1875 C 208.238281 53.425781 195.703125 47.226562 181.722656 47.226562 C 163.175781 47.226562 147.125 57.90625 139.570312 73.71875 C 136.730469 66.027344 134.941406 57.1875 134.941406 46.96875 L 134.941406 29.691406 L 140.785156 29.691406 C 147.230469 29.691406 152.476562 24.445312 152.476562 18.003906 L 152.476562 12.15625 C 152.476562 5.714844 147.230469 0.46875 140.785156 0.46875 L 99.871094 0.46875 C 93.429688 0.46875 88.183594 5.714844 88.183594 12.15625 L 88.183594 18.003906 C 88.183594 24.445312 93.429688 29.691406 99.871094 29.691406 L 105.71875 29.691406 L 105.71875 33.375 C 103.25 36.335938 98.15625 42.847656 93.171875 51.464844 C 89.089844 51.265625 84.542969 51.746094 80.992188 52.859375 C 77.347656 54.007812 74.011719 55.921875 71.054688 58.410156 L 57.128906 34.5625 C 56.316406 33.167969 54.96875 32.175781 53.398438 31.808594 C 51.839844 31.460938 50.179688 31.753906 48.84375 32.636719 L 37.964844 39.875 C 35.621094 41.433594 34.722656 44.441406 35.824219 47.03125 L 35.9375 47.296875 C 26.691406 47.976562 13.757812 53.28125 1.402344 73.390625 C 0.460938 74.921875 0.273438 76.796875 0.898438 78.480469 C 1.523438 80.160156 2.886719 81.46875 4.59375 82.015625 C 5.003906 82.148438 9.222656 83.441406 15.636719 83.441406 C 23.617188 83.441406 34.996094 81.363281 46.707031 72.636719 L 47.054688 73.445312 C 43.683594 75.035156 40.648438 77.167969 38.136719 79.855469 C 32.324219 86.070312 29.800781 94.417969 30.34375 103.242188 C 14.1875 106.328125 4.226562 110.058594 1.515625 114.121094 C 0.710938 115.324219 0.386719 116.785156 0.597656 118.226562 L 33.070312 336.101562 C 34.871094 348.199219 44.152344 357.984375 56.160156 360.433594 C 81.933594 365.703125 133.273438 374.53125 187.566406 374.53125 C 241.859375 374.53125 293.199219 365.703125 318.96875 360.433594 C 330.980469 357.984375 340.261719 348.203125 342.0625 336.101562 L 374.535156 118.226562 C 374.746094 116.792969 374.421875 115.324219 373.617188 114.121094 Z M 331.824219 325.503906 C 320.402344 327.382812 306.320312 329.683594 290.269531 331.878906 L 295.484375 287.546875 C 295.859375 284.335938 293.566406 281.433594 290.363281 281.054688 C 287.144531 280.65625 284.25 282.96875 283.875 286.175781 L 278.316406 333.4375 C 262.566406 335.394531 245.253906 337.125 226.945312 338.226562 L 233.914062 274.484375 C 277.515625 273.191406 315.691406 270.09375 340.734375 265.71875 Z M 43.3125 325.503906 L 34.398438 265.71875 C 46.1875 267.777344 60.886719 269.550781 77.703125 270.988281 L 84.863281 331.878906 C 68.8125 329.683594 54.730469 327.382812 43.3125 325.503906 Z M 112.117188 139.125 C 112.246094 139.136719 112.371094 139.171875 112.5 139.171875 C 112.554688 139.171875 112.609375 139.152344 112.667969 139.148438 C 127.40625 139.800781 142.710938 140.246094 158 140.496094 C 158.03125 140.496094 158.058594 140.511719 158.085938 140.511719 C 158.109375 140.511719 158.132812 140.5 158.160156 140.5 C 166.050781 140.628906 173.929688 140.703125 181.722656 140.730469 L 181.722656 140.742188 C 181.800781 140.742188 181.878906 140.730469 181.957031 140.730469 C 183.832031 140.734375 185.703125 140.742188 187.566406 140.742188 C 206.636719 140.742188 225.476562 140.445312 243.453125 139.882812 C 243.476562 139.882812 243.503906 139.890625 243.527344 139.890625 C 243.550781 139.890625 243.570312 139.878906 243.59375 139.878906 C 250.265625 139.671875 256.804688 139.425781 263.195312 139.140625 C 263.199219 139.140625 263.207031 139.144531 263.210938 139.144531 C 263.226562 139.144531 263.238281 139.136719 263.253906 139.136719 C 265.96875 139.019531 268.667969 138.894531 271.320312 138.761719 C 270.128906 141.128906 269.394531 143.761719 269.394531 146.585938 C 269.394531 150.015625 270.417969 153.191406 272.125 155.894531 C 246.195312 157.449219 217.308594 158.277344 187.566406 158.277344 C 98.328125 158.277344 35.515625 151.335938 16.28125 144.136719 L 13.917969 128.289062 C 32.328125 133.6875 69.796875 137.246094 112.117188 139.125 Z M 109.222656 124.378906 C 98.988281 116.703125 93.480469 107.582031 92.390625 96.492188 C 91.203125 84.398438 95.570312 71.953125 100.855469 61.785156 C 99.113281 75.753906 99.722656 93.660156 109.84375 107.835938 C 117.15625 118.074219 128.328125 124.71875 143.039062 127.882812 L 143.695312 128.539062 C 133.316406 128.292969 123.476562 127.960938 114.1875 127.558594 C 112.40625 126.554688 110.722656 125.5 109.222656 124.378906 Z M 216.777344 124.820312 C 217.996094 126.203125 219.273438 127.523438 220.640625 128.75 C 218.015625 128.796875 215.382812 128.84375 212.734375 128.878906 C 214.164062 127.609375 215.515625 126.257812 216.777344 124.820312 Z M 321.996094 158.277344 C 321.996094 161.5 319.375 164.121094 316.152344 164.121094 C 315.796875 164.121094 315.484375 163.964844 315.140625 163.902344 C 315.75 162.125 316.152344 160.253906 316.152344 158.277344 C 316.152344 156.296875 315.75 154.425781 315.140625 152.652344 C 315.484375 152.589844 315.796875 152.429688 316.152344 152.429688 C 319.375 152.429688 321.996094 155.050781 321.996094 158.277344 Z M 310.304688 175.808594 C 310.304688 179.035156 307.6875 181.65625 304.460938 181.65625 C 301.234375 181.65625 298.617188 179.035156 298.617188 175.808594 C 301.839844 175.808594 304.828125 174.875 307.425781 173.347656 C 308.300781 173.859375 309.203125 174.296875 310.152344 174.648438 C 310.230469 175.027344 310.304688 175.410156 310.304688 175.808594 Z M 239.390625 227.558594 L 246.296875 168.855469 C 259.246094 168.359375 271.6875 167.695312 283.425781 166.871094 C 284.476562 168.714844 285.832031 170.335938 287.453125 171.683594 C 287.132812 173.023438 286.925781 174.398438 286.925781 175.8125 C 286.925781 182.039062 290.214844 187.480469 295.117188 190.59375 L 291.105469 224.71875 C 275.390625 225.960938 257.976562 226.929688 239.390625 227.558594 Z M 84.027344 224.71875 L 77.085938 165.699219 C 92.667969 167.054688 110.085938 168.125 128.835938 168.851562 L 133.863281 211.5625 C 134.210938 214.535156 136.738281 216.722656 139.660156 216.722656 C 139.890625 216.722656 140.117188 216.710938 140.351562 216.683594 C 143.554688 216.304688 145.847656 213.402344 145.472656 210.191406 L 140.65625 169.269531 C 155.679688 169.722656 171.40625 169.964844 187.566406 169.964844 C 203.554688 169.964844 219.28125 169.71875 234.480469 169.261719 L 227.582031 227.90625 C 214.621094 228.234375 201.222656 228.414062 187.566406 228.414062 C 149.679688 228.414062 113.734375 227.066406 84.027344 224.71875 Z M 298.617188 164.121094 C 295.390625 164.121094 292.773438 161.5 292.773438 158.277344 C 292.773438 155.050781 295.390625 152.429688 298.617188 152.429688 C 301.839844 152.429688 304.460938 155.050781 304.460938 158.277344 C 304.460938 161.5 301.839844 164.121094 298.617188 164.121094 Z M 304.460938 134.898438 C 304.460938 138.121094 301.839844 140.742188 298.617188 140.742188 C 295.390625 140.742188 292.773438 138.121094 292.773438 134.898438 C 292.773438 132.484375 294.238281 130.414062 296.328125 129.523438 C 296.390625 129.503906 296.449219 129.496094 296.511719 129.480469 C 297.167969 129.222656 297.871094 129.054688 298.617188 129.054688 C 301.839844 129.050781 304.460938 131.671875 304.460938 134.898438 Z M 282.847656 142.421875 C 283.578125 143.949219 284.519531 145.34375 285.644531 146.585938 C 284.519531 147.832031 283.578125 149.226562 282.847656 150.753906 C 281.761719 149.691406 281.082031 148.222656 281.082031 146.585938 C 281.082031 144.953125 281.761719 143.484375 282.847656 142.421875 Z M 316.152344 140.742188 C 315.796875 140.742188 315.484375 140.585938 315.140625 140.523438 C 315.75 138.746094 316.152344 136.875 316.152344 134.898438 C 316.152344 132.917969 315.75 131.046875 315.140625 129.273438 C 315.484375 129.210938 315.796875 129.050781 316.152344 129.050781 C 319.375 129.050781 321.996094 131.671875 321.996094 134.898438 C 321.996094 138.121094 319.375 140.742188 316.152344 140.742188 Z M 310.152344 118.527344 C 309.203125 118.878906 308.300781 119.3125 307.425781 119.824219 C 304.824219 118.300781 301.839844 117.363281 298.617188 117.363281 C 298.617188 114.136719 301.234375 111.519531 304.460938 111.519531 C 307.6875 111.519531 310.304688 114.136719 310.304688 117.363281 C 310.304688 117.773438 310.234375 118.152344 310.152344 118.527344 Z M 286.925781 117.363281 C 286.925781 118.777344 287.136719 120.152344 287.453125 121.488281 C 285.523438 123.097656 283.941406 125.085938 282.84375 127.375 C 281.761719 126.3125 281.082031 124.84375 281.082031 123.207031 C 281.082031 119.984375 283.703125 117.363281 286.925781 117.363281 Z M 65.179688 164.570312 L 72.136719 223.695312 C 53.695312 221.964844 38.308594 219.808594 27.1875 217.320312 L 18.195312 156.984375 C 28.972656 159.9375 45.199219 162.503906 65.179688 164.570312 Z M 96.820312 333.4375 L 89.582031 271.925781 C 105.472656 273.074219 122.875 273.941406 141.261719 274.488281 L 148.765625 338.257812 C 130.242188 337.160156 112.734375 335.414062 96.820312 333.4375 Z M 160.609375 338.859375 L 153.066406 274.789062 C 164.316406 275.035156 175.84375 275.171875 187.566406 275.171875 C 199.308594 275.171875 210.855469 275.035156 222.121094 274.789062 L 215.117188 338.835938 C 206.109375 339.226562 196.925781 339.464844 187.566406 339.464844 C 178.414062 339.460938 169.425781 339.234375 160.609375 338.859375 Z M 342.554688 253.5 C 310.375 259.675781 251.757812 263.480469 187.566406 263.480469 C 123.375 263.480469 64.757812 259.675781 32.578125 253.5 L 29.023438 229.648438 C 61.472656 236.054688 121.8125 240.101562 187.566406 240.101562 C 253.320312 240.101562 313.660156 236.054688 346.109375 229.648438 Z M 347.945312 217.320312 C 336.824219 219.808594 321.4375 221.964844 302.996094 223.695312 L 306.589844 193.128906 C 315.246094 192.066406 321.996094 184.75 321.996094 175.808594 C 321.996094 175.457031 321.875 175.125 321.855469 174.777344 C 327.660156 172.761719 332.113281 167.84375 333.335938 161.714844 C 342.921875 160.273438 350.824219 158.703125 356.933594 157.007812 Z M 358.851562 144.144531 C 354.664062 145.695312 346.59375 147.886719 331.59375 150.148438 C 330.910156 148.859375 330.09375 147.660156 329.125 146.585938 C 331.929688 143.476562 333.683594 139.40625 333.683594 134.898438 C 333.683594 134.464844 333.589844 134.0625 333.558594 133.640625 C 347.359375 131.847656 355.855469 130.042969 361.183594 128.503906 Z M 348.199219 115.867188 C 351.292969 116.558594 353.8125 117.21875 355.878906 117.835938 C 353.875 118.351562 351.378906 118.917969 348.292969 119.507812 C 348.300781 118.292969 348.285156 117.082031 348.199219 115.867188 Z M 345.773438 22.359375 L 350.945312 25.082031 L 339.976562 45.890625 C 338.316406 44.820312 336.574219 43.941406 334.789062 43.191406 Z M 305.972656 63.253906 C 306.214844 62.585938 306.503906 61.929688 306.839844 61.296875 C 309.140625 56.933594 313.375 53.820312 318.460938 52.753906 C 324.308594 51.507812 330.503906 53.070312 335.472656 57.011719 C 340.710938 61.160156 343.492188 67.78125 342.554688 73.875 C 342.136719 76.597656 341.136719 79.054688 339.585938 81.175781 C 333.941406 88.898438 332.386719 99.253906 335.335938 109.589844 C 336.441406 113.46875 336.867188 117.496094 336.601562 121.429688 C 334.140625 121.78125 331.445312 122.136719 328.523438 122.492188 C 326.6875 120.660156 324.417969 119.296875 321.921875 118.417969 C 321.941406 118.066406 321.996094 117.71875 321.996094 117.363281 C 321.996094 107.695312 314.128906 99.828125 304.460938 99.828125 C 302.179688 99.828125 300.015625 100.296875 298.015625 101.09375 C 298.371094 98.753906 298.617188 96.394531 298.617188 93.984375 C 298.617188 88.019531 297.449219 82.328125 295.402344 77.074219 C 300.375 73.285156 304.019531 68.601562 305.972656 63.253906 Z M 251.859375 58.914062 C 271.195312 58.914062 286.925781 74.644531 286.925781 93.984375 C 286.925781 98.101562 286.214844 102.085938 284.839844 105.886719 C 276.164062 106.929688 269.394531 114.253906 269.394531 123.207031 C 269.394531 123.53125 269.472656 123.835938 269.488281 124.15625 C 267.140625 125.53125 264.695312 126.699219 262.09375 127.488281 C 256.226562 127.746094 250.238281 127.976562 244.125 128.167969 C 235.886719 126.316406 228.574219 121.496094 223.582031 114.691406 C 226.6875 108.441406 228.480469 101.425781 228.480469 93.984375 C 228.480469 86.554688 226.691406 79.554688 223.597656 73.3125 C 230.195312 64.273438 240.511719 58.914062 251.859375 58.914062 Z M 181.722656 58.914062 C 201.058594 58.914062 216.789062 74.644531 216.789062 93.984375 C 216.789062 113.230469 201.207031 128.890625 181.992188 129.039062 C 178.738281 129.03125 175.523438 129.011719 172.347656 128.988281 C 174.796875 127.808594 176.710938 125.683594 177.417969 122.894531 C 178.449219 118.832031 176.710938 114.6875 173.089844 112.585938 C 165.5 108.152344 155.1875 100.480469 147.191406 88.613281 C 149.808594 71.574219 164.246094 58.914062 181.722656 58.914062 Z M 99.871094 18.003906 L 99.871094 12.15625 L 140.785156 12.15625 L 140.785156 18.003906 L 129.097656 18.003906 C 125.867188 18.003906 123.25 20.617188 123.25 23.847656 L 123.25 46.96875 C 123.25 84.902344 144.128906 106.917969 160.371094 118.304688 C 140.839844 117.589844 127.070312 111.808594 119.382812 101.074219 C 103.898438 79.441406 116.90625 43.785156 117.035156 43.429688 C 117.28125 42.773438 117.40625 42.078125 117.40625 41.382812 L 117.40625 23.847656 C 117.40625 20.617188 114.792969 18.003906 111.5625 18.003906 Z M 16.78125 71.765625 C 25.335938 61.152344 33.09375 58.875 38.171875 58.875 C 39.238281 58.875 40.15625 58.992188 40.972656 59.136719 L 41.96875 61.484375 C 32.4375 69.433594 23.1875 71.550781 16.78125 71.765625 Z M 48.480469 46.925781 L 50.160156 45.804688 L 63.199219 68.132812 C 62.808594 68.847656 62.410156 69.5625 62.058594 70.316406 C 60.847656 70.292969 59.648438 70.332031 58.46875 70.425781 Z M 46.675781 87.835938 C 50.945312 83.269531 57.515625 81.277344 65.1875 82.226562 C 67.964844 82.601562 70.5625 80.917969 71.449219 78.289062 C 73.902344 70.960938 78.542969 65.890625 84.5 64.011719 C 85.277344 63.765625 86.179688 63.570312 87.136719 63.417969 C 82.691406 73.742188 79.582031 85.617188 80.75 97.589844 C 81.828125 108.582031 86.339844 118.273438 94.148438 126.539062 C 77.355469 125.546875 62.890625 124.328125 50.925781 122.996094 C 40.796875 111.097656 38.890625 96.164062 46.675781 87.835938 Z M 35.488281 121.015625 C 28.605469 119.992188 23.078125 118.941406 19.027344 117.902344 C 22.28125 116.925781 26.671875 115.820312 32.691406 114.679688 C 33.449219 116.8125 34.390625 118.929688 35.488281 121.015625 Z M 316.628906 348.984375 C 291.292969 354.160156 240.832031 362.839844 187.566406 362.839844 C 134.300781 362.839844 83.839844 354.160156 58.503906 348.984375 C 52.4375 347.746094 47.570312 343.378906 45.519531 337.714844 C 78.320312 343.089844 130.113281 351.152344 187.566406 351.152344 C 245.019531 351.152344 296.8125 343.089844 329.617188 337.714844 C 327.5625 343.378906 322.695312 347.746094 316.628906 348.984375 Z M 316.628906 348.984375 " fill-opacity="1" fill-rule="nonzero"/></g><path fill="#ffffff" d="M 184 78.070312 C 186.425781 78.070312 189.035156 77.527344 191.703125 76.148438 C 194.574219 74.667969 195.699219 71.148438 194.222656 68.277344 C 192.738281 65.398438 189.214844 64.265625 186.351562 65.761719 C 183.148438 67.390625 180.421875 65.179688 179.871094 64.691406 C 177.542969 62.507812 173.878906 62.59375 171.664062 64.902344 C 169.429688 67.234375 169.5 70.929688 171.824219 73.167969 C 174.121094 75.375 178.605469 78.070312 184 78.070312 Z M 184 78.070312 " fill-opacity="1" fill-rule="nonzero"/><path fill="#ffffff" d="M 256.914062 79.703125 C 259.335938 79.703125 261.945312 79.160156 264.617188 77.78125 C 267.488281 76.300781 268.609375 72.78125 267.132812 69.910156 C 265.648438 67.03125 262.121094 65.898438 259.261719 67.390625 C 256.097656 69.019531 253.332031 66.804688 252.789062 66.320312 C 250.453125 64.140625 246.796875 64.210938 244.574219 66.53125 C 242.339844 68.851562 242.40625 72.558594 244.734375 74.792969 C 247.03125 77.003906 251.515625 79.703125 256.914062 79.703125 Z M 256.914062 79.703125 " fill-opacity="1" fill-rule="nonzero"/><path fill="#ffffff" d="M 199.257812 114.441406 C 199.257812 114.828125 199.183594 115.203125 199.035156 115.558594 C 198.886719 115.917969 198.675781 116.234375 198.398438 116.507812 C 198.125 116.78125 197.808594 116.992188 197.453125 117.140625 C 197.09375 117.289062 196.722656 117.363281 196.332031 117.363281 C 195.945312 117.363281 195.574219 117.289062 195.214844 117.140625 C 194.855469 116.992188 194.542969 116.78125 194.265625 116.507812 C 193.992188 116.234375 193.78125 115.917969 193.632812 115.558594 C 193.484375 115.203125 193.410156 114.828125 193.410156 114.441406 C 193.410156 114.054688 193.484375 113.679688 193.632812 113.324219 C 193.78125 112.964844 193.992188 112.648438 194.265625 112.375 C 194.542969 112.101562 194.855469 111.890625 195.214844 111.742188 C 195.574219 111.59375 195.945312 111.519531 196.332031 111.519531 C 196.722656 111.519531 197.09375 111.59375 197.453125 111.742188 C 197.808594 111.890625 198.125 112.101562 198.398438 112.375 C 198.675781 112.648438 198.886719 112.964844 199.035156 113.324219 C 199.183594 113.679688 199.257812 114.054688 199.257812 114.441406 Z M 199.257812 114.441406 " fill-opacity="1" fill-rule="nonzero"/><path fill="#ffffff" d="M 205.101562 102.75 C 205.101562 103.140625 205.027344 103.511719 204.878906 103.871094 C 204.730469 104.226562 204.519531 104.542969 204.246094 104.816406 C 203.96875 105.09375 203.65625 105.304688 203.296875 105.453125 C 202.9375 105.601562 202.566406 105.671875 202.179688 105.671875 C 201.789062 105.671875 201.417969 105.601562 201.058594 105.453125 C 200.703125 105.304688 200.386719 105.09375 200.113281 104.816406 C 199.835938 104.542969 199.625 104.226562 199.476562 103.871094 C 199.332031 103.511719 199.257812 103.140625 199.257812 102.75 C 199.257812 102.363281 199.332031 101.992188 199.476562 101.632812 C 199.625 101.273438 199.835938 100.960938 200.113281 100.683594 C 200.386719 100.410156 200.703125 100.199219 201.058594 100.050781 C 201.417969 99.902344 201.789062 99.828125 202.179688 99.828125 C 202.566406 99.828125 202.9375 99.902344 203.296875 100.050781 C 203.65625 100.199219 203.96875 100.410156 204.246094 100.683594 C 204.519531 100.960938 204.730469 101.273438 204.878906 101.632812 C 205.027344 101.992188 205.101562 102.363281 205.101562 102.75 Z M 205.101562 102.75 " fill-opacity="1" fill-rule="nonzero"/><path fill="#ffffff" d="M 234.324219 114.441406 C 234.324219 114.828125 234.25 115.203125 234.101562 115.558594 C 233.953125 115.917969 233.742188 116.234375 233.46875 116.507812 C 233.195312 116.78125 232.878906 116.992188 232.519531 117.140625 C 232.164062 117.289062 231.789062 117.363281 231.402344 117.363281 C 231.015625 117.363281 230.640625 117.289062 230.285156 117.140625 C 229.925781 116.992188 229.609375 116.78125 229.335938 116.507812 C 229.0625 116.234375 228.851562 115.917969 228.703125 115.558594 C 228.554688 115.203125 228.480469 114.828125 228.480469 114.441406 C 228.480469 114.054688 228.554688 113.679688 228.703125 113.324219 C 228.851562 112.964844 229.0625 112.648438 229.335938 112.375 C 229.609375 112.101562 229.925781 111.890625 230.285156 111.742188 C 230.640625 111.59375 231.015625 111.519531 231.402344 111.519531 C 231.789062 111.519531 232.164062 111.59375 232.519531 111.742188 C 232.878906 111.890625 233.195312 112.101562 233.46875 112.375 C 233.742188 112.648438 233.953125 112.964844 234.101562 113.324219 C 234.25 113.679688 234.324219 114.054688 234.324219 114.441406 Z M 234.324219 114.441406 " fill-opacity="1" fill-rule="nonzero"/><path fill="#ffffff" d="M 175.878906 102.75 C 175.878906 103.140625 175.804688 103.511719 175.65625 103.871094 C 175.507812 104.226562 175.296875 104.542969 175.019531 104.816406 C 174.746094 105.09375 174.429688 105.304688 174.074219 105.453125 C 173.714844 105.601562 173.34375 105.671875 172.953125 105.671875 C 172.566406 105.671875 172.195312 105.601562 171.835938 105.453125 C 171.476562 105.304688 171.164062 105.09375 170.886719 104.816406 C 170.613281 104.542969 170.402344 104.226562 170.253906 103.871094 C 170.105469 103.511719 170.03125 103.140625 170.03125 102.75 C 170.03125 102.363281 170.105469 101.992188 170.253906 101.632812 C 170.402344 101.273438 170.613281 100.960938 170.886719 100.683594 C 171.164062 100.410156 171.476562 100.199219 171.835938 100.050781 C 172.195312 99.902344 172.566406 99.828125 172.953125 99.828125 C 173.34375 99.828125 173.714844 99.902344 174.074219 100.050781 C 174.429688 100.199219 174.746094 100.410156 175.019531 100.683594 C 175.296875 100.960938 175.507812 101.273438 175.65625 101.632812 C 175.804688 101.992188 175.878906 102.363281 175.878906 102.75 Z M 175.878906 102.75 " fill-opacity="1" fill-rule="nonzero"/><path fill="#ffffff" d="M 187.566406 120.285156 C 187.566406 120.671875 187.492188 121.046875 187.34375 121.402344 C 187.195312 121.761719 186.984375 122.078125 186.710938 122.351562 C 186.4375 122.625 186.121094 122.835938 185.761719 122.984375 C 185.40625 123.132812 185.03125 123.207031 184.644531 123.207031 C 184.257812 123.207031 183.882812 123.132812 183.527344 122.984375 C 183.167969 122.835938 182.851562 122.625 182.578125 122.351562 C 182.304688 122.078125 182.09375 121.761719 181.945312 121.402344 C 181.796875 121.046875 181.722656 120.671875 181.722656 120.285156 C 181.722656 119.898438 181.796875 119.523438 181.945312 119.167969 C 182.09375 118.808594 182.304688 118.492188 182.578125 118.21875 C 182.851562 117.945312 183.167969 117.734375 183.527344 117.585938 C 183.882812 117.4375 184.257812 117.363281 184.644531 117.363281 C 185.03125 117.363281 185.40625 117.4375 185.761719 117.585938 C 186.121094 117.734375 186.4375 117.945312 186.710938 118.21875 C 186.984375 118.492188 187.195312 118.808594 187.34375 119.167969 C 187.492188 119.523438 187.566406 119.898438 187.566406 120.285156 Z M 187.566406 120.285156 " fill-opacity="1" fill-rule="nonzero"/><path fill="#ffffff" d="M 187.566406 108.597656 C 187.566406 108.984375 187.492188 109.355469 187.34375 109.714844 C 187.195312 110.074219 186.984375 110.386719 186.710938 110.664062 C 186.4375 110.9375 186.121094 111.148438 185.761719 111.296875 C 185.40625 111.445312 185.03125 111.519531 184.644531 111.519531 C 184.257812 111.519531 183.882812 111.445312 183.527344 111.296875 C 183.167969 111.148438 182.851562 110.9375 182.578125 110.664062 C 182.304688 110.386719 182.09375 110.074219 181.945312 109.714844 C 181.796875 109.355469 181.722656 108.984375 181.722656 108.597656 C 181.722656 108.207031 181.796875 107.835938 181.945312 107.476562 C 182.09375 107.121094 182.304688 106.804688 182.578125 106.53125 C 182.851562 106.253906 183.167969 106.042969 183.527344 105.894531 C 183.882812 105.746094 184.257812 105.671875 184.644531 105.671875 C 185.03125 105.671875 185.40625 105.746094 185.761719 105.894531 C 186.121094 106.042969 186.4375 106.253906 186.710938 106.53125 C 186.984375 106.804688 187.195312 107.121094 187.34375 107.476562 C 187.492188 107.835938 187.566406 108.207031 187.566406 108.597656 Z M 187.566406 108.597656 " fill-opacity="1" fill-rule="nonzero"/><path fill="#ffffff" d="M 246.015625 108.597656 C 246.015625 108.984375 245.941406 109.355469 245.792969 109.714844 C 245.644531 110.074219 245.433594 110.386719 245.15625 110.664062 C 244.882812 110.9375 244.566406 111.148438 244.210938 111.296875 C 243.851562 111.445312 243.480469 111.519531 243.089844 111.519531 C 242.703125 111.519531 242.332031 111.445312 241.972656 111.296875 C 241.613281 111.148438 241.300781 110.9375 241.023438 110.664062 C 240.75 110.386719 240.539062 110.074219 240.390625 109.714844 C 240.242188 109.355469 240.167969 108.984375 240.167969 108.597656 C 240.167969 108.207031 240.242188 107.835938 240.390625 107.476562 C 240.539062 107.121094 240.75 106.804688 241.023438 106.53125 C 241.300781 106.253906 241.613281 106.042969 241.972656 105.894531 C 242.332031 105.746094 242.703125 105.671875 243.089844 105.671875 C 243.480469 105.671875 243.851562 105.746094 244.210938 105.894531 C 244.566406 106.042969 244.882812 106.253906 245.15625 106.53125 C 245.433594 106.804688 245.644531 107.121094 245.792969 107.476562 C 245.941406 107.835938 246.015625 108.207031 246.015625 108.597656 Z M 246.015625 108.597656 " fill-opacity="1" fill-rule="nonzero"/><path fill="#ffffff" d="M 251.859375 120.285156 C 251.859375 120.671875 251.785156 121.046875 251.636719 121.402344 C 251.488281 121.761719 251.277344 122.078125 251.003906 122.351562 C 250.726562 122.625 250.414062 122.835938 250.054688 122.984375 C 249.695312 123.132812 249.324219 123.207031 248.9375 123.207031 C 248.546875 123.207031 248.175781 123.132812 247.816406 122.984375 C 247.460938 122.835938 247.144531 122.625 246.871094 122.351562 C 246.59375 122.078125 246.382812 121.761719 246.234375 121.402344 C 246.085938 121.046875 246.015625 120.671875 246.015625 120.285156 C 246.015625 119.898438 246.085938 119.523438 246.234375 119.167969 C 246.382812 118.808594 246.59375 118.492188 246.871094 118.21875 C 247.144531 117.945312 247.460938 117.734375 247.816406 117.585938 C 248.175781 117.4375 248.546875 117.363281 248.9375 117.363281 C 249.324219 117.363281 249.695312 117.4375 250.054688 117.585938 C 250.414062 117.734375 250.726562 117.945312 251.003906 118.21875 C 251.277344 118.492188 251.488281 118.808594 251.636719 119.167969 C 251.785156 119.523438 251.859375 119.898438 251.859375 120.285156 Z M 251.859375 120.285156 " fill-opacity="1" fill-rule="nonzero"/><path fill="#ffffff" d="M 263.546875 114.441406 C 263.546875 114.828125 263.472656 115.203125 263.324219 115.558594 C 263.175781 115.917969 262.964844 116.234375 262.691406 116.507812 C 262.417969 116.78125 262.101562 116.992188 261.742188 117.140625 C 261.386719 117.289062 261.011719 117.363281 260.625 117.363281 C 260.238281 117.363281 259.863281 117.289062 259.507812 117.140625 C 259.148438 116.992188 258.832031 116.78125 258.558594 116.507812 C 258.285156 116.234375 258.074219 115.917969 257.925781 115.558594 C 257.777344 115.203125 257.703125 114.828125 257.703125 114.441406 C 257.703125 114.054688 257.777344 113.679688 257.925781 113.324219 C 258.074219 112.964844 258.285156 112.648438 258.558594 112.375 C 258.832031 112.101562 259.148438 111.890625 259.507812 111.742188 C 259.863281 111.59375 260.238281 111.519531 260.625 111.519531 C 261.011719 111.519531 261.386719 111.59375 261.742188 111.742188 C 262.101562 111.890625 262.417969 112.101562 262.691406 112.375 C 262.964844 112.648438 263.175781 112.964844 263.324219 113.324219 C 263.472656 113.679688 263.546875 114.054688 263.546875 114.441406 Z M 263.546875 114.441406 " fill-opacity="1" fill-rule="nonzero"/></svg>