<svg xmlns="http://www.w3.org/2000/svg" xmlns:xlink="http://www.w3.org/1999/xlink" width="500" zoomAndPan="magnify" viewBox="0 0 375 374.999991" height="500" preserveAspectRatio="xMidYMid meet" version="1.0"><path fill="#ffffff" d="M 76.671875 1.332031 C 75.398438 1.269531 74.101562 1.472656 72.871094 1.980469 C 69.597656 3.339844 67.464844 6.53125 67.464844 10.074219 L 67.464844 92.882812 C 60.046875 89.148438 51.207031 88.019531 42.429688 89.480469 C 37.445312 90.308594 32.484375 91.953125 27.832031 94.441406 C 9.214844 104.386719 0.105469 126.398438 10.652344 143.296875 C 21.195312 160.199219 44.675781 163.460938 63.289062 153.515625 C 76.382812 146.519531 84.761719 133.5625 84.917969 120.605469 L 84.988281 31.226562 L 96.316406 42.554688 C 99.738281 45.976562 105.285156 45.976562 108.707031 42.554688 C 112.128906 39.132812 112.128906 33.585938 108.707031 30.167969 L 82.421875 3.882812 C 80.855469 2.316406 78.796875 1.441406 76.671875 1.332031 Z M 49.410156 106.523438 C 50.84375 106.523438 52.230469 106.640625 53.570312 106.867188 C 58.921875 107.757812 63.378906 110.34375 65.617188 113.933594 C 70.097656 121.113281 66.785156 131.769531 55.042969 138.042969 C 43.296875 144.320312 29.984375 141.203125 25.503906 134.023438 C 21.027344 126.84375 24.335938 116.1875 36.082031 109.910156 C 40.484375 107.558594 45.117188 106.519531 49.410156 106.523438 Z M 49.410156 106.523438 " fill-opacity="1" fill-rule="nonzero"/><path fill="#ffffff" d="M 267.152344 62.664062 C 265.699219 62.6875 264.222656 62.898438 262.753906 63.296875 L 156.722656 91.996094 C 145.457031 95.042969 137.558594 105.359375 137.558594 117.03125 L 137.558594 167.785156 C 137.558594 172.625 141.480469 176.546875 146.320312 176.546875 C 151.160156 176.546875 155.082031 172.625 155.082031 167.785156 L 155.082031 155.054688 L 268.964844 124.234375 L 268.964844 188.03125 C 261.554688 184.269531 252.703125 183.121094 243.929688 184.589844 C 238.933594 185.429688 233.957031 187.113281 229.300781 189.640625 C 210.667969 199.738281 201.640625 221.890625 212.136719 238.957031 C 222.628906 256.023438 246.226562 259.394531 264.859375 249.292969 C 278.25 242.035156 286.679688 228.546875 286.472656 215.101562 C 286.484375 170.480469 286.492188 125.96875 286.492188 81.46875 C 286.492188 70.820312 277.320312 62.457031 267.152344 62.664062 Z M 268.023438 80.152344 C 268.632812 80.214844 268.964844 80.664062 268.964844 81.46875 L 268.964844 106.078125 L 155.082031 136.878906 L 155.082031 117.03125 C 155.082031 113.1875 157.585938 109.90625 161.292969 108.902344 L 267.324219 80.21875 C 267.582031 80.152344 267.824219 80.132812 268.023438 80.152344 Z M 250.929688 201.601562 C 252.355469 201.601562 253.738281 201.71875 255.070312 201.941406 C 260.402344 202.84375 264.835938 205.464844 267.101562 209.148438 C 271.632812 216.515625 268.234375 227.519531 256.507812 233.875 C 244.78125 240.234375 231.589844 237.136719 227.058594 229.769531 C 222.527344 222.402344 225.921875 211.398438 237.648438 205.039062 C 242.046875 202.65625 246.65625 201.601562 250.929688 201.601562 Z M 146.320312 211.59375 C 141.480469 211.59375 137.558594 215.515625 137.558594 220.355469 L 137.558594 223.609375 C 130.140625 219.839844 121.285156 218.679688 112.503906 220.152344 C 107.507812 220.988281 102.53125 222.675781 97.875 225.199219 C 79.242188 235.300781 70.21875 257.453125 80.710938 274.519531 C 91.203125 291.585938 114.800781 294.953125 133.433594 284.855469 C 146.757812 277.632812 155.171875 264.25 155.046875 250.972656 C 155.054688 250.835938 155.082031 250.710938 155.082031 250.578125 L 155.082031 220.355469 C 155.082031 215.515625 151.160156 211.59375 146.320312 211.59375 Z M 119.503906 237.160156 C 120.929688 237.160156 122.3125 237.277344 123.644531 237.503906 C 128.976562 238.402344 133.410156 241.023438 135.675781 244.707031 C 140.207031 252.074219 136.808594 263.078125 125.082031 269.4375 C 113.355469 275.792969 100.164062 272.695312 95.632812 265.328125 C 91.101562 257.960938 94.5 246.957031 106.226562 240.601562 C 110.621094 238.214844 115.230469 237.160156 119.503906 237.160156 Z M 119.503906 237.160156 " fill-opacity="1" fill-rule="nonzero"/><path fill="#ffffff" d="M 339.523438 211.613281 C 338.246094 211.550781 336.949219 211.753906 335.722656 212.261719 C 332.449219 213.617188 330.316406 216.8125 330.316406 220.355469 L 330.316406 255.402344 C 330.316406 260.242188 334.238281 264.164062 339.078125 264.164062 C 343.917969 264.164062 347.839844 260.242188 347.839844 255.402344 L 347.839844 241.507812 L 359.167969 252.835938 C 362.589844 256.257812 368.136719 256.257812 371.558594 252.835938 C 374.976562 249.414062 374.976562 243.867188 371.558594 240.445312 L 345.273438 214.160156 C 343.707031 212.59375 341.644531 211.71875 339.523438 211.613281 Z M 339.078125 272.925781 C 334.238281 272.925781 330.316406 276.847656 330.316406 281.6875 L 330.316406 303.164062 C 322.898438 299.429688 314.054688 298.296875 305.28125 299.757812 C 300.296875 300.589844 295.335938 302.234375 290.683594 304.722656 C 272.066406 314.667969 262.957031 336.675781 273.5 353.578125 C 284.046875 370.480469 307.523438 373.742188 326.140625 363.792969 C 339.230469 356.800781 347.613281 343.84375 347.769531 330.886719 L 347.839844 281.6875 C 347.839844 276.847656 343.917969 272.925781 339.078125 272.925781 Z M 312.261719 316.804688 C 313.695312 316.804688 315.082031 316.921875 316.421875 317.144531 C 321.773438 318.039062 326.226562 320.625 328.46875 324.214844 C 332.945312 331.390625 329.632812 342.050781 317.890625 348.324219 C 306.148438 354.597656 292.835938 351.484375 288.355469 344.304688 C 283.875 337.125 287.1875 326.464844 298.929688 320.191406 C 303.335938 317.839844 307.964844 316.800781 312.261719 316.804688 Z M 312.261719 316.804688 " fill-opacity="1" fill-rule="nonzero"/><path fill="#ffffff" d="M 155.082031 194.070312 C 155.082031 194.648438 155.027344 195.214844 154.914062 195.78125 C 154.800781 196.34375 154.636719 196.890625 154.414062 197.425781 C 154.195312 197.957031 153.925781 198.460938 153.605469 198.9375 C 153.285156 199.417969 152.921875 199.859375 152.515625 200.265625 C 152.109375 200.671875 151.667969 201.035156 151.1875 201.355469 C 150.710938 201.675781 150.203125 201.945312 149.671875 202.164062 C 149.140625 202.386719 148.59375 202.550781 148.03125 202.664062 C 147.464844 202.777344 146.894531 202.832031 146.320312 202.832031 C 145.746094 202.832031 145.175781 202.777344 144.609375 202.664062 C 144.046875 202.550781 143.5 202.386719 142.96875 202.164062 C 142.4375 201.945312 141.929688 201.675781 141.453125 201.355469 C 140.972656 201.035156 140.53125 200.671875 140.125 200.265625 C 139.71875 199.859375 139.355469 199.417969 139.035156 198.9375 C 138.714844 198.460938 138.445312 197.957031 138.226562 197.425781 C 138.003906 196.890625 137.839844 196.34375 137.726562 195.78125 C 137.613281 195.214844 137.558594 194.648438 137.558594 194.070312 C 137.558594 193.496094 137.613281 192.925781 137.726562 192.363281 C 137.839844 191.796875 138.003906 191.25 138.226562 190.71875 C 138.445312 190.1875 138.714844 189.683594 139.035156 189.203125 C 139.355469 188.726562 139.71875 188.28125 140.125 187.875 C 140.53125 187.46875 140.972656 187.105469 141.453125 186.785156 C 141.929688 186.464844 142.4375 186.195312 142.96875 185.976562 C 143.5 185.757812 144.046875 185.589844 144.609375 185.476562 C 145.175781 185.367188 145.746094 185.308594 146.320312 185.308594 C 146.894531 185.308594 147.464844 185.367188 148.03125 185.476562 C 148.59375 185.589844 149.140625 185.757812 149.671875 185.976562 C 150.203125 186.195312 150.710938 186.464844 151.1875 186.785156 C 151.667969 187.105469 152.109375 187.46875 152.515625 187.875 C 152.921875 188.28125 153.285156 188.726562 153.605469 189.203125 C 153.925781 189.683594 154.195312 190.1875 154.414062 190.71875 C 154.636719 191.25 154.800781 191.796875 154.914062 192.363281 C 155.027344 192.925781 155.082031 193.496094 155.082031 194.070312 Z M 155.082031 194.070312 " fill-opacity="1" fill-rule="evenodd"/><path fill="#ffffff" d="M 76.671875 1.332031 C 75.398438 1.269531 74.101562 1.472656 72.871094 1.980469 C 69.597656 3.339844 67.464844 6.53125 67.464844 10.074219 L 67.464844 92.882812 C 60.046875 89.148438 51.207031 88.019531 42.429688 89.480469 C 37.445312 90.308594 32.484375 91.953125 27.832031 94.441406 C 9.214844 104.386719 0.105469 126.398438 10.652344 143.296875 C 21.195312 160.199219 44.675781 163.460938 63.289062 153.515625 C 76.382812 146.519531 84.761719 133.5625 84.917969 120.605469 L 84.988281 31.226562 L 96.316406 42.554688 C 99.738281 45.976562 105.285156 45.976562 108.707031 42.554688 C 112.128906 39.132812 112.128906 33.585938 108.707031 30.167969 L 82.421875 3.882812 C 80.855469 2.316406 78.796875 1.441406 76.671875 1.332031 Z M 49.410156 106.523438 C 50.84375 106.523438 52.230469 106.640625 53.570312 106.867188 C 58.921875 107.757812 63.378906 110.34375 65.617188 113.933594 C 70.097656 121.113281 66.785156 131.769531 55.042969 138.042969 C 43.296875 144.320312 29.984375 141.203125 25.503906 134.023438 C 21.027344 126.84375 24.335938 116.1875 36.082031 109.910156 C 40.484375 107.558594 45.117188 106.519531 49.410156 106.523438 Z M 49.410156 106.523438 " fill-opacity="1" fill-rule="nonzero"/><path fill="#ffffff" d="M 267.152344 62.664062 C 265.699219 62.6875 264.222656 62.898438 262.753906 63.296875 L 156.722656 91.996094 C 145.457031 95.042969 137.558594 105.359375 137.558594 117.03125 L 137.558594 167.785156 C 137.558594 172.625 141.480469 176.546875 146.320312 176.546875 C 151.160156 176.546875 155.082031 172.625 155.082031 167.785156 L 155.082031 155.054688 L 268.964844 124.234375 L 268.964844 188.03125 C 261.554688 184.269531 252.703125 183.121094 243.929688 184.589844 C 238.933594 185.429688 233.957031 187.113281 229.300781 189.640625 C 210.667969 199.738281 201.640625 221.890625 212.136719 238.957031 C 222.628906 256.023438 246.226562 259.394531 264.859375 249.292969 C 278.25 242.035156 286.679688 228.546875 286.472656 215.101562 C 286.484375 170.480469 286.492188 125.96875 286.492188 81.46875 C 286.492188 70.820312 277.320312 62.457031 267.152344 62.664062 Z M 268.023438 80.152344 C 268.632812 80.214844 268.964844 80.664062 268.964844 81.46875 L 268.964844 106.078125 L 155.082031 136.878906 L 155.082031 117.03125 C 155.082031 113.1875 157.585938 109.90625 161.292969 108.902344 L 267.324219 80.21875 C 267.582031 80.152344 267.824219 80.132812 268.023438 80.152344 Z M 250.929688 201.601562 C 252.355469 201.601562 253.738281 201.71875 255.070312 201.941406 C 260.402344 202.84375 264.835938 205.464844 267.101562 209.148438 C 271.632812 216.515625 268.234375 227.519531 256.507812 233.875 C 244.78125 240.234375 231.589844 237.136719 227.058594 229.769531 C 222.527344 222.402344 225.921875 211.398438 237.648438 205.039062 C 242.046875 202.65625 246.65625 201.601562 250.929688 201.601562 Z M 146.320312 211.59375 C 141.480469 211.59375 137.558594 215.515625 137.558594 220.355469 L 137.558594 223.609375 C 130.140625 219.839844 121.285156 218.679688 112.503906 220.152344 C 107.507812 220.988281 102.53125 222.675781 97.875 225.199219 C 79.242188 235.300781 70.21875 257.453125 80.710938 274.519531 C 91.203125 291.585938 114.800781 294.953125 133.433594 284.855469 C 146.757812 277.632812 155.171875 264.25 155.046875 250.972656 C 155.054688 250.835938 155.082031 250.710938 155.082031 250.578125 L 155.082031 220.355469 C 155.082031 215.515625 151.160156 211.59375 146.320312 211.59375 Z M 119.503906 237.160156 C 120.929688 237.160156 122.3125 237.277344 123.644531 237.503906 C 128.976562 238.402344 133.410156 241.023438 135.675781 244.707031 C 140.207031 252.074219 136.808594 263.078125 125.082031 269.4375 C 113.355469 275.792969 100.164062 272.695312 95.632812 265.328125 C 91.101562 257.960938 94.5 246.957031 106.226562 240.601562 C 110.621094 238.214844 115.230469 237.160156 119.503906 237.160156 Z M 119.503906 237.160156 " fill-opacity="1" fill-rule="nonzero"/><path fill="#ffffff" d="M 339.523438 211.613281 C 338.246094 211.550781 336.949219 211.753906 335.722656 212.261719 C 332.449219 213.617188 330.316406 216.8125 330.316406 220.355469 L 330.316406 255.402344 C 330.316406 260.242188 334.238281 264.164062 339.078125 264.164062 C 343.917969 264.164062 347.839844 260.242188 347.839844 255.402344 L 347.839844 241.507812 L 359.167969 252.835938 C 362.589844 256.257812 368.136719 256.257812 371.558594 252.835938 C 374.976562 249.414062 374.976562 243.867188 371.558594 240.445312 L 345.273438 214.160156 C 343.707031 212.59375 341.644531 211.71875 339.523438 211.613281 Z M 339.078125 272.925781 C 334.238281 272.925781 330.316406 276.847656 330.316406 281.6875 L 330.316406 303.164062 C 322.898438 299.429688 314.054688 298.296875 305.28125 299.757812 C 300.296875 300.589844 295.335938 302.234375 290.683594 304.722656 C 272.066406 314.667969 262.957031 336.675781 273.5 353.578125 C 284.046875 370.480469 307.523438 373.742188 326.140625 363.792969 C 339.230469 356.800781 347.613281 343.84375 347.769531 330.886719 L 347.839844 281.6875 C 347.839844 276.847656 343.917969 272.925781 339.078125 272.925781 Z M 312.261719 316.804688 C 313.695312 316.804688 315.082031 316.921875 316.421875 317.144531 C 321.773438 318.039062 326.226562 320.625 328.46875 324.214844 C 332.945312 331.390625 329.632812 342.050781 317.890625 348.324219 C 306.148438 354.597656 292.835938 351.484375 288.355469 344.304688 C 283.875 337.125 287.1875 326.464844 298.929688 320.191406 C 303.335938 317.839844 307.964844 316.800781 312.261719 316.804688 Z M 312.261719 316.804688 " fill-opacity="1" fill-rule="nonzero"/><path fill="#ffffff" d="M 155.082031 194.070312 C 155.082031 194.648438 155.027344 195.214844 154.914062 195.78125 C 154.800781 196.34375 154.636719 196.890625 154.414062 197.425781 C 154.195312 197.957031 153.925781 198.460938 153.605469 198.9375 C 153.285156 199.417969 152.921875 199.859375 152.515625 200.265625 C 152.109375 200.671875 151.667969 201.035156 151.1875 201.355469 C 150.710938 201.675781 150.203125 201.945312 149.671875 202.164062 C 149.140625 202.386719 148.59375 202.550781 148.03125 202.664062 C 147.464844 202.777344 146.894531 202.832031 146.320312 202.832031 C 145.746094 202.832031 145.175781 202.777344 144.609375 202.664062 C 144.046875 202.550781 143.5 202.386719 142.96875 202.164062 C 142.4375 201.945312 141.929688 201.675781 141.453125 201.355469 C 140.972656 201.035156 140.53125 200.671875 140.125 200.265625 C 139.71875 199.859375 139.355469 199.417969 139.035156 198.9375 C 138.714844 198.460938 138.445312 197.957031 138.226562 197.425781 C 138.003906 196.890625 137.839844 196.34375 137.726562 195.78125 C 137.613281 195.214844 137.558594 194.648438 137.558594 194.070312 C 137.558594 193.496094 137.613281 192.925781 137.726562 192.363281 C 137.839844 191.796875 138.003906 191.25 138.226562 190.71875 C 138.445312 190.1875 138.714844 189.683594 139.035156 189.203125 C 139.355469 188.726562 139.71875 188.28125 140.125 187.875 C 140.53125 187.46875 140.972656 187.105469 141.453125 186.785156 C 141.929688 186.464844 142.4375 186.195312 142.96875 185.976562 C 143.5 185.757812 144.046875 185.589844 144.609375 185.476562 C 145.175781 185.367188 145.746094 185.308594 146.320312 185.308594 C 146.894531 185.308594 147.464844 185.367188 148.03125 185.476562 C 148.59375 185.589844 149.140625 185.757812 149.671875 185.976562 C 150.203125 186.195312 150.710938 186.464844 151.1875 186.785156 C 151.667969 187.105469 152.109375 187.46875 152.515625 187.875 C 152.921875 188.28125 153.285156 188.726562 153.605469 189.203125 C 153.925781 189.683594 154.195312 190.1875 154.414062 190.71875 C 154.636719 191.25 154.800781 191.796875 154.914062 192.363281 C 155.027344 192.925781 155.082031 193.496094 155.082031 194.070312 Z M 155.082031 194.070312 " fill-opacity="1" fill-rule="evenodd"/></svg>