<svg xmlns="http://www.w3.org/2000/svg" xmlns:xlink="http://www.w3.org/1999/xlink" width="500" zoomAndPan="magnify" viewBox="0 0 375 374.999991" height="500" preserveAspectRatio="xMidYMid meet" version="1.0"><defs><clipPath id="f9763f9e44"><rect x="0" width="375" y="0" height="375"/></clipPath></defs><g transform="matrix(1, 0, 0, 1, 0, 0)"><g clip-path="url(#f9763f9e44)"><path fill="#ffffff" d="M 0 187.5 C 0 184.429688 0.0742188 181.363281 0.226562 178.300781 C 0.375 175.234375 0.601562 172.175781 0.902344 169.121094 C 1.203125 166.066406 1.578125 163.023438 2.03125 159.988281 C 2.480469 156.953125 3.003906 153.929688 3.601562 150.921875 C 4.203125 147.910156 4.875 144.917969 5.621094 141.941406 C 6.363281 138.964844 7.183594 136.007812 8.074219 133.070312 C 8.964844 130.136719 9.925781 127.222656 10.960938 124.332031 C 11.996094 121.445312 13.097656 118.582031 14.273438 115.746094 C 15.445312 112.910156 16.691406 110.105469 18.003906 107.332031 C 19.3125 104.558594 20.691406 101.820312 22.140625 99.113281 C 23.585938 96.40625 25.097656 93.738281 26.675781 91.105469 C 28.253906 88.472656 29.894531 85.882812 31.597656 83.332031 C 33.304688 80.777344 35.070312 78.269531 36.898438 75.804688 C 38.726562 73.339844 40.613281 70.921875 42.558594 68.550781 C 44.507812 66.179688 46.511719 63.855469 48.570312 61.582031 C 50.632812 59.308594 52.746094 57.085938 54.917969 54.917969 C 57.085938 52.746094 59.308594 50.632812 61.582031 48.570312 C 63.855469 46.511719 66.179688 44.507812 68.550781 42.558594 C 70.921875 40.613281 73.339844 38.726562 75.804688 36.898438 C 78.269531 35.070312 80.777344 33.304688 83.332031 31.597656 C 85.882812 29.894531 88.472656 28.253906 91.105469 26.675781 C 93.738281 25.097656 96.40625 23.585938 99.113281 22.140625 C 101.820312 20.691406 104.558594 19.3125 107.332031 18.003906 C 110.105469 16.691406 112.910156 15.445312 115.746094 14.273438 C 118.582031 13.097656 121.445312 11.996094 124.332031 10.960938 C 127.222656 9.925781 130.136719 8.964844 133.070312 8.074219 C 136.007812 7.183594 138.964844 6.363281 141.941406 5.617188 C 144.917969 4.875 147.910156 4.203125 150.921875 3.601562 C 153.929688 3.003906 156.953125 2.480469 159.988281 2.03125 C 163.023438 1.578125 166.066406 1.203125 169.121094 0.902344 C 172.175781 0.601562 175.234375 0.375 178.300781 0.226562 C 181.363281 0.0742188 184.429688 0 187.5 0 C 190.570312 0 193.636719 0.0742188 196.699219 0.226562 C 199.765625 0.375 202.824219 0.601562 205.878906 0.902344 C 208.933594 1.203125 211.976562 1.578125 215.011719 2.03125 C 218.046875 2.480469 221.070312 3.003906 224.078125 3.601562 C 227.089844 4.203125 230.082031 4.875 233.058594 5.617188 C 236.035156 6.363281 238.992188 7.183594 241.929688 8.074219 C 244.863281 8.964844 247.777344 9.925781 250.667969 10.960938 C 253.554688 11.996094 256.417969 13.097656 259.253906 14.273438 C 262.089844 15.445312 264.894531 16.691406 267.667969 18.003906 C 270.441406 19.3125 273.179688 20.691406 275.886719 22.140625 C 278.59375 23.585938 281.261719 25.097656 283.894531 26.675781 C 286.527344 28.253906 289.117188 29.894531 291.667969 31.597656 C 294.222656 33.304688 296.730469 35.070312 299.195312 36.898438 C 301.660156 38.726562 304.078125 40.613281 306.449219 42.558594 C 308.820312 44.507812 311.144531 46.511719 313.417969 48.570312 C 315.691406 50.632812 317.914062 52.746094 320.082031 54.917969 C 322.253906 57.085938 324.367188 59.308594 326.429688 61.582031 C 328.488281 63.855469 330.492188 66.179688 332.4375 68.550781 C 334.386719 70.921875 336.273438 73.339844 338.101562 75.804688 C 339.929688 78.269531 341.695312 80.777344 343.402344 83.332031 C 345.105469 85.882812 346.746094 88.472656 348.324219 91.105469 C 349.902344 93.738281 351.414062 96.40625 352.859375 99.113281 C 354.308594 101.820312 355.6875 104.558594 356.996094 107.332031 C 358.308594 110.105469 359.554688 112.910156 360.726562 115.746094 C 361.902344 118.582031 363.003906 121.445312 364.039062 124.332031 C 365.074219 127.222656 366.035156 130.136719 366.925781 133.070312 C 367.816406 136.007812 368.636719 138.964844 369.378906 141.941406 C 370.125 144.917969 370.796875 147.910156 371.398438 150.921875 C 371.996094 153.929688 372.519531 156.953125 372.96875 159.988281 C 373.421875 163.023438 373.796875 166.066406 374.097656 169.121094 C 374.398438 172.175781 374.625 175.234375 374.773438 178.300781 C 374.925781 181.363281 375 184.429688 375 187.5 C 375 190.570312 374.925781 193.636719 374.773438 196.699219 C 374.625 199.765625 374.398438 202.824219 374.097656 205.878906 C 373.796875 208.933594 373.421875 211.976562 372.96875 215.011719 C 372.519531 218.046875 371.996094 221.070312 371.398438 224.078125 C 370.796875 227.089844 370.125 230.082031 369.378906 233.058594 C 368.636719 236.035156 367.816406 238.992188 366.925781 241.929688 C 366.035156 244.863281 365.074219 247.777344 364.039062 250.667969 C 363.003906 253.554688 361.902344 256.417969 360.726562 259.253906 C 359.554688 262.089844 358.308594 264.894531 356.996094 267.667969 C 355.6875 270.441406 354.308594 273.179688 352.859375 275.886719 C 351.414062 278.59375 349.902344 281.261719 348.324219 283.894531 C 346.746094 286.527344 345.105469 289.117188 343.402344 291.667969 C 341.695312 294.222656 339.929688 296.730469 338.101562 299.195312 C 336.273438 301.660156 334.386719 304.078125 332.4375 306.449219 C 330.492188 308.820312 328.488281 311.144531 326.429688 313.417969 C 324.367188 315.691406 322.253906 317.914062 320.082031 320.082031 C 317.914062 322.253906 315.691406 324.367188 313.417969 326.429688 C 311.144531 328.488281 308.820312 330.492188 306.449219 332.441406 C 304.078125 334.386719 301.660156 336.273438 299.195312 338.101562 C 296.730469 339.929688 294.222656 341.695312 291.667969 343.402344 C 289.117188 345.105469 286.527344 346.746094 283.894531 348.324219 C 281.261719 349.902344 278.59375 351.414062 275.886719 352.859375 C 273.179688 354.308594 270.441406 355.6875 267.667969 356.996094 C 264.894531 358.308594 262.089844 359.554688 259.253906 360.726562 C 256.417969 361.902344 253.554688 363.003906 250.667969 364.039062 C 247.777344 365.074219 244.863281 366.035156 241.929688 366.925781 C 238.992188 367.816406 236.035156 368.636719 233.058594 369.378906 C 230.082031 370.125 227.089844 370.796875 224.078125 371.398438 C 221.070312 371.996094 218.046875 372.519531 215.011719 372.96875 C 211.976562 373.421875 208.933594 373.796875 205.878906 374.097656 C 202.824219 374.398438 199.765625 374.625 196.699219 374.773438 C 193.636719 374.925781 190.570312 375 187.5 375 C 184.433594 374.996094 181.367188 374.917969 178.304688 374.765625 C 175.238281 374.609375 172.179688 374.382812 169.128906 374.078125 C 166.074219 373.773438 163.03125 373.394531 160 372.945312 C 156.964844 372.492188 153.941406 371.964844 150.933594 371.363281 C 147.925781 370.761719 144.933594 370.085938 141.960938 369.339844 C 138.984375 368.59375 136.03125 367.773438 133.09375 366.878906 C 130.160156 365.988281 127.25 365.023438 124.359375 363.988281 C 121.472656 362.953125 118.613281 361.847656 115.777344 360.671875 C 112.945312 359.496094 110.144531 358.253906 107.371094 356.9375 C 104.597656 355.625 101.859375 354.246094 99.15625 352.800781 C 96.449219 351.351562 93.78125 349.839844 91.152344 348.261719 C 88.519531 346.683594 85.929688 345.042969 83.378906 343.335938 C 80.828125 341.632812 78.324219 339.863281 75.859375 338.039062 C 73.394531 336.210938 70.976562 334.320312 68.605469 332.375 C 66.234375 330.429688 63.914062 328.425781 61.640625 326.367188 C 59.367188 324.304688 57.148438 322.191406 54.976562 320.023438 C 52.808594 317.851562 50.695312 315.632812 48.632812 313.359375 C 46.574219 311.085938 44.570312 308.765625 42.625 306.394531 C 40.679688 304.023438 38.789062 301.605469 36.960938 299.140625 C 35.136719 296.675781 33.367188 294.171875 31.664062 291.621094 C 29.957031 289.070312 28.316406 286.480469 26.738281 283.847656 C 25.160156 281.21875 23.648438 278.550781 22.199219 275.84375 C 20.753906 273.140625 19.375 270.402344 18.0625 267.628906 C 16.746094 264.855469 15.503906 262.054688 14.328125 259.222656 C 13.152344 256.386719 12.046875 253.527344 11.011719 250.640625 C 9.976562 247.75 9.011719 244.839844 8.121094 241.90625 C 7.226562 238.96875 6.40625 236.015625 5.660156 233.039062 C 4.914062 230.066406 4.238281 227.074219 3.636719 224.066406 C 3.035156 221.058594 2.507812 218.035156 2.054688 215 C 1.605469 211.96875 1.226562 208.925781 0.921875 205.871094 C 0.617188 202.820312 0.390625 199.761719 0.234375 196.695312 C 0.0820312 193.632812 0.00390625 190.566406 0 187.5 Z M 358.695312 187.5 C 358.695312 184.699219 358.625 181.898438 358.488281 179.101562 C 358.351562 176.300781 358.144531 173.507812 357.871094 170.71875 C 357.597656 167.929688 357.253906 165.152344 356.84375 162.378906 C 356.429688 159.609375 355.953125 156.847656 355.40625 154.101562 C 354.859375 151.351562 354.246094 148.621094 353.566406 145.902344 C 352.882812 143.183594 352.136719 140.484375 351.324219 137.804688 C 350.511719 135.125 349.632812 132.464844 348.6875 129.824219 C 347.746094 127.1875 346.738281 124.574219 345.664062 121.984375 C 344.59375 119.398438 343.457031 116.835938 342.257812 114.304688 C 341.0625 111.773438 339.800781 109.269531 338.480469 106.800781 C 337.160156 104.328125 335.78125 101.890625 334.339844 99.488281 C 332.898438 97.085938 331.402344 94.71875 329.84375 92.390625 C 328.289062 90.058594 326.675781 87.769531 325.003906 85.519531 C 323.335938 83.269531 321.613281 81.058594 319.835938 78.894531 C 318.058594 76.730469 316.230469 74.609375 314.347656 72.53125 C 312.464844 70.457031 310.535156 68.425781 308.554688 66.445312 C 306.574219 64.464844 304.542969 62.535156 302.46875 60.652344 C 300.390625 58.769531 298.269531 56.941406 296.105469 55.164062 C 293.941406 53.386719 291.730469 51.664062 289.480469 49.996094 C 287.230469 48.324219 284.941406 46.710938 282.609375 45.15625 C 280.28125 43.597656 277.914062 42.101562 275.511719 40.660156 C 273.109375 39.21875 270.671875 37.839844 268.199219 36.519531 C 265.730469 35.199219 263.226562 33.9375 260.695312 32.742188 C 258.164062 31.542969 255.601562 30.40625 253.015625 29.335938 C 250.425781 28.261719 247.8125 27.253906 245.175781 26.3125 C 242.535156 25.367188 239.875 24.488281 237.195312 23.675781 C 234.515625 22.863281 231.816406 22.117188 229.097656 21.433594 C 226.378906 20.753906 223.648438 20.140625 220.898438 19.59375 C 218.152344 19.046875 215.390625 18.570312 212.621094 18.15625 C 209.847656 17.746094 207.066406 17.402344 204.28125 17.128906 C 201.492188 16.855469 198.699219 16.648438 195.898438 16.511719 C 193.101562 16.375 190.300781 16.304688 187.5 16.304688 C 184.699219 16.304688 181.898438 16.375 179.101562 16.511719 C 176.300781 16.648438 173.507812 16.855469 170.71875 17.128906 C 167.929688 17.402344 165.152344 17.746094 162.378906 18.15625 C 159.609375 18.570312 156.847656 19.046875 154.101562 19.59375 C 151.351562 20.140625 148.621094 20.753906 145.902344 21.433594 C 143.183594 22.117188 140.484375 22.863281 137.804688 23.675781 C 135.125 24.488281 132.464844 25.367188 129.824219 26.3125 C 127.1875 27.253906 124.574219 28.261719 121.984375 29.335938 C 119.398438 30.40625 116.835938 31.542969 114.304688 32.742188 C 111.773438 33.9375 109.269531 35.199219 106.800781 36.519531 C 104.328125 37.839844 101.890625 39.21875 99.488281 40.660156 C 97.085938 42.101562 94.71875 43.597656 92.390625 45.15625 C 90.058594 46.710938 87.769531 48.324219 85.519531 49.996094 C 83.269531 51.664062 81.058594 53.386719 78.894531 55.164062 C 76.730469 56.941406 74.609375 58.769531 72.53125 60.652344 C 70.457031 62.535156 68.425781 64.464844 66.445312 66.445312 C 64.464844 68.425781 62.535156 70.457031 60.652344 72.53125 C 58.769531 74.609375 56.941406 76.730469 55.164062 78.894531 C 53.386719 81.058594 51.664062 83.269531 49.996094 85.519531 C 48.324219 87.769531 46.710938 90.058594 45.15625 92.390625 C 43.597656 94.71875 42.101562 97.085938 40.660156 99.488281 C 39.21875 101.890625 37.839844 104.328125 36.519531 106.800781 C 35.199219 109.269531 33.9375 111.773438 32.742188 114.304688 C 31.542969 116.835938 30.40625 119.398438 29.335938 121.984375 C 28.261719 124.574219 27.253906 127.1875 26.3125 129.824219 C 25.367188 132.464844 24.488281 135.125 23.675781 137.804688 C 22.863281 140.484375 22.117188 143.183594 21.433594 145.902344 C 20.753906 148.621094 20.140625 151.351562 19.59375 154.101562 C 19.046875 156.847656 18.570312 159.609375 18.15625 162.378906 C 17.746094 165.152344 17.402344 167.929688 17.128906 170.71875 C 16.855469 173.507812 16.648438 176.300781 16.511719 179.101562 C 16.375 181.898438 16.304688 184.699219 16.304688 187.5 C 16.304688 190.300781 16.375 193.101562 16.511719 195.898438 C 16.648438 198.699219 16.855469 201.492188 17.128906 204.28125 C 17.402344 207.066406 17.746094 209.847656 18.15625 212.621094 C 18.570312 215.390625 19.046875 218.152344 19.59375 220.898438 C 20.140625 223.644531 20.753906 226.378906 21.433594 229.097656 C 22.117188 231.816406 22.863281 234.515625 23.675781 237.195312 C 24.488281 239.875 25.367188 242.535156 26.3125 245.175781 C 27.253906 247.8125 28.261719 250.425781 29.335938 253.015625 C 30.40625 255.601562 31.542969 258.164062 32.742188 260.695312 C 33.9375 263.226562 35.199219 265.730469 36.519531 268.199219 C 37.839844 270.671875 39.21875 273.109375 40.660156 275.511719 C 42.101562 277.914062 43.597656 280.28125 45.15625 282.609375 C 46.710938 284.941406 48.324219 287.230469 49.996094 289.480469 C 51.664062 291.730469 53.386719 293.941406 55.164062 296.105469 C 56.941406 298.269531 58.769531 300.390625 60.652344 302.46875 C 62.535156 304.542969 64.464844 306.574219 66.445312 308.554688 C 68.425781 310.535156 70.457031 312.464844 72.53125 314.347656 C 74.609375 316.230469 76.730469 318.058594 78.894531 319.835938 C 81.058594 321.613281 83.269531 323.335938 85.519531 325.003906 C 87.769531 326.675781 90.058594 328.289062 92.390625 329.84375 C 94.71875 331.402344 97.085938 332.898438 99.488281 334.339844 C 101.890625 335.78125 104.328125 337.160156 106.800781 338.480469 C 109.269531 339.800781 111.773438 341.0625 114.304688 342.257812 C 116.835938 343.457031 119.398438 344.59375 121.984375 345.664062 C 124.574219 346.734375 127.1875 347.746094 129.824219 348.6875 C 132.464844 349.632812 135.125 350.511719 137.804688 351.324219 C 140.484375 352.136719 143.183594 352.882812 145.902344 353.566406 C 148.621094 354.246094 151.355469 354.859375 154.101562 355.40625 C 156.847656 355.953125 159.609375 356.429688 162.378906 356.84375 C 165.152344 357.253906 167.933594 357.597656 170.71875 357.871094 C 173.507812 358.144531 176.300781 358.351562 179.101562 358.488281 C 181.898438 358.625 184.699219 358.695312 187.5 358.695312 C 190.300781 358.691406 193.101562 358.621094 195.898438 358.480469 C 198.695312 358.339844 201.488281 358.132812 204.273438 357.855469 C 207.0625 357.578125 209.839844 357.230469 212.609375 356.816406 C 215.378906 356.402344 218.136719 355.921875 220.886719 355.375 C 223.632812 354.824219 226.363281 354.210938 229.078125 353.527344 C 231.796875 352.84375 234.492188 352.09375 237.171875 351.28125 C 239.851562 350.464844 242.511719 349.585938 245.148438 348.640625 C 247.785156 347.695312 250.394531 346.683594 252.984375 345.613281 C 255.570312 344.539062 258.128906 343.402344 260.660156 342.203125 C 263.191406 341.003906 265.691406 339.746094 268.164062 338.421875 C 270.632812 337.101562 273.066406 335.722656 275.46875 334.28125 C 277.871094 332.839844 280.238281 331.339844 282.566406 329.785156 C 284.894531 328.226562 287.183594 326.613281 289.429688 324.945312 C 291.679688 323.277344 293.886719 321.554688 296.054688 319.777344 C 298.21875 318 300.335938 316.167969 302.414062 314.289062 C 304.488281 312.40625 306.515625 310.476562 308.496094 308.496094 C 310.476562 306.515625 312.40625 304.488281 314.289062 302.414062 C 316.167969 300.335938 318 298.21875 319.777344 296.054688 C 321.554688 293.886719 323.277344 291.679688 324.945312 289.429688 C 326.613281 287.183594 328.226562 284.894531 329.785156 282.566406 C 331.339844 280.238281 332.839844 277.871094 334.28125 275.46875 C 335.722656 273.066406 337.101562 270.632812 338.421875 268.164062 C 339.746094 265.691406 341.003906 263.191406 342.203125 260.660156 C 343.402344 258.128906 344.539062 255.570312 345.613281 252.984375 C 346.683594 250.394531 347.695312 247.785156 348.640625 245.148438 C 349.585938 242.511719 350.464844 239.851562 351.28125 237.171875 C 352.09375 234.492188 352.84375 231.796875 353.527344 229.078125 C 354.210938 226.363281 354.824219 223.632812 355.375 220.886719 C 355.921875 218.136719 356.402344 215.378906 356.816406 212.609375 C 357.230469 209.839844 357.578125 207.0625 357.855469 204.273438 C 358.132812 201.488281 358.339844 198.695312 358.480469 195.898438 C 358.621094 193.101562 358.691406 190.300781 358.695312 187.5 Z M 358.695312 187.5 " fill-opacity="1" fill-rule="nonzero"/><path fill="#ffffff" d="M 105.976562 89.675781 L 105.976562 115.289062 C 104.242188 115.726562 102.550781 116.308594 100.910156 117.027344 C 99.269531 117.75 97.699219 118.597656 96.199219 119.578125 C 94.699219 120.558594 93.289062 121.65625 91.972656 122.871094 C 90.652344 124.085938 89.445312 125.398438 88.34375 126.8125 C 87.242188 128.226562 86.265625 129.722656 85.414062 131.300781 C 84.5625 132.875 83.84375 134.511719 83.261719 136.207031 C 82.679688 137.902344 82.242188 139.632812 81.945312 141.398438 C 81.652344 143.167969 81.503906 144.945312 81.503906 146.738281 C 81.503906 148.53125 81.652344 150.3125 81.945312 152.078125 C 82.242188 153.847656 82.679688 155.578125 83.261719 157.273438 C 83.84375 158.96875 84.5625 160.601562 85.414062 162.179688 C 86.265625 163.753906 87.242188 165.25 88.34375 166.664062 C 89.445312 168.078125 90.652344 169.394531 91.972656 170.605469 C 93.289062 171.820312 94.699219 172.917969 96.199219 173.898438 C 97.699219 174.878906 99.269531 175.730469 100.910156 176.449219 C 102.550781 177.167969 104.242188 177.75 105.976562 178.191406 L 105.976562 285.324219 C 105.976562 285.863281 106.03125 286.390625 106.136719 286.917969 C 106.238281 287.441406 106.394531 287.953125 106.597656 288.445312 C 106.804688 288.941406 107.054688 289.410156 107.351562 289.855469 C 107.648438 290.300781 107.988281 290.710938 108.367188 291.089844 C 108.746094 291.46875 109.15625 291.808594 109.601562 292.105469 C 110.046875 292.402344 110.515625 292.652344 111.011719 292.859375 C 111.503906 293.0625 112.015625 293.21875 112.539062 293.320312 C 113.066406 293.425781 113.59375 293.476562 114.128906 293.476562 C 114.664062 293.476562 115.195312 293.425781 115.722656 293.320312 C 116.246094 293.21875 116.753906 293.0625 117.25 292.859375 C 117.746094 292.652344 118.214844 292.402344 118.660156 292.105469 C 119.105469 291.808594 119.515625 291.46875 119.894531 291.089844 C 120.273438 290.710938 120.613281 290.300781 120.910156 289.855469 C 121.207031 289.410156 121.457031 288.941406 121.660156 288.445312 C 121.867188 287.953125 122.023438 287.441406 122.125 286.917969 C 122.230469 286.390625 122.28125 285.863281 122.28125 285.324219 L 122.28125 178.191406 C 124.019531 177.75 125.707031 177.167969 127.351562 176.449219 C 128.992188 175.730469 130.5625 174.878906 132.0625 173.898438 C 133.5625 172.917969 134.96875 171.820312 136.289062 170.605469 C 137.605469 169.394531 138.816406 168.078125 139.917969 166.664062 C 141.019531 165.25 141.996094 163.753906 142.847656 162.179688 C 143.699219 160.601562 144.417969 158.96875 145 157.273438 C 145.582031 155.578125 146.019531 153.847656 146.3125 152.078125 C 146.609375 150.3125 146.757812 148.53125 146.757812 146.738281 C 146.757812 144.945312 146.609375 143.167969 146.3125 141.398438 C 146.019531 139.632812 145.582031 137.902344 145 136.207031 C 144.417969 134.511719 143.699219 132.875 142.847656 131.300781 C 141.996094 129.722656 141.019531 128.226562 139.917969 126.8125 C 138.816406 125.398438 137.605469 124.085938 136.289062 122.871094 C 134.96875 121.65625 133.5625 120.558594 132.0625 119.578125 C 130.5625 118.597656 128.992188 117.75 127.351562 117.027344 C 125.707031 116.308594 124.019531 115.726562 122.28125 115.289062 L 122.28125 89.675781 C 122.28125 89.136719 122.230469 88.609375 122.125 88.082031 C 122.023438 87.558594 121.867188 87.046875 121.660156 86.554688 C 121.457031 86.058594 121.207031 85.589844 120.910156 85.144531 C 120.613281 84.699219 120.273438 84.289062 119.894531 83.910156 C 119.515625 83.53125 119.105469 83.191406 118.660156 82.894531 C 118.214844 82.597656 117.746094 82.347656 117.25 82.140625 C 116.753906 81.9375 116.246094 81.78125 115.722656 81.679688 C 115.195312 81.574219 114.664062 81.523438 114.128906 81.523438 C 113.59375 81.523438 113.066406 81.574219 112.539062 81.679688 C 112.015625 81.78125 111.503906 81.9375 111.011719 82.140625 C 110.515625 82.347656 110.046875 82.597656 109.601562 82.894531 C 109.15625 83.191406 108.746094 83.53125 108.367188 83.910156 C 107.988281 84.289062 107.648438 84.699219 107.351562 85.144531 C 107.054688 85.589844 106.804688 86.058594 106.597656 86.554688 C 106.394531 87.046875 106.238281 87.558594 106.136719 88.082031 C 106.03125 88.609375 105.976562 89.136719 105.976562 89.675781 Z M 130.433594 146.738281 C 130.433594 147.273438 130.410156 147.804688 130.355469 148.335938 C 130.304688 148.867188 130.226562 149.394531 130.121094 149.921875 C 130.015625 150.445312 129.886719 150.960938 129.734375 151.472656 C 129.578125 151.984375 129.398438 152.484375 129.195312 152.980469 C 128.988281 153.472656 128.761719 153.953125 128.507812 154.425781 C 128.257812 154.894531 127.984375 155.351562 127.6875 155.796875 C 127.390625 156.242188 127.074219 156.667969 126.734375 157.082031 C 126.394531 157.496094 126.035156 157.890625 125.660156 158.269531 C 125.28125 158.644531 124.886719 159.003906 124.472656 159.34375 C 124.0625 159.679688 123.632812 160 123.1875 160.296875 C 122.746094 160.59375 122.289062 160.867188 121.816406 161.117188 C 121.34375 161.371094 120.863281 161.597656 120.371094 161.800781 C 119.875 162.007812 119.375 162.1875 118.863281 162.339844 C 118.351562 162.496094 117.835938 162.625 117.3125 162.730469 C 116.789062 162.835938 116.261719 162.914062 115.730469 162.964844 C 115.195312 163.015625 114.664062 163.042969 114.128906 163.042969 C 113.597656 163.042969 113.0625 163.015625 112.53125 162.964844 C 112 162.914062 111.472656 162.835938 110.949219 162.730469 C 110.425781 162.625 109.910156 162.496094 109.398438 162.339844 C 108.886719 162.1875 108.382812 162.007812 107.890625 161.800781 C 107.398438 161.597656 106.914062 161.371094 106.445312 161.117188 C 105.972656 160.867188 105.515625 160.59375 105.070312 160.296875 C 104.628906 160 104.199219 159.679688 103.785156 159.34375 C 103.375 159.003906 102.980469 158.644531 102.601562 158.269531 C 102.222656 157.890625 101.867188 157.496094 101.527344 157.082031 C 101.1875 156.667969 100.871094 156.242188 100.574219 155.796875 C 100.277344 155.351562 100.003906 154.894531 99.75 154.425781 C 99.5 153.953125 99.273438 153.472656 99.066406 152.980469 C 98.863281 152.484375 98.683594 151.984375 98.527344 151.472656 C 98.375 150.960938 98.242188 150.445312 98.140625 149.921875 C 98.035156 149.394531 97.957031 148.867188 97.90625 148.335938 C 97.851562 147.804688 97.824219 147.273438 97.824219 146.738281 C 97.824219 146.207031 97.851562 145.671875 97.90625 145.140625 C 97.957031 144.609375 98.035156 144.082031 98.140625 143.558594 C 98.242188 143.035156 98.375 142.515625 98.527344 142.007812 C 98.683594 141.496094 98.863281 140.992188 99.066406 140.5 C 99.273438 140.007812 99.5 139.523438 99.75 139.054688 C 100.003906 138.582031 100.277344 138.125 100.574219 137.679688 C 100.871094 137.238281 101.1875 136.808594 101.527344 136.394531 C 101.867188 135.984375 102.222656 135.585938 102.601562 135.210938 C 102.980469 134.832031 103.375 134.472656 103.785156 134.136719 C 104.199219 133.796875 104.628906 133.480469 105.070312 133.183594 C 105.515625 132.886719 105.972656 132.613281 106.445312 132.359375 C 106.914062 132.109375 107.398438 131.878906 107.890625 131.675781 C 108.382812 131.472656 108.886719 131.292969 109.398438 131.136719 C 109.910156 130.980469 110.425781 130.851562 110.949219 130.746094 C 111.472656 130.644531 112 130.566406 112.53125 130.511719 C 113.0625 130.460938 113.597656 130.433594 114.128906 130.433594 C 114.664062 130.433594 115.195312 130.460938 115.726562 130.515625 C 116.257812 130.566406 116.785156 130.648438 117.308594 130.75 C 117.832031 130.855469 118.351562 130.984375 118.859375 131.140625 C 119.371094 131.296875 119.875 131.476562 120.367188 131.679688 C 120.859375 131.886719 121.339844 132.113281 121.8125 132.367188 C 122.28125 132.617188 122.738281 132.890625 123.183594 133.1875 C 123.628906 133.484375 124.054688 133.804688 124.46875 134.140625 C 124.878906 134.480469 125.277344 134.839844 125.652344 135.214844 C 126.03125 135.59375 126.386719 135.988281 126.726562 136.402344 C 127.066406 136.8125 127.382812 137.242188 127.679688 137.6875 C 127.976562 138.128906 128.25 138.585938 128.503906 139.058594 C 128.753906 139.527344 128.984375 140.011719 129.1875 140.503906 C 129.394531 140.996094 129.574219 141.496094 129.726562 142.007812 C 129.882812 142.519531 130.011719 143.035156 130.117188 143.558594 C 130.222656 144.082031 130.300781 144.609375 130.355469 145.140625 C 130.40625 145.671875 130.433594 146.207031 130.433594 146.738281 Z M 130.433594 146.738281 " fill-opacity="1" fill-rule="nonzero"/><path fill="#ffffff" d="M 179.347656 89.675781 L 179.347656 196.808594 C 177.609375 197.25 175.921875 197.832031 174.28125 198.550781 C 172.640625 199.269531 171.070312 200.121094 169.570312 201.101562 C 168.070312 202.082031 166.660156 203.179688 165.339844 204.394531 C 164.023438 205.605469 162.8125 206.921875 161.714844 208.335938 C 160.613281 209.75 159.636719 211.246094 158.785156 212.820312 C 157.929688 214.398438 157.214844 216.03125 156.632812 217.726562 C 156.050781 219.421875 155.609375 221.152344 155.316406 222.921875 C 155.019531 224.6875 154.875 226.46875 154.875 228.261719 C 154.875 230.054688 155.019531 231.832031 155.316406 233.601562 C 155.609375 235.367188 156.050781 237.097656 156.632812 238.792969 C 157.214844 240.488281 157.929688 242.125 158.785156 243.699219 C 159.636719 245.277344 160.613281 246.773438 161.714844 248.1875 C 162.8125 249.601562 164.023438 250.914062 165.339844 252.128906 C 166.660156 253.34375 168.070312 254.441406 169.570312 255.421875 C 171.070312 256.402344 172.640625 257.25 174.28125 257.972656 C 175.921875 258.691406 177.609375 259.273438 179.347656 259.710938 L 179.347656 285.324219 C 179.347656 285.863281 179.398438 286.390625 179.503906 286.917969 C 179.609375 287.441406 179.761719 287.953125 179.96875 288.445312 C 180.171875 288.941406 180.425781 289.410156 180.722656 289.855469 C 181.019531 290.300781 181.355469 290.710938 181.734375 291.089844 C 182.113281 291.46875 182.527344 291.808594 182.972656 292.105469 C 183.414062 292.402344 183.886719 292.652344 184.378906 292.859375 C 184.875 293.0625 185.382812 293.21875 185.910156 293.320312 C 186.433594 293.425781 186.964844 293.476562 187.5 293.476562 C 188.035156 293.476562 188.566406 293.425781 189.089844 293.320312 C 189.617188 293.21875 190.125 293.0625 190.621094 292.859375 C 191.113281 292.652344 191.585938 292.402344 192.027344 292.105469 C 192.472656 291.808594 192.886719 291.46875 193.265625 291.089844 C 193.644531 290.710938 193.980469 290.300781 194.277344 289.855469 C 194.574219 289.410156 194.828125 288.941406 195.03125 288.445312 C 195.238281 287.953125 195.390625 287.441406 195.496094 286.917969 C 195.601562 286.390625 195.652344 285.863281 195.652344 285.324219 L 195.652344 259.710938 C 197.390625 259.273438 199.078125 258.691406 200.71875 257.972656 C 202.359375 257.25 203.929688 256.402344 205.429688 255.421875 C 206.929688 254.441406 208.339844 253.34375 209.660156 252.128906 C 210.976562 250.914062 212.1875 249.601562 213.285156 248.1875 C 214.386719 246.773438 215.363281 245.277344 216.214844 243.699219 C 217.070312 242.125 217.785156 240.488281 218.367188 238.792969 C 218.949219 237.097656 219.390625 235.367188 219.683594 233.601562 C 219.980469 231.832031 220.125 230.054688 220.125 228.261719 C 220.125 226.46875 219.980469 224.6875 219.683594 222.921875 C 219.390625 221.152344 218.949219 219.421875 218.367188 217.726562 C 217.785156 216.03125 217.070312 214.398438 216.214844 212.820312 C 215.363281 211.246094 214.386719 209.75 213.285156 208.335938 C 212.1875 206.921875 210.976562 205.605469 209.660156 204.394531 C 208.339844 203.179688 206.929688 202.082031 205.429688 201.101562 C 203.929688 200.121094 202.359375 199.269531 200.71875 198.550781 C 199.078125 197.832031 197.390625 197.25 195.652344 196.808594 L 195.652344 89.675781 C 195.652344 89.136719 195.601562 88.609375 195.496094 88.082031 C 195.390625 87.558594 195.238281 87.046875 195.03125 86.554688 C 194.828125 86.058594 194.574219 85.589844 194.277344 85.144531 C 193.980469 84.699219 193.644531 84.289062 193.265625 83.910156 C 192.886719 83.53125 192.472656 83.191406 192.027344 82.894531 C 191.585938 82.597656 191.113281 82.347656 190.621094 82.140625 C 190.125 81.9375 189.617188 81.78125 189.089844 81.679688 C 188.566406 81.574219 188.035156 81.523438 187.5 81.523438 C 186.964844 81.523438 186.433594 81.574219 185.910156 81.679688 C 185.382812 81.78125 184.875 81.9375 184.378906 82.140625 C 183.886719 82.347656 183.414062 82.597656 182.972656 82.894531 C 182.527344 83.191406 182.113281 83.53125 181.734375 83.910156 C 181.355469 84.289062 181.019531 84.699219 180.722656 85.144531 C 180.425781 85.589844 180.171875 86.058594 179.96875 86.554688 C 179.761719 87.046875 179.609375 87.558594 179.503906 88.082031 C 179.398438 88.609375 179.347656 89.136719 179.347656 89.675781 Z M 203.804688 228.261719 C 203.804688 228.792969 203.777344 229.328125 203.726562 229.859375 C 203.671875 230.390625 203.59375 230.917969 203.492188 231.441406 C 203.386719 231.964844 203.257812 232.484375 203.101562 232.992188 C 202.949219 233.503906 202.769531 234.007812 202.5625 234.5 C 202.359375 234.992188 202.132812 235.476562 201.878906 235.945312 C 201.628906 236.417969 201.351562 236.875 201.054688 237.320312 C 200.761719 237.761719 200.441406 238.191406 200.101562 238.605469 C 199.765625 239.015625 199.40625 239.414062 199.027344 239.789062 C 198.652344 240.167969 198.257812 240.527344 197.84375 240.863281 C 197.429688 241.203125 197.003906 241.519531 196.558594 241.816406 C 196.113281 242.113281 195.65625 242.386719 195.1875 242.640625 C 194.714844 242.890625 194.234375 243.121094 193.738281 243.324219 C 193.246094 243.527344 192.742188 243.707031 192.234375 243.863281 C 191.722656 244.019531 191.203125 244.148438 190.679688 244.25 C 190.15625 244.355469 189.628906 244.433594 189.097656 244.488281 C 188.566406 244.539062 188.035156 244.566406 187.5 244.566406 C 186.964844 244.566406 186.433594 244.539062 185.902344 244.488281 C 185.371094 244.433594 184.84375 244.355469 184.320312 244.25 C 183.796875 244.148438 183.277344 244.019531 182.765625 243.863281 C 182.257812 243.707031 181.753906 243.527344 181.261719 243.324219 C 180.765625 243.121094 180.285156 242.890625 179.8125 242.640625 C 179.34375 242.386719 178.886719 242.113281 178.441406 241.816406 C 177.996094 241.519531 177.570312 241.203125 177.15625 240.863281 C 176.742188 240.527344 176.347656 240.167969 175.972656 239.789062 C 175.59375 239.414062 175.234375 239.015625 174.898438 238.605469 C 174.558594 238.191406 174.238281 237.761719 173.945312 237.320312 C 173.648438 236.875 173.371094 236.417969 173.121094 235.945312 C 172.871094 235.476562 172.640625 234.992188 172.4375 234.5 C 172.230469 234.007812 172.050781 233.503906 171.898438 232.992188 C 171.742188 232.484375 171.613281 231.964844 171.507812 231.441406 C 171.40625 230.917969 171.328125 230.390625 171.273438 229.859375 C 171.222656 229.328125 171.195312 228.792969 171.195312 228.261719 C 171.195312 227.726562 171.222656 227.195312 171.273438 226.664062 C 171.328125 226.132812 171.40625 225.605469 171.507812 225.078125 C 171.613281 224.554688 171.742188 224.039062 171.898438 223.527344 C 172.054688 223.015625 172.230469 222.515625 172.4375 222.019531 C 172.640625 221.527344 172.871094 221.046875 173.121094 220.574219 C 173.371094 220.105469 173.648438 219.648438 173.945312 219.203125 C 174.238281 218.757812 174.558594 218.332031 174.898438 217.917969 C 175.234375 217.503906 175.59375 217.109375 175.972656 216.730469 C 176.347656 216.355469 176.742188 215.996094 177.15625 215.65625 C 177.570312 215.320312 177.996094 215 178.441406 214.703125 C 178.886719 214.40625 179.34375 214.132812 179.8125 213.882812 C 180.285156 213.628906 180.765625 213.402344 181.261719 213.199219 C 181.753906 212.992188 182.257812 212.8125 182.765625 212.660156 C 183.277344 212.503906 183.796875 212.375 184.320312 212.269531 C 184.84375 212.164062 185.371094 212.085938 185.902344 212.035156 C 186.433594 211.984375 186.964844 211.957031 187.5 211.957031 C 188.035156 211.957031 188.566406 211.984375 189.097656 212.035156 C 189.628906 212.089844 190.15625 212.167969 190.679688 212.273438 C 191.203125 212.378906 191.71875 212.507812 192.230469 212.664062 C 192.742188 212.820312 193.242188 213 193.734375 213.203125 C 194.230469 213.40625 194.710938 213.636719 195.179688 213.886719 C 195.652344 214.140625 196.109375 214.414062 196.554688 214.710938 C 196.996094 215.007812 197.425781 215.324219 197.835938 215.664062 C 198.25 216.003906 198.644531 216.359375 199.023438 216.738281 C 199.398438 217.117188 199.757812 217.511719 200.097656 217.921875 C 200.4375 218.335938 200.753906 218.765625 201.050781 219.207031 C 201.347656 219.652344 201.621094 220.109375 201.871094 220.578125 C 202.125 221.050781 202.351562 221.53125 202.558594 222.023438 C 202.761719 222.519531 202.941406 223.019531 203.097656 223.53125 C 203.253906 224.039062 203.382812 224.558594 203.488281 225.082031 C 203.59375 225.605469 203.671875 226.132812 203.722656 226.664062 C 203.777344 227.195312 203.804688 227.726562 203.804688 228.261719 Z M 203.804688 228.261719 " fill-opacity="1" fill-rule="nonzero"/><path fill="#ffffff" d="M 252.71875 89.675781 L 252.71875 115.289062 C 250.980469 115.726562 249.292969 116.308594 247.648438 117.027344 C 246.007812 117.75 244.4375 118.597656 242.9375 119.578125 C 241.4375 120.558594 240.03125 121.65625 238.710938 122.871094 C 237.394531 124.085938 236.183594 125.398438 235.082031 126.8125 C 233.980469 128.226562 233.003906 129.722656 232.152344 131.300781 C 231.300781 132.875 230.582031 134.511719 230 136.207031 C 229.417969 137.902344 228.980469 139.632812 228.6875 141.398438 C 228.390625 143.167969 228.242188 144.945312 228.242188 146.738281 C 228.242188 148.53125 228.390625 150.3125 228.6875 152.078125 C 228.980469 153.847656 229.417969 155.578125 230 157.273438 C 230.582031 158.96875 231.300781 160.601562 232.152344 162.179688 C 233.003906 163.753906 233.980469 165.25 235.082031 166.664062 C 236.183594 168.078125 237.394531 169.394531 238.710938 170.605469 C 240.03125 171.820312 241.4375 172.917969 242.9375 173.898438 C 244.4375 174.878906 246.007812 175.730469 247.648438 176.449219 C 249.292969 177.167969 250.980469 177.75 252.71875 178.191406 L 252.71875 285.324219 C 252.71875 285.863281 252.769531 286.390625 252.875 286.917969 C 252.976562 287.441406 253.132812 287.953125 253.339844 288.445312 C 253.542969 288.941406 253.792969 289.410156 254.089844 289.855469 C 254.386719 290.300781 254.726562 290.710938 255.105469 291.089844 C 255.484375 291.46875 255.894531 291.808594 256.339844 292.105469 C 256.785156 292.402344 257.253906 292.652344 257.75 292.859375 C 258.246094 293.0625 258.753906 293.21875 259.277344 293.320312 C 259.804688 293.425781 260.335938 293.476562 260.871094 293.476562 C 261.40625 293.476562 261.933594 293.425781 262.460938 293.320312 C 262.984375 293.21875 263.496094 293.0625 263.988281 292.859375 C 264.484375 292.652344 264.953125 292.402344 265.398438 292.105469 C 265.84375 291.808594 266.253906 291.46875 266.632812 291.089844 C 267.011719 290.710938 267.351562 290.300781 267.648438 289.855469 C 267.945312 289.410156 268.195312 288.941406 268.402344 288.445312 C 268.605469 287.953125 268.761719 287.441406 268.863281 286.917969 C 268.96875 286.390625 269.023438 285.863281 269.023438 285.324219 L 269.023438 178.191406 C 270.757812 177.75 272.449219 177.167969 274.089844 176.449219 C 275.730469 175.730469 277.300781 174.878906 278.800781 173.898438 C 280.300781 172.917969 281.710938 171.820312 283.027344 170.605469 C 284.347656 169.394531 285.554688 168.078125 286.65625 166.664062 C 287.757812 165.25 288.734375 163.753906 289.585938 162.179688 C 290.4375 160.601562 291.15625 158.96875 291.738281 157.273438 C 292.320312 155.578125 292.757812 153.847656 293.054688 152.078125 C 293.347656 150.3125 293.496094 148.53125 293.496094 146.738281 C 293.496094 144.945312 293.347656 143.167969 293.054688 141.398438 C 292.757812 139.632812 292.320312 137.902344 291.738281 136.207031 C 291.15625 134.511719 290.4375 132.875 289.585938 131.300781 C 288.734375 129.722656 287.757812 128.226562 286.65625 126.8125 C 285.554688 125.398438 284.347656 124.085938 283.027344 122.871094 C 281.710938 121.65625 280.300781 120.558594 278.800781 119.578125 C 277.300781 118.597656 275.730469 117.75 274.089844 117.027344 C 272.449219 116.308594 270.757812 115.726562 269.023438 115.289062 L 269.023438 89.675781 C 269.023438 89.136719 268.96875 88.609375 268.863281 88.082031 C 268.761719 87.558594 268.605469 87.046875 268.402344 86.554688 C 268.195312 86.058594 267.945312 85.589844 267.648438 85.144531 C 267.351562 84.699219 267.011719 84.289062 266.632812 83.910156 C 266.253906 83.53125 265.84375 83.191406 265.398438 82.894531 C 264.953125 82.597656 264.484375 82.347656 263.988281 82.140625 C 263.496094 81.9375 262.984375 81.78125 262.460938 81.679688 C 261.933594 81.574219 261.40625 81.523438 260.871094 81.523438 C 260.335938 81.523438 259.804688 81.574219 259.277344 81.679688 C 258.753906 81.78125 258.246094 81.9375 257.75 82.140625 C 257.253906 82.347656 256.785156 82.597656 256.339844 82.894531 C 255.894531 83.191406 255.484375 83.53125 255.105469 83.910156 C 254.726562 84.289062 254.386719 84.699219 254.089844 85.144531 C 253.792969 85.589844 253.542969 86.058594 253.339844 86.554688 C 253.132812 87.046875 252.976562 87.558594 252.875 88.082031 C 252.769531 88.609375 252.71875 89.136719 252.71875 89.675781 Z M 277.175781 146.738281 C 277.175781 147.273438 277.148438 147.804688 277.09375 148.335938 C 277.042969 148.867188 276.964844 149.394531 276.859375 149.921875 C 276.757812 150.445312 276.625 150.960938 276.472656 151.472656 C 276.316406 151.984375 276.136719 152.484375 275.933594 152.980469 C 275.726562 153.472656 275.5 153.953125 275.25 154.425781 C 274.996094 154.894531 274.722656 155.351562 274.425781 155.796875 C 274.128906 156.242188 273.8125 156.667969 273.472656 157.082031 C 273.132812 157.496094 272.777344 157.890625 272.398438 158.269531 C 272.019531 158.644531 271.625 159.003906 271.214844 159.34375 C 270.800781 159.679688 270.371094 160 269.929688 160.296875 C 269.484375 160.59375 269.027344 160.867188 268.554688 161.117188 C 268.085938 161.371094 267.601562 161.597656 267.109375 161.800781 C 266.617188 162.007812 266.113281 162.1875 265.601562 162.339844 C 265.089844 162.496094 264.574219 162.625 264.050781 162.730469 C 263.527344 162.835938 263 162.914062 262.46875 162.964844 C 261.9375 163.015625 261.402344 163.042969 260.871094 163.042969 C 260.335938 163.042969 259.804688 163.015625 259.269531 162.964844 C 258.738281 162.914062 258.210938 162.835938 257.6875 162.730469 C 257.164062 162.625 256.648438 162.496094 256.136719 162.339844 C 255.625 162.1875 255.125 162.007812 254.628906 161.800781 C 254.136719 161.597656 253.65625 161.371094 253.183594 161.117188 C 252.710938 160.867188 252.253906 160.59375 251.8125 160.296875 C 251.367188 160 250.9375 159.679688 250.527344 159.34375 C 250.113281 159.003906 249.71875 158.644531 249.339844 158.269531 C 248.964844 157.890625 248.605469 157.496094 248.265625 157.082031 C 247.925781 156.667969 247.609375 156.242188 247.3125 155.796875 C 247.015625 155.351562 246.742188 154.894531 246.492188 154.425781 C 246.238281 153.953125 246.011719 153.472656 245.804688 152.980469 C 245.601562 152.484375 245.421875 151.984375 245.265625 151.472656 C 245.113281 150.960938 244.984375 150.445312 244.878906 149.921875 C 244.773438 149.394531 244.695312 148.867188 244.644531 148.335938 C 244.589844 147.804688 244.566406 147.273438 244.566406 146.738281 C 244.566406 146.207031 244.589844 145.671875 244.644531 145.140625 C 244.695312 144.609375 244.773438 144.082031 244.878906 143.558594 C 244.984375 143.035156 245.113281 142.515625 245.265625 142.007812 C 245.421875 141.496094 245.601562 140.992188 245.804688 140.5 C 246.011719 140.007812 246.238281 139.523438 246.492188 139.054688 C 246.742188 138.582031 247.015625 138.125 247.3125 137.679688 C 247.609375 137.238281 247.925781 136.808594 248.265625 136.394531 C 248.605469 135.984375 248.964844 135.585938 249.339844 135.210938 C 249.71875 134.832031 250.113281 134.472656 250.527344 134.136719 C 250.9375 133.796875 251.367188 133.480469 251.8125 133.183594 C 252.253906 132.886719 252.710938 132.613281 253.183594 132.359375 C 253.65625 132.109375 254.136719 131.878906 254.628906 131.675781 C 255.125 131.472656 255.625 131.292969 256.136719 131.136719 C 256.648438 130.980469 257.164062 130.851562 257.6875 130.746094 C 258.210938 130.644531 258.738281 130.566406 259.269531 130.511719 C 259.804688 130.460938 260.335938 130.433594 260.871094 130.433594 C 261.402344 130.433594 261.9375 130.460938 262.46875 130.515625 C 263 130.566406 263.527344 130.648438 264.050781 130.75 C 264.574219 130.855469 265.089844 130.984375 265.601562 131.140625 C 266.109375 131.296875 266.613281 131.476562 267.105469 131.679688 C 267.597656 131.886719 268.082031 132.113281 268.550781 132.367188 C 269.023438 132.617188 269.480469 132.890625 269.921875 133.1875 C 270.367188 133.484375 270.792969 133.804688 271.207031 134.140625 C 271.621094 134.480469 272.015625 134.839844 272.390625 135.214844 C 272.769531 135.59375 273.128906 135.988281 273.464844 136.402344 C 273.804688 136.8125 274.121094 137.242188 274.417969 137.6875 C 274.714844 138.128906 274.992188 138.585938 275.242188 139.058594 C 275.496094 139.527344 275.722656 140.011719 275.925781 140.503906 C 276.132812 140.996094 276.3125 141.496094 276.46875 142.007812 C 276.621094 142.519531 276.753906 143.035156 276.855469 143.558594 C 276.960938 144.082031 277.039062 144.609375 277.09375 145.140625 C 277.144531 145.671875 277.171875 146.207031 277.175781 146.738281 Z M 277.175781 146.738281 " fill-opacity="1" fill-rule="nonzero"/><path fill="#ffffff" d="M 0 187.5 C 0 184.429688 0.0742188 181.363281 0.226562 178.300781 C 0.375 175.234375 0.601562 172.175781 0.902344 169.121094 C 1.203125 166.066406 1.578125 163.023438 2.03125 159.988281 C 2.480469 156.953125 3.003906 153.929688 3.601562 150.921875 C 4.203125 147.910156 4.875 144.917969 5.621094 141.941406 C 6.363281 138.964844 7.183594 136.007812 8.074219 133.070312 C 8.964844 130.136719 9.925781 127.222656 10.960938 124.332031 C 11.996094 121.445312 13.097656 118.582031 14.273438 115.746094 C 15.445312 112.910156 16.691406 110.105469 18.003906 107.332031 C 19.3125 104.558594 20.691406 101.820312 22.140625 99.113281 C 23.585938 96.40625 25.097656 93.738281 26.675781 91.105469 C 28.253906 88.472656 29.894531 85.882812 31.597656 83.332031 C 33.304688 80.777344 35.070312 78.269531 36.898438 75.804688 C 38.726562 73.339844 40.613281 70.921875 42.558594 68.550781 C 44.507812 66.179688 46.511719 63.855469 48.570312 61.582031 C 50.632812 59.308594 52.746094 57.085938 54.917969 54.917969 C 57.085938 52.746094 59.308594 50.632812 61.582031 48.570312 C 63.855469 46.511719 66.179688 44.507812 68.550781 42.558594 C 70.921875 40.613281 73.339844 38.726562 75.804688 36.898438 C 78.269531 35.070312 80.777344 33.304688 83.332031 31.597656 C 85.882812 29.894531 88.472656 28.253906 91.105469 26.675781 C 93.738281 25.097656 96.40625 23.585938 99.113281 22.140625 C 101.820312 20.691406 104.558594 19.3125 107.332031 18.003906 C 110.105469 16.691406 112.910156 15.445312 115.746094 14.273438 C 118.582031 13.097656 121.445312 11.996094 124.332031 10.960938 C 127.222656 9.925781 130.136719 8.964844 133.070312 8.074219 C 136.007812 7.183594 138.964844 6.363281 141.941406 5.617188 C 144.917969 4.875 147.910156 4.203125 150.921875 3.601562 C 153.929688 3.003906 156.953125 2.480469 159.988281 2.03125 C 163.023438 1.578125 166.066406 1.203125 169.121094 0.902344 C 172.175781 0.601562 175.234375 0.375 178.300781 0.226562 C 181.363281 0.0742188 184.429688 0 187.5 0 C 190.570312 0 193.636719 0.0742188 196.699219 0.226562 C 199.765625 0.375 202.824219 0.601562 205.878906 0.902344 C 208.933594 1.203125 211.976562 1.578125 215.011719 2.03125 C 218.046875 2.480469 221.070312 3.003906 224.078125 3.601562 C 227.089844 4.203125 230.082031 4.875 233.058594 5.617188 C 236.035156 6.363281 238.992188 7.183594 241.929688 8.074219 C 244.863281 8.964844 247.777344 9.925781 250.667969 10.960938 C 253.554688 11.996094 256.417969 13.097656 259.253906 14.273438 C 262.089844 15.445312 264.894531 16.691406 267.667969 18.003906 C 270.441406 19.3125 273.179688 20.691406 275.886719 22.140625 C 278.59375 23.585938 281.261719 25.097656 283.894531 26.675781 C 286.527344 28.253906 289.117188 29.894531 291.667969 31.597656 C 294.222656 33.304688 296.730469 35.070312 299.195312 36.898438 C 301.660156 38.726562 304.078125 40.613281 306.449219 42.558594 C 308.820312 44.507812 311.144531 46.511719 313.417969 48.570312 C 315.691406 50.632812 317.914062 52.746094 320.082031 54.917969 C 322.253906 57.085938 324.367188 59.308594 326.429688 61.582031 C 328.488281 63.855469 330.492188 66.179688 332.4375 68.550781 C 334.386719 70.921875 336.273438 73.339844 338.101562 75.804688 C 339.929688 78.269531 341.695312 80.777344 343.402344 83.332031 C 345.105469 85.882812 346.746094 88.472656 348.324219 91.105469 C 349.902344 93.738281 351.414062 96.40625 352.859375 99.113281 C 354.308594 101.820312 355.6875 104.558594 356.996094 107.332031 C 358.308594 110.105469 359.554688 112.910156 360.726562 115.746094 C 361.902344 118.582031 363.003906 121.445312 364.039062 124.332031 C 365.074219 127.222656 366.035156 130.136719 366.925781 133.070312 C 367.816406 136.007812 368.636719 138.964844 369.378906 141.941406 C 370.125 144.917969 370.796875 147.910156 371.398438 150.921875 C 371.996094 153.929688 372.519531 156.953125 372.96875 159.988281 C 373.421875 163.023438 373.796875 166.066406 374.097656 169.121094 C 374.398438 172.175781 374.625 175.234375 374.773438 178.300781 C 374.925781 181.363281 375 184.429688 375 187.5 C 375 190.570312 374.925781 193.636719 374.773438 196.699219 C 374.625 199.765625 374.398438 202.824219 374.097656 205.878906 C 373.796875 208.933594 373.421875 211.976562 372.96875 215.011719 C 372.519531 218.046875 371.996094 221.070312 371.398438 224.078125 C 370.796875 227.089844 370.125 230.082031 369.378906 233.058594 C 368.636719 236.035156 367.816406 238.992188 366.925781 241.929688 C 366.035156 244.863281 365.074219 247.777344 364.039062 250.667969 C 363.003906 253.554688 361.902344 256.417969 360.726562 259.253906 C 359.554688 262.089844 358.308594 264.894531 356.996094 267.667969 C 355.6875 270.441406 354.308594 273.179688 352.859375 275.886719 C 351.414062 278.59375 349.902344 281.261719 348.324219 283.894531 C 346.746094 286.527344 345.105469 289.117188 343.402344 291.667969 C 341.695312 294.222656 339.929688 296.730469 338.101562 299.195312 C 336.273438 301.660156 334.386719 304.078125 332.4375 306.449219 C 330.492188 308.820312 328.488281 311.144531 326.429688 313.417969 C 324.367188 315.691406 322.253906 317.914062 320.082031 320.082031 C 317.914062 322.253906 315.691406 324.367188 313.417969 326.429688 C 311.144531 328.488281 308.820312 330.492188 306.449219 332.441406 C 304.078125 334.386719 301.660156 336.273438 299.195312 338.101562 C 296.730469 339.929688 294.222656 341.695312 291.667969 343.402344 C 289.117188 345.105469 286.527344 346.746094 283.894531 348.324219 C 281.261719 349.902344 278.59375 351.414062 275.886719 352.859375 C 273.179688 354.308594 270.441406 355.6875 267.667969 356.996094 C 264.894531 358.308594 262.089844 359.554688 259.253906 360.726562 C 256.417969 361.902344 253.554688 363.003906 250.667969 364.039062 C 247.777344 365.074219 244.863281 366.035156 241.929688 366.925781 C 238.992188 367.816406 236.035156 368.636719 233.058594 369.378906 C 230.082031 370.125 227.089844 370.796875 224.078125 371.398438 C 221.070312 371.996094 218.046875 372.519531 215.011719 372.96875 C 211.976562 373.421875 208.933594 373.796875 205.878906 374.097656 C 202.824219 374.398438 199.765625 374.625 196.699219 374.773438 C 193.636719 374.925781 190.570312 375 187.5 375 C 184.433594 374.996094 181.367188 374.917969 178.304688 374.765625 C 175.238281 374.609375 172.179688 374.382812 169.128906 374.078125 C 166.074219 373.773438 163.03125 373.394531 160 372.945312 C 156.964844 372.492188 153.941406 371.964844 150.933594 371.363281 C 147.925781 370.761719 144.933594 370.085938 141.960938 369.339844 C 138.984375 368.59375 136.03125 367.773438 133.09375 366.878906 C 130.160156 365.988281 127.25 365.023438 124.359375 363.988281 C 121.472656 362.953125 118.613281 361.847656 115.777344 360.671875 C 112.945312 359.496094 110.144531 358.253906 107.371094 356.9375 C 104.597656 355.625 101.859375 354.246094 99.15625 352.800781 C 96.449219 351.351562 93.78125 349.839844 91.152344 348.261719 C 88.519531 346.683594 85.929688 345.042969 83.378906 343.335938 C 80.828125 341.632812 78.324219 339.863281 75.859375 338.039062 C 73.394531 336.210938 70.976562 334.320312 68.605469 332.375 C 66.234375 330.429688 63.914062 328.425781 61.640625 326.367188 C 59.367188 324.304688 57.148438 322.191406 54.976562 320.023438 C 52.808594 317.851562 50.695312 315.632812 48.632812 313.359375 C 46.574219 311.085938 44.570312 308.765625 42.625 306.394531 C 40.679688 304.023438 38.789062 301.605469 36.960938 299.140625 C 35.136719 296.675781 33.367188 294.171875 31.664062 291.621094 C 29.957031 289.070312 28.316406 286.480469 26.738281 283.847656 C 25.160156 281.21875 23.648438 278.550781 22.199219 275.84375 C 20.753906 273.140625 19.375 270.402344 18.0625 267.628906 C 16.746094 264.855469 15.503906 262.054688 14.328125 259.222656 C 13.152344 256.386719 12.046875 253.527344 11.011719 250.640625 C 9.976562 247.75 9.011719 244.839844 8.121094 241.90625 C 7.226562 238.96875 6.40625 236.015625 5.660156 233.039062 C 4.914062 230.066406 4.238281 227.074219 3.636719 224.066406 C 3.035156 221.058594 2.507812 218.035156 2.054688 215 C 1.605469 211.96875 1.226562 208.925781 0.921875 205.871094 C 0.617188 202.820312 0.390625 199.761719 0.234375 196.695312 C 0.0820312 193.632812 0.00390625 190.566406 0 187.5 Z M 358.695312 187.5 C 358.695312 184.699219 358.625 181.898438 358.488281 179.101562 C 358.351562 176.300781 358.144531 173.507812 357.871094 170.71875 C 357.597656 167.929688 357.253906 165.152344 356.84375 162.378906 C 356.429688 159.609375 355.953125 156.847656 355.40625 154.101562 C 354.859375 151.351562 354.246094 148.621094 353.566406 145.902344 C 352.882812 143.183594 352.136719 140.484375 351.324219 137.804688 C 350.511719 135.125 349.632812 132.464844 348.6875 129.824219 C 347.746094 127.1875 346.738281 124.574219 345.664062 121.984375 C 344.59375 119.398438 343.457031 116.835938 342.257812 114.304688 C 341.0625 111.773438 339.800781 109.269531 338.480469 106.800781 C 337.160156 104.328125 335.78125 101.890625 334.339844 99.488281 C 332.898438 97.085938 331.402344 94.71875 329.84375 92.390625 C 328.289062 90.058594 326.675781 87.769531 325.003906 85.519531 C 323.335938 83.269531 321.613281 81.058594 319.835938 78.894531 C 318.058594 76.730469 316.230469 74.609375 314.347656 72.53125 C 312.464844 70.457031 310.535156 68.425781 308.554688 66.445312 C 306.574219 64.464844 304.542969 62.535156 302.46875 60.652344 C 300.390625 58.769531 298.269531 56.941406 296.105469 55.164062 C 293.941406 53.386719 291.730469 51.664062 289.480469 49.996094 C 287.230469 48.324219 284.941406 46.710938 282.609375 45.15625 C 280.28125 43.597656 277.914062 42.101562 275.511719 40.660156 C 273.109375 39.21875 270.671875 37.839844 268.199219 36.519531 C 265.730469 35.199219 263.226562 33.9375 260.695312 32.742188 C 258.164062 31.542969 255.601562 30.40625 253.015625 29.335938 C 250.425781 28.261719 247.8125 27.253906 245.175781 26.3125 C 242.535156 25.367188 239.875 24.488281 237.195312 23.675781 C 234.515625 22.863281 231.816406 22.117188 229.097656 21.433594 C 226.378906 20.753906 223.648438 20.140625 220.898438 19.59375 C 218.152344 19.046875 215.390625 18.570312 212.621094 18.15625 C 209.847656 17.746094 207.066406 17.402344 204.28125 17.128906 C 201.492188 16.855469 198.699219 16.648438 195.898438 16.511719 C 193.101562 16.375 190.300781 16.304688 187.5 16.304688 C 184.699219 16.304688 181.898438 16.375 179.101562 16.511719 C 176.300781 16.648438 173.507812 16.855469 170.71875 17.128906 C 167.929688 17.402344 165.152344 17.746094 162.378906 18.15625 C 159.609375 18.570312 156.847656 19.046875 154.101562 19.59375 C 151.351562 20.140625 148.621094 20.753906 145.902344 21.433594 C 143.183594 22.117188 140.484375 22.863281 137.804688 23.675781 C 135.125 24.488281 132.464844 25.367188 129.824219 26.3125 C 127.1875 27.253906 124.574219 28.261719 121.984375 29.335938 C 119.398438 30.40625 116.835938 31.542969 114.304688 32.742188 C 111.773438 33.9375 109.269531 35.199219 106.800781 36.519531 C 104.328125 37.839844 101.890625 39.21875 99.488281 40.660156 C 97.085938 42.101562 94.71875 43.597656 92.390625 45.15625 C 90.058594 46.710938 87.769531 48.324219 85.519531 49.996094 C 83.269531 51.664062 81.058594 53.386719 78.894531 55.164062 C 76.730469 56.941406 74.609375 58.769531 72.53125 60.652344 C 70.457031 62.535156 68.425781 64.464844 66.445312 66.445312 C 64.464844 68.425781 62.535156 70.457031 60.652344 72.53125 C 58.769531 74.609375 56.941406 76.730469 55.164062 78.894531 C 53.386719 81.058594 51.664062 83.269531 49.996094 85.519531 C 48.324219 87.769531 46.710938 90.058594 45.15625 92.390625 C 43.597656 94.71875 42.101562 97.085938 40.660156 99.488281 C 39.21875 101.890625 37.839844 104.328125 36.519531 106.800781 C 35.199219 109.269531 33.9375 111.773438 32.742188 114.304688 C 31.542969 116.835938 30.40625 119.398438 29.335938 121.984375 C 28.261719 124.574219 27.253906 127.1875 26.3125 129.824219 C 25.367188 132.464844 24.488281 135.125 23.675781 137.804688 C 22.863281 140.484375 22.117188 143.183594 21.433594 145.902344 C 20.753906 148.621094 20.140625 151.351562 19.59375 154.101562 C 19.046875 156.847656 18.570312 159.609375 18.15625 162.378906 C 17.746094 165.152344 17.402344 167.929688 17.128906 170.71875 C 16.855469 173.507812 16.648438 176.300781 16.511719 179.101562 C 16.375 181.898438 16.304688 184.699219 16.304688 187.5 C 16.304688 190.300781 16.375 193.101562 16.511719 195.898438 C 16.648438 198.699219 16.855469 201.492188 17.128906 204.28125 C 17.402344 207.066406 17.746094 209.847656 18.15625 212.621094 C 18.570312 215.390625 19.046875 218.152344 19.59375 220.898438 C 20.140625 223.644531 20.753906 226.378906 21.433594 229.097656 C 22.117188 231.816406 22.863281 234.515625 23.675781 237.195312 C 24.488281 239.875 25.367188 242.535156 26.3125 245.175781 C 27.253906 247.8125 28.261719 250.425781 29.335938 253.015625 C 30.40625 255.601562 31.542969 258.164062 32.742188 260.695312 C 33.9375 263.226562 35.199219 265.730469 36.519531 268.199219 C 37.839844 270.671875 39.21875 273.109375 40.660156 275.511719 C 42.101562 277.914062 43.597656 280.28125 45.15625 282.609375 C 46.710938 284.941406 48.324219 287.230469 49.996094 289.480469 C 51.664062 291.730469 53.386719 293.941406 55.164062 296.105469 C 56.941406 298.269531 58.769531 300.390625 60.652344 302.46875 C 62.535156 304.542969 64.464844 306.574219 66.445312 308.554688 C 68.425781 310.535156 70.457031 312.464844 72.53125 314.347656 C 74.609375 316.230469 76.730469 318.058594 78.894531 319.835938 C 81.058594 321.613281 83.269531 323.335938 85.519531 325.003906 C 87.769531 326.675781 90.058594 328.289062 92.390625 329.84375 C 94.71875 331.402344 97.085938 332.898438 99.488281 334.339844 C 101.890625 335.78125 104.328125 337.160156 106.800781 338.480469 C 109.269531 339.800781 111.773438 341.0625 114.304688 342.257812 C 116.835938 343.457031 119.398438 344.59375 121.984375 345.664062 C 124.574219 346.734375 127.1875 347.746094 129.824219 348.6875 C 132.464844 349.632812 135.125 350.511719 137.804688 351.324219 C 140.484375 352.136719 143.183594 352.882812 145.902344 353.566406 C 148.621094 354.246094 151.355469 354.859375 154.101562 355.40625 C 156.847656 355.953125 159.609375 356.429688 162.378906 356.84375 C 165.152344 357.253906 167.933594 357.597656 170.71875 357.871094 C 173.507812 358.144531 176.300781 358.351562 179.101562 358.488281 C 181.898438 358.625 184.699219 358.695312 187.5 358.695312 C 190.300781 358.691406 193.101562 358.621094 195.898438 358.480469 C 198.695312 358.339844 201.488281 358.132812 204.273438 357.855469 C 207.0625 357.578125 209.839844 357.230469 212.609375 356.816406 C 215.378906 356.402344 218.136719 355.921875 220.886719 355.375 C 223.632812 354.824219 226.363281 354.210938 229.078125 353.527344 C 231.796875 352.84375 234.492188 352.09375 237.171875 351.28125 C 239.851562 350.464844 242.511719 349.585938 245.148438 348.640625 C 247.785156 347.695312 250.394531 346.683594 252.984375 345.613281 C 255.570312 344.539062 258.128906 343.402344 260.660156 342.203125 C 263.191406 341.003906 265.691406 339.746094 268.164062 338.421875 C 270.632812 337.101562 273.066406 335.722656 275.46875 334.28125 C 277.871094 332.839844 280.238281 331.339844 282.566406 329.785156 C 284.894531 328.226562 287.183594 326.613281 289.429688 324.945312 C 291.679688 323.277344 293.886719 321.554688 296.054688 319.777344 C 298.21875 318 300.335938 316.167969 302.414062 314.289062 C 304.488281 312.40625 306.515625 310.476562 308.496094 308.496094 C 310.476562 306.515625 312.40625 304.488281 314.289062 302.414062 C 316.167969 300.335938 318 298.21875 319.777344 296.054688 C 321.554688 293.886719 323.277344 291.679688 324.945312 289.429688 C 326.613281 287.183594 328.226562 284.894531 329.785156 282.566406 C 331.339844 280.238281 332.839844 277.871094 334.28125 275.46875 C 335.722656 273.066406 337.101562 270.632812 338.421875 268.164062 C 339.746094 265.691406 341.003906 263.191406 342.203125 260.660156 C 343.402344 258.128906 344.539062 255.570312 345.613281 252.984375 C 346.683594 250.394531 347.695312 247.785156 348.640625 245.148438 C 349.585938 242.511719 350.464844 239.851562 351.28125 237.171875 C 352.09375 234.492188 352.84375 231.796875 353.527344 229.078125 C 354.210938 226.363281 354.824219 223.632812 355.375 220.886719 C 355.921875 218.136719 356.402344 215.378906 356.816406 212.609375 C 357.230469 209.839844 357.578125 207.0625 357.855469 204.273438 C 358.132812 201.488281 358.339844 198.695312 358.480469 195.898438 C 358.621094 193.101562 358.691406 190.300781 358.695312 187.5 Z M 358.695312 187.5 " fill-opacity="1" fill-rule="nonzero"/><path fill="#ffffff" d="M 105.976562 89.675781 L 105.976562 115.289062 C 104.242188 115.726562 102.550781 116.308594 100.910156 117.027344 C 99.269531 117.75 97.699219 118.597656 96.199219 119.578125 C 94.699219 120.558594 93.289062 121.65625 91.972656 122.871094 C 90.652344 124.085938 89.445312 125.398438 88.34375 126.8125 C 87.242188 128.226562 86.265625 129.722656 85.414062 131.300781 C 84.5625 132.875 83.84375 134.511719 83.261719 136.207031 C 82.679688 137.902344 82.242188 139.632812 81.945312 141.398438 C 81.652344 143.167969 81.503906 144.945312 81.503906 146.738281 C 81.503906 148.53125 81.652344 150.3125 81.945312 152.078125 C 82.242188 153.847656 82.679688 155.578125 83.261719 157.273438 C 83.84375 158.96875 84.5625 160.601562 85.414062 162.179688 C 86.265625 163.753906 87.242188 165.25 88.34375 166.664062 C 89.445312 168.078125 90.652344 169.394531 91.972656 170.605469 C 93.289062 171.820312 94.699219 172.917969 96.199219 173.898438 C 97.699219 174.878906 99.269531 175.730469 100.910156 176.449219 C 102.550781 177.167969 104.242188 177.75 105.976562 178.191406 L 105.976562 285.324219 C 105.976562 285.863281 106.03125 286.390625 106.136719 286.917969 C 106.238281 287.441406 106.394531 287.953125 106.597656 288.445312 C 106.804688 288.941406 107.054688 289.410156 107.351562 289.855469 C 107.648438 290.300781 107.988281 290.710938 108.367188 291.089844 C 108.746094 291.46875 109.15625 291.808594 109.601562 292.105469 C 110.046875 292.402344 110.515625 292.652344 111.011719 292.859375 C 111.503906 293.0625 112.015625 293.21875 112.539062 293.320312 C 113.066406 293.425781 113.59375 293.476562 114.128906 293.476562 C 114.664062 293.476562 115.195312 293.425781 115.722656 293.320312 C 116.246094 293.21875 116.753906 293.0625 117.25 292.859375 C 117.746094 292.652344 118.214844 292.402344 118.660156 292.105469 C 119.105469 291.808594 119.515625 291.46875 119.894531 291.089844 C 120.273438 290.710938 120.613281 290.300781 120.910156 289.855469 C 121.207031 289.410156 121.457031 288.941406 121.660156 288.445312 C 121.867188 287.953125 122.023438 287.441406 122.125 286.917969 C 122.230469 286.390625 122.28125 285.863281 122.28125 285.324219 L 122.28125 178.191406 C 124.019531 177.75 125.707031 177.167969 127.351562 176.449219 C 128.992188 175.730469 130.5625 174.878906 132.0625 173.898438 C 133.5625 172.917969 134.96875 171.820312 136.289062 170.605469 C 137.605469 169.394531 138.816406 168.078125 139.917969 166.664062 C 141.019531 165.25 141.996094 163.753906 142.847656 162.179688 C 143.699219 160.601562 144.417969 158.96875 145 157.273438 C 145.582031 155.578125 146.019531 153.847656 146.3125 152.078125 C 146.609375 150.3125 146.757812 148.53125 146.757812 146.738281 C 146.757812 144.945312 146.609375 143.167969 146.3125 141.398438 C 146.019531 139.632812 145.582031 137.902344 145 136.207031 C 144.417969 134.511719 143.699219 132.875 142.847656 131.300781 C 141.996094 129.722656 141.019531 128.226562 139.917969 126.8125 C 138.816406 125.398438 137.605469 124.085938 136.289062 122.871094 C 134.96875 121.65625 133.5625 120.558594 132.0625 119.578125 C 130.5625 118.597656 128.992188 117.75 127.351562 117.027344 C 125.707031 116.308594 124.019531 115.726562 122.28125 115.289062 L 122.28125 89.675781 C 122.28125 89.136719 122.230469 88.609375 122.125 88.082031 C 122.023438 87.558594 121.867188 87.046875 121.660156 86.554688 C 121.457031 86.058594 121.207031 85.589844 120.910156 85.144531 C 120.613281 84.699219 120.273438 84.289062 119.894531 83.910156 C 119.515625 83.53125 119.105469 83.191406 118.660156 82.894531 C 118.214844 82.597656 117.746094 82.347656 117.25 82.140625 C 116.753906 81.9375 116.246094 81.78125 115.722656 81.679688 C 115.195312 81.574219 114.664062 81.523438 114.128906 81.523438 C 113.59375 81.523438 113.066406 81.574219 112.539062 81.679688 C 112.015625 81.78125 111.503906 81.9375 111.011719 82.140625 C 110.515625 82.347656 110.046875 82.597656 109.601562 82.894531 C 109.15625 83.191406 108.746094 83.53125 108.367188 83.910156 C 107.988281 84.289062 107.648438 84.699219 107.351562 85.144531 C 107.054688 85.589844 106.804688 86.058594 106.597656 86.554688 C 106.394531 87.046875 106.238281 87.558594 106.136719 88.082031 C 106.03125 88.609375 105.976562 89.136719 105.976562 89.675781 Z M 130.433594 146.738281 C 130.433594 147.273438 130.410156 147.804688 130.355469 148.335938 C 130.304688 148.867188 130.226562 149.394531 130.121094 149.921875 C 130.015625 150.445312 129.886719 150.960938 129.734375 151.472656 C 129.578125 151.984375 129.398438 152.484375 129.195312 152.980469 C 128.988281 153.472656 128.761719 153.953125 128.507812 154.425781 C 128.257812 154.894531 127.984375 155.351562 127.6875 155.796875 C 127.390625 156.242188 127.074219 156.667969 126.734375 157.082031 C 126.394531 157.496094 126.035156 157.890625 125.660156 158.269531 C 125.28125 158.644531 124.886719 159.003906 124.472656 159.34375 C 124.0625 159.679688 123.632812 160 123.1875 160.296875 C 122.746094 160.59375 122.289062 160.867188 121.816406 161.117188 C 121.34375 161.371094 120.863281 161.597656 120.371094 161.800781 C 119.875 162.007812 119.375 162.1875 118.863281 162.339844 C 118.351562 162.496094 117.835938 162.625 117.3125 162.730469 C 116.789062 162.835938 116.261719 162.914062 115.730469 162.964844 C 115.195312 163.015625 114.664062 163.042969 114.128906 163.042969 C 113.597656 163.042969 113.0625 163.015625 112.53125 162.964844 C 112 162.914062 111.472656 162.835938 110.949219 162.730469 C 110.425781 162.625 109.910156 162.496094 109.398438 162.339844 C 108.886719 162.1875 108.382812 162.007812 107.890625 161.800781 C 107.398438 161.597656 106.914062 161.371094 106.445312 161.117188 C 105.972656 160.867188 105.515625 160.59375 105.070312 160.296875 C 104.628906 160 104.199219 159.679688 103.785156 159.34375 C 103.375 159.003906 102.980469 158.644531 102.601562 158.269531 C 102.222656 157.890625 101.867188 157.496094 101.527344 157.082031 C 101.1875 156.667969 100.871094 156.242188 100.574219 155.796875 C 100.277344 155.351562 100.003906 154.894531 99.75 154.425781 C 99.5 153.953125 99.273438 153.472656 99.066406 152.980469 C 98.863281 152.484375 98.683594 151.984375 98.527344 151.472656 C 98.375 150.960938 98.242188 150.445312 98.140625 149.921875 C 98.035156 149.394531 97.957031 148.867188 97.90625 148.335938 C 97.851562 147.804688 97.824219 147.273438 97.824219 146.738281 C 97.824219 146.207031 97.851562 145.671875 97.90625 145.140625 C 97.957031 144.609375 98.035156 144.082031 98.140625 143.558594 C 98.242188 143.035156 98.375 142.515625 98.527344 142.007812 C 98.683594 141.496094 98.863281 140.992188 99.066406 140.5 C 99.273438 140.007812 99.5 139.523438 99.75 139.054688 C 100.003906 138.582031 100.277344 138.125 100.574219 137.679688 C 100.871094 137.238281 101.1875 136.808594 101.527344 136.394531 C 101.867188 135.984375 102.222656 135.585938 102.601562 135.210938 C 102.980469 134.832031 103.375 134.472656 103.785156 134.136719 C 104.199219 133.796875 104.628906 133.480469 105.070312 133.183594 C 105.515625 132.886719 105.972656 132.613281 106.445312 132.359375 C 106.914062 132.109375 107.398438 131.878906 107.890625 131.675781 C 108.382812 131.472656 108.886719 131.292969 109.398438 131.136719 C 109.910156 130.980469 110.425781 130.851562 110.949219 130.746094 C 111.472656 130.644531 112 130.566406 112.53125 130.511719 C 113.0625 130.460938 113.597656 130.433594 114.128906 130.433594 C 114.664062 130.433594 115.195312 130.460938 115.726562 130.515625 C 116.257812 130.566406 116.785156 130.648438 117.308594 130.75 C 117.832031 130.855469 118.351562 130.984375 118.859375 131.140625 C 119.371094 131.296875 119.875 131.476562 120.367188 131.679688 C 120.859375 131.886719 121.339844 132.113281 121.8125 132.367188 C 122.28125 132.617188 122.738281 132.890625 123.183594 133.1875 C 123.628906 133.484375 124.054688 133.804688 124.46875 134.140625 C 124.878906 134.480469 125.277344 134.839844 125.652344 135.214844 C 126.03125 135.59375 126.386719 135.988281 126.726562 136.402344 C 127.066406 136.8125 127.382812 137.242188 127.679688 137.6875 C 127.976562 138.128906 128.25 138.585938 128.503906 139.058594 C 128.753906 139.527344 128.984375 140.011719 129.1875 140.503906 C 129.394531 140.996094 129.574219 141.496094 129.726562 142.007812 C 129.882812 142.519531 130.011719 143.035156 130.117188 143.558594 C 130.222656 144.082031 130.300781 144.609375 130.355469 145.140625 C 130.40625 145.671875 130.433594 146.207031 130.433594 146.738281 Z M 130.433594 146.738281 " fill-opacity="1" fill-rule="nonzero"/><path fill="#ffffff" d="M 179.347656 89.675781 L 179.347656 196.808594 C 177.609375 197.25 175.921875 197.832031 174.28125 198.550781 C 172.640625 199.269531 171.070312 200.121094 169.570312 201.101562 C 168.070312 202.082031 166.660156 203.179688 165.339844 204.394531 C 164.023438 205.605469 162.8125 206.921875 161.714844 208.335938 C 160.613281 209.75 159.636719 211.246094 158.785156 212.820312 C 157.929688 214.398438 157.214844 216.03125 156.632812 217.726562 C 156.050781 219.421875 155.609375 221.152344 155.316406 222.921875 C 155.019531 224.6875 154.875 226.46875 154.875 228.261719 C 154.875 230.054688 155.019531 231.832031 155.316406 233.601562 C 155.609375 235.367188 156.050781 237.097656 156.632812 238.792969 C 157.214844 240.488281 157.929688 242.125 158.785156 243.699219 C 159.636719 245.277344 160.613281 246.773438 161.714844 248.1875 C 162.8125 249.601562 164.023438 250.914062 165.339844 252.128906 C 166.660156 253.34375 168.070312 254.441406 169.570312 255.421875 C 171.070312 256.402344 172.640625 257.25 174.28125 257.972656 C 175.921875 258.691406 177.609375 259.273438 179.347656 259.710938 L 179.347656 285.324219 C 179.347656 285.863281 179.398438 286.390625 179.503906 286.917969 C 179.609375 287.441406 179.761719 287.953125 179.96875 288.445312 C 180.171875 288.941406 180.425781 289.410156 180.722656 289.855469 C 181.019531 290.300781 181.355469 290.710938 181.734375 291.089844 C 182.113281 291.46875 182.527344 291.808594 182.972656 292.105469 C 183.414062 292.402344 183.886719 292.652344 184.378906 292.859375 C 184.875 293.0625 185.382812 293.21875 185.910156 293.320312 C 186.433594 293.425781 186.964844 293.476562 187.5 293.476562 C 188.035156 293.476562 188.566406 293.425781 189.089844 293.320312 C 189.617188 293.21875 190.125 293.0625 190.621094 292.859375 C 191.113281 292.652344 191.585938 292.402344 192.027344 292.105469 C 192.472656 291.808594 192.886719 291.46875 193.265625 291.089844 C 193.644531 290.710938 193.980469 290.300781 194.277344 289.855469 C 194.574219 289.410156 194.828125 288.941406 195.03125 288.445312 C 195.238281 287.953125 195.390625 287.441406 195.496094 286.917969 C 195.601562 286.390625 195.652344 285.863281 195.652344 285.324219 L 195.652344 259.710938 C 197.390625 259.273438 199.078125 258.691406 200.71875 257.972656 C 202.359375 257.25 203.929688 256.402344 205.429688 255.421875 C 206.929688 254.441406 208.339844 253.34375 209.660156 252.128906 C 210.976562 250.914062 212.1875 249.601562 213.285156 248.1875 C 214.386719 246.773438 215.363281 245.277344 216.214844 243.699219 C 217.070312 242.125 217.785156 240.488281 218.367188 238.792969 C 218.949219 237.097656 219.390625 235.367188 219.683594 233.601562 C 219.980469 231.832031 220.125 230.054688 220.125 228.261719 C 220.125 226.46875 219.980469 224.6875 219.683594 222.921875 C 219.390625 221.152344 218.949219 219.421875 218.367188 217.726562 C 217.785156 216.03125 217.070312 214.398438 216.214844 212.820312 C 215.363281 211.246094 214.386719 209.75 213.285156 208.335938 C 212.1875 206.921875 210.976562 205.605469 209.660156 204.394531 C 208.339844 203.179688 206.929688 202.082031 205.429688 201.101562 C 203.929688 200.121094 202.359375 199.269531 200.71875 198.550781 C 199.078125 197.832031 197.390625 197.25 195.652344 196.808594 L 195.652344 89.675781 C 195.652344 89.136719 195.601562 88.609375 195.496094 88.082031 C 195.390625 87.558594 195.238281 87.046875 195.03125 86.554688 C 194.828125 86.058594 194.574219 85.589844 194.277344 85.144531 C 193.980469 84.699219 193.644531 84.289062 193.265625 83.910156 C 192.886719 83.53125 192.472656 83.191406 192.027344 82.894531 C 191.585938 82.597656 191.113281 82.347656 190.621094 82.140625 C 190.125 81.9375 189.617188 81.78125 189.089844 81.679688 C 188.566406 81.574219 188.035156 81.523438 187.5 81.523438 C 186.964844 81.523438 186.433594 81.574219 185.910156 81.679688 C 185.382812 81.78125 184.875 81.9375 184.378906 82.140625 C 183.886719 82.347656 183.414062 82.597656 182.972656 82.894531 C 182.527344 83.191406 182.113281 83.53125 181.734375 83.910156 C 181.355469 84.289062 181.019531 84.699219 180.722656 85.144531 C 180.425781 85.589844 180.171875 86.058594 179.96875 86.554688 C 179.761719 87.046875 179.609375 87.558594 179.503906 88.082031 C 179.398438 88.609375 179.347656 89.136719 179.347656 89.675781 Z M 203.804688 228.261719 C 203.804688 228.792969 203.777344 229.328125 203.726562 229.859375 C 203.671875 230.390625 203.59375 230.917969 203.492188 231.441406 C 203.386719 231.964844 203.257812 232.484375 203.101562 232.992188 C 202.949219 233.503906 202.769531 234.007812 202.5625 234.5 C 202.359375 234.992188 202.132812 235.476562 201.878906 235.945312 C 201.628906 236.417969 201.351562 236.875 201.054688 237.320312 C 200.761719 237.761719 200.441406 238.191406 200.101562 238.605469 C 199.765625 239.015625 199.40625 239.414062 199.027344 239.789062 C 198.652344 240.167969 198.257812 240.527344 197.84375 240.863281 C 197.429688 241.203125 197.003906 241.519531 196.558594 241.816406 C 196.113281 242.113281 195.65625 242.386719 195.1875 242.640625 C 194.714844 242.890625 194.234375 243.121094 193.738281 243.324219 C 193.246094 243.527344 192.742188 243.707031 192.234375 243.863281 C 191.722656 244.019531 191.203125 244.148438 190.679688 244.25 C 190.15625 244.355469 189.628906 244.433594 189.097656 244.488281 C 188.566406 244.539062 188.035156 244.566406 187.5 244.566406 C 186.964844 244.566406 186.433594 244.539062 185.902344 244.488281 C 185.371094 244.433594 184.84375 244.355469 184.320312 244.25 C 183.796875 244.148438 183.277344 244.019531 182.765625 243.863281 C 182.257812 243.707031 181.753906 243.527344 181.261719 243.324219 C 180.765625 243.121094 180.285156 242.890625 179.8125 242.640625 C 179.34375 242.386719 178.886719 242.113281 178.441406 241.816406 C 177.996094 241.519531 177.570312 241.203125 177.15625 240.863281 C 176.742188 240.527344 176.347656 240.167969 175.972656 239.789062 C 175.59375 239.414062 175.234375 239.015625 174.898438 238.605469 C 174.558594 238.191406 174.238281 237.761719 173.945312 237.320312 C 173.648438 236.875 173.371094 236.417969 173.121094 235.945312 C 172.871094 235.476562 172.640625 234.992188 172.4375 234.5 C 172.230469 234.007812 172.050781 233.503906 171.898438 232.992188 C 171.742188 232.484375 171.613281 231.964844 171.507812 231.441406 C 171.40625 230.917969 171.328125 230.390625 171.273438 229.859375 C 171.222656 229.328125 171.195312 228.792969 171.195312 228.261719 C 171.195312 227.726562 171.222656 227.195312 171.273438 226.664062 C 171.328125 226.132812 171.40625 225.605469 171.507812 225.078125 C 171.613281 224.554688 171.742188 224.039062 171.898438 223.527344 C 172.054688 223.015625 172.230469 222.515625 172.4375 222.019531 C 172.640625 221.527344 172.871094 221.046875 173.121094 220.574219 C 173.371094 220.105469 173.648438 219.648438 173.945312 219.203125 C 174.238281 218.757812 174.558594 218.332031 174.898438 217.917969 C 175.234375 217.503906 175.59375 217.109375 175.972656 216.730469 C 176.347656 216.355469 176.742188 215.996094 177.15625 215.65625 C 177.570312 215.320312 177.996094 215 178.441406 214.703125 C 178.886719 214.40625 179.34375 214.132812 179.8125 213.882812 C 180.285156 213.628906 180.765625 213.402344 181.261719 213.199219 C 181.753906 212.992188 182.257812 212.8125 182.765625 212.660156 C 183.277344 212.503906 183.796875 212.375 184.320312 212.269531 C 184.84375 212.164062 185.371094 212.085938 185.902344 212.035156 C 186.433594 211.984375 186.964844 211.957031 187.5 211.957031 C 188.035156 211.957031 188.566406 211.984375 189.097656 212.035156 C 189.628906 212.089844 190.15625 212.167969 190.679688 212.273438 C 191.203125 212.378906 191.71875 212.507812 192.230469 212.664062 C 192.742188 212.820312 193.242188 213 193.734375 213.203125 C 194.230469 213.40625 194.710938 213.636719 195.179688 213.886719 C 195.652344 214.140625 196.109375 214.414062 196.554688 214.710938 C 196.996094 215.007812 197.425781 215.324219 197.835938 215.664062 C 198.25 216.003906 198.644531 216.359375 199.023438 216.738281 C 199.398438 217.117188 199.757812 217.511719 200.097656 217.921875 C 200.4375 218.335938 200.753906 218.765625 201.050781 219.207031 C 201.347656 219.652344 201.621094 220.109375 201.871094 220.578125 C 202.125 221.050781 202.351562 221.53125 202.558594 222.023438 C 202.761719 222.519531 202.941406 223.019531 203.097656 223.53125 C 203.253906 224.039062 203.382812 224.558594 203.488281 225.082031 C 203.59375 225.605469 203.671875 226.132812 203.722656 226.664062 C 203.777344 227.195312 203.804688 227.726562 203.804688 228.261719 Z M 203.804688 228.261719 " fill-opacity="1" fill-rule="nonzero"/><path fill="#ffffff" d="M 252.71875 89.675781 L 252.71875 115.289062 C 250.980469 115.726562 249.292969 116.308594 247.648438 117.027344 C 246.007812 117.75 244.4375 118.597656 242.9375 119.578125 C 241.4375 120.558594 240.03125 121.65625 238.710938 122.871094 C 237.394531 124.085938 236.183594 125.398438 235.082031 126.8125 C 233.980469 128.226562 233.003906 129.722656 232.152344 131.300781 C 231.300781 132.875 230.582031 134.511719 230 136.207031 C 229.417969 137.902344 228.980469 139.632812 228.6875 141.398438 C 228.390625 143.167969 228.242188 144.945312 228.242188 146.738281 C 228.242188 148.53125 228.390625 150.3125 228.6875 152.078125 C 228.980469 153.847656 229.417969 155.578125 230 157.273438 C 230.582031 158.96875 231.300781 160.601562 232.152344 162.179688 C 233.003906 163.753906 233.980469 165.25 235.082031 166.664062 C 236.183594 168.078125 237.394531 169.394531 238.710938 170.605469 C 240.03125 171.820312 241.4375 172.917969 242.9375 173.898438 C 244.4375 174.878906 246.007812 175.730469 247.648438 176.449219 C 249.292969 177.167969 250.980469 177.75 252.71875 178.191406 L 252.71875 285.324219 C 252.71875 285.863281 252.769531 286.390625 252.875 286.917969 C 252.976562 287.441406 253.132812 287.953125 253.339844 288.445312 C 253.542969 288.941406 253.792969 289.410156 254.089844 289.855469 C 254.386719 290.300781 254.726562 290.710938 255.105469 291.089844 C 255.484375 291.46875 255.894531 291.808594 256.339844 292.105469 C 256.785156 292.402344 257.253906 292.652344 257.75 292.859375 C 258.246094 293.0625 258.753906 293.21875 259.277344 293.320312 C 259.804688 293.425781 260.335938 293.476562 260.871094 293.476562 C 261.40625 293.476562 261.933594 293.425781 262.460938 293.320312 C 262.984375 293.21875 263.496094 293.0625 263.988281 292.859375 C 264.484375 292.652344 264.953125 292.402344 265.398438 292.105469 C 265.84375 291.808594 266.253906 291.46875 266.632812 291.089844 C 267.011719 290.710938 267.351562 290.300781 267.648438 289.855469 C 267.945312 289.410156 268.195312 288.941406 268.402344 288.445312 C 268.605469 287.953125 268.761719 287.441406 268.863281 286.917969 C 268.96875 286.390625 269.023438 285.863281 269.023438 285.324219 L 269.023438 178.191406 C 270.757812 177.75 272.449219 177.167969 274.089844 176.449219 C 275.730469 175.730469 277.300781 174.878906 278.800781 173.898438 C 280.300781 172.917969 281.710938 171.820312 283.027344 170.605469 C 284.347656 169.394531 285.554688 168.078125 286.65625 166.664062 C 287.757812 165.25 288.734375 163.753906 289.585938 162.179688 C 290.4375 160.601562 291.15625 158.96875 291.738281 157.273438 C 292.320312 155.578125 292.757812 153.847656 293.054688 152.078125 C 293.347656 150.3125 293.496094 148.53125 293.496094 146.738281 C 293.496094 144.945312 293.347656 143.167969 293.054688 141.398438 C 292.757812 139.632812 292.320312 137.902344 291.738281 136.207031 C 291.15625 134.511719 290.4375 132.875 289.585938 131.300781 C 288.734375 129.722656 287.757812 128.226562 286.65625 126.8125 C 285.554688 125.398438 284.347656 124.085938 283.027344 122.871094 C 281.710938 121.65625 280.300781 120.558594 278.800781 119.578125 C 277.300781 118.597656 275.730469 117.75 274.089844 117.027344 C 272.449219 116.308594 270.757812 115.726562 269.023438 115.289062 L 269.023438 89.675781 C 269.023438 89.136719 268.96875 88.609375 268.863281 88.082031 C 268.761719 87.558594 268.605469 87.046875 268.402344 86.554688 C 268.195312 86.058594 267.945312 85.589844 267.648438 85.144531 C 267.351562 84.699219 267.011719 84.289062 266.632812 83.910156 C 266.253906 83.53125 265.84375 83.191406 265.398438 82.894531 C 264.953125 82.597656 264.484375 82.347656 263.988281 82.140625 C 263.496094 81.9375 262.984375 81.78125 262.460938 81.679688 C 261.933594 81.574219 261.40625 81.523438 260.871094 81.523438 C 260.335938 81.523438 259.804688 81.574219 259.277344 81.679688 C 258.753906 81.78125 258.246094 81.9375 257.75 82.140625 C 257.253906 82.347656 256.785156 82.597656 256.339844 82.894531 C 255.894531 83.191406 255.484375 83.53125 255.105469 83.910156 C 254.726562 84.289062 254.386719 84.699219 254.089844 85.144531 C 253.792969 85.589844 253.542969 86.058594 253.339844 86.554688 C 253.132812 87.046875 252.976562 87.558594 252.875 88.082031 C 252.769531 88.609375 252.71875 89.136719 252.71875 89.675781 Z M 277.175781 146.738281 C 277.175781 147.273438 277.148438 147.804688 277.09375 148.335938 C 277.042969 148.867188 276.964844 149.394531 276.859375 149.921875 C 276.757812 150.445312 276.625 150.960938 276.472656 151.472656 C 276.316406 151.984375 276.136719 152.484375 275.933594 152.980469 C 275.726562 153.472656 275.5 153.953125 275.25 154.425781 C 274.996094 154.894531 274.722656 155.351562 274.425781 155.796875 C 274.128906 156.242188 273.8125 156.667969 273.472656 157.082031 C 273.132812 157.496094 272.777344 157.890625 272.398438 158.269531 C 272.019531 158.644531 271.625 159.003906 271.214844 159.34375 C 270.800781 159.679688 270.371094 160 269.929688 160.296875 C 269.484375 160.59375 269.027344 160.867188 268.554688 161.117188 C 268.085938 161.371094 267.601562 161.597656 267.109375 161.800781 C 266.617188 162.007812 266.113281 162.1875 265.601562 162.339844 C 265.089844 162.496094 264.574219 162.625 264.050781 162.730469 C 263.527344 162.835938 263 162.914062 262.46875 162.964844 C 261.9375 163.015625 261.402344 163.042969 260.871094 163.042969 C 260.335938 163.042969 259.804688 163.015625 259.269531 162.964844 C 258.738281 162.914062 258.210938 162.835938 257.6875 162.730469 C 257.164062 162.625 256.648438 162.496094 256.136719 162.339844 C 255.625 162.1875 255.125 162.007812 254.628906 161.800781 C 254.136719 161.597656 253.65625 161.371094 253.183594 161.117188 C 252.710938 160.867188 252.253906 160.59375 251.8125 160.296875 C 251.367188 160 250.9375 159.679688 250.527344 159.34375 C 250.113281 159.003906 249.71875 158.644531 249.339844 158.269531 C 248.964844 157.890625 248.605469 157.496094 248.265625 157.082031 C 247.925781 156.667969 247.609375 156.242188 247.3125 155.796875 C 247.015625 155.351562 246.742188 154.894531 246.492188 154.425781 C 246.238281 153.953125 246.011719 153.472656 245.804688 152.980469 C 245.601562 152.484375 245.421875 151.984375 245.265625 151.472656 C 245.113281 150.960938 244.984375 150.445312 244.878906 149.921875 C 244.773438 149.394531 244.695312 148.867188 244.644531 148.335938 C 244.589844 147.804688 244.566406 147.273438 244.566406 146.738281 C 244.566406 146.207031 244.589844 145.671875 244.644531 145.140625 C 244.695312 144.609375 244.773438 144.082031 244.878906 143.558594 C 244.984375 143.035156 245.113281 142.515625 245.265625 142.007812 C 245.421875 141.496094 245.601562 140.992188 245.804688 140.5 C 246.011719 140.007812 246.238281 139.523438 246.492188 139.054688 C 246.742188 138.582031 247.015625 138.125 247.3125 137.679688 C 247.609375 137.238281 247.925781 136.808594 248.265625 136.394531 C 248.605469 135.984375 248.964844 135.585938 249.339844 135.210938 C 249.71875 134.832031 250.113281 134.472656 250.527344 134.136719 C 250.9375 133.796875 251.367188 133.480469 251.8125 133.183594 C 252.253906 132.886719 252.710938 132.613281 253.183594 132.359375 C 253.65625 132.109375 254.136719 131.878906 254.628906 131.675781 C 255.125 131.472656 255.625 131.292969 256.136719 131.136719 C 256.648438 130.980469 257.164062 130.851562 257.6875 130.746094 C 258.210938 130.644531 258.738281 130.566406 259.269531 130.511719 C 259.804688 130.460938 260.335938 130.433594 260.871094 130.433594 C 261.402344 130.433594 261.9375 130.460938 262.46875 130.515625 C 263 130.566406 263.527344 130.648438 264.050781 130.75 C 264.574219 130.855469 265.089844 130.984375 265.601562 131.140625 C 266.109375 131.296875 266.613281 131.476562 267.105469 131.679688 C 267.597656 131.886719 268.082031 132.113281 268.550781 132.367188 C 269.023438 132.617188 269.480469 132.890625 269.921875 133.1875 C 270.367188 133.484375 270.792969 133.804688 271.207031 134.140625 C 271.621094 134.480469 272.015625 134.839844 272.390625 135.214844 C 272.769531 135.59375 273.128906 135.988281 273.464844 136.402344 C 273.804688 136.8125 274.121094 137.242188 274.417969 137.6875 C 274.714844 138.128906 274.992188 138.585938 275.242188 139.058594 C 275.496094 139.527344 275.722656 140.011719 275.925781 140.503906 C 276.132812 140.996094 276.3125 141.496094 276.46875 142.007812 C 276.621094 142.519531 276.753906 143.035156 276.855469 143.558594 C 276.960938 144.082031 277.039062 144.609375 277.09375 145.140625 C 277.144531 145.671875 277.171875 146.207031 277.175781 146.738281 Z M 277.175781 146.738281 " fill-opacity="1" fill-rule="nonzero"/></g></g></svg>