<svg xmlns="http://www.w3.org/2000/svg" xmlns:xlink="http://www.w3.org/1999/xlink" width="500" zoomAndPan="magnify" viewBox="0 0 375 374.999991" height="500" preserveAspectRatio="xMidYMid meet" version="1.0"><path fill="#ffffff" d="M 115.035156 151.574219 L 127.113281 151.574219 C 127.113281 134.925781 113.570312 121.382812 96.921875 121.382812 C 80.273438 121.382812 66.726562 134.925781 66.726562 151.574219 L 78.804688 151.574219 C 78.804688 141.589844 86.933594 133.460938 96.921875 133.460938 C 106.910156 133.460938 115.035156 141.582031 115.035156 151.574219 Z M 115.035156 151.574219 " fill-opacity="1" fill-rule="nonzero"/><path fill="#ffffff" d="M 169.382812 133.460938 C 179.371094 133.460938 187.5 141.589844 187.5 151.574219 L 199.578125 151.574219 C 199.578125 134.925781 186.03125 121.382812 169.382812 121.382812 C 152.734375 121.382812 139.191406 134.925781 139.191406 151.574219 L 151.269531 151.574219 C 151.269531 141.582031 159.394531 133.460938 169.382812 133.460938 Z M 169.382812 133.460938 " fill-opacity="1" fill-rule="nonzero"/><path fill="#ffffff" d="M 24.457031 284.425781 L 24.457031 315.730469 C 22.558594 315.054688 20.542969 314.621094 18.417969 314.621094 C 8.429688 314.621094 0.300781 322.746094 0.300781 332.734375 C 0.300781 342.722656 8.429688 350.851562 18.417969 350.851562 C 28.40625 350.851562 36.535156 342.722656 36.535156 332.734375 L 36.535156 284.425781 C 36.535156 281.09375 39.246094 278.386719 42.574219 278.386719 L 60.6875 278.386719 L 60.6875 266.308594 L 42.574219 266.308594 C 32.585938 266.308594 24.457031 274.433594 24.457031 284.425781 Z M 18.417969 338.773438 C 15.089844 338.773438 12.378906 336.070312 12.378906 332.734375 C 12.378906 329.402344 15.089844 326.695312 18.417969 326.695312 C 21.746094 326.695312 24.457031 329.402344 24.457031 332.734375 C 24.457031 336.070312 21.746094 338.773438 18.417969 338.773438 Z M 18.417969 338.773438 " fill-opacity="1" fill-rule="nonzero"/><path fill="#ffffff" d="M 290.15625 85.152344 C 300.144531 85.152344 308.273438 77.023438 308.273438 67.035156 L 308.273438 18.726562 C 308.273438 15.390625 310.984375 12.6875 314.3125 12.6875 L 332.425781 12.6875 L 332.425781 0.609375 L 314.3125 0.609375 C 304.324219 0.609375 296.195312 8.738281 296.195312 18.726562 L 296.195312 50.03125 C 294.300781 49.355469 292.28125 48.917969 290.15625 48.917969 C 280.167969 48.917969 272.042969 57.046875 272.042969 67.035156 C 272.042969 77.023438 280.167969 85.152344 290.15625 85.152344 Z M 290.15625 60.996094 C 293.484375 60.996094 296.195312 63.703125 296.195312 67.035156 C 296.195312 70.367188 293.484375 73.074219 290.15625 73.074219 C 286.828125 73.074219 284.117188 70.367188 284.117188 67.035156 C 284.117188 63.703125 286.828125 60.996094 290.15625 60.996094 Z M 290.15625 60.996094 " fill-opacity="1" fill-rule="nonzero"/><path fill="#ffffff" d="M 356.582031 79.113281 C 346.59375 79.113281 338.464844 87.242188 338.464844 97.226562 L 338.464844 128.53125 C 336.570312 127.855469 334.554688 127.421875 332.425781 127.421875 C 322.441406 127.421875 314.3125 135.550781 314.3125 145.539062 C 314.3125 155.523438 322.441406 163.652344 332.425781 163.652344 C 342.414062 163.652344 350.542969 155.523438 350.542969 145.539062 L 350.542969 97.226562 C 350.542969 93.894531 353.253906 91.191406 356.582031 91.191406 L 374.699219 91.191406 L 374.699219 79.113281 Z M 332.425781 151.574219 C 329.101562 151.574219 326.390625 148.871094 326.390625 145.539062 C 326.390625 142.203125 329.101562 139.5 332.425781 139.5 C 335.753906 139.5 338.464844 142.203125 338.464844 145.539062 C 338.464844 148.871094 335.753906 151.574219 332.425781 151.574219 Z M 332.425781 151.574219 " fill-opacity="1" fill-rule="nonzero"/><path fill="#ffffff" d="M 302.234375 193.847656 L 302.234375 225.152344 C 300.339844 224.476562 298.320312 224.039062 296.195312 224.039062 C 286.207031 224.039062 278.078125 232.167969 278.078125 242.15625 C 278.078125 252.144531 286.207031 260.273438 296.195312 260.273438 C 306.183594 260.273438 314.3125 252.144531 314.3125 242.15625 L 314.3125 193.847656 C 314.3125 190.511719 317.023438 187.808594 320.351562 187.808594 L 338.464844 187.808594 L 338.464844 175.730469 L 320.351562 175.730469 C 310.363281 175.730469 302.234375 183.851562 302.234375 193.847656 Z M 296.195312 248.195312 C 292.867188 248.195312 290.15625 245.488281 290.15625 242.15625 C 290.15625 238.824219 292.867188 236.117188 296.195312 236.117188 C 299.523438 236.117188 302.234375 238.824219 302.234375 242.15625 C 302.234375 245.488281 299.523438 248.195312 296.195312 248.195312 Z M 296.195312 248.195312 " fill-opacity="1" fill-rule="nonzero"/><path fill="#ffffff" d="M 356.582031 326.695312 L 307.242188 326.695312 C 305.628906 326.695312 304.105469 326.070312 302.964844 324.925781 L 299.003906 320.964844 C 301.003906 317.519531 302.234375 313.570312 302.234375 309.304688 C 302.234375 303.425781 300.046875 297.808594 296.074219 293.472656 L 235.808594 227.730469 L 235.808594 218 C 235.808594 202.410156 228.351562 188.558594 216.847656 179.714844 C 217.046875 178.386719 217.253906 177.070312 217.375 175.730469 L 223.730469 175.730469 C 240.378906 175.730469 253.925781 162.1875 253.925781 145.539062 C 253.925781 137.34375 250.621094 129.921875 245.300781 124.480469 C 252.324219 110.472656 257.292969 95.597656 259.878906 80.101562 C 260.367188 77.175781 258.652344 74.324219 255.832031 73.386719 L 244.324219 69.546875 L 259.324219 39.542969 C 260.125 37.933594 260.175781 36.058594 259.449219 34.410156 C 258.726562 32.765625 257.3125 31.523438 255.578125 31.027344 L 250.03125 29.4375 C 228.109375 23.175781 205.234375 22.789062 183.292969 28.261719 L 187.378906 7.824219 C 187.734375 6.050781 187.277344 4.207031 186.128906 2.8125 C 184.980469 1.417969 183.273438 0.609375 181.460938 0.609375 C 152.367188 0.609375 126.429688 16.351562 111.628906 27.589844 L 114.953125 7.640625 C 115.300781 5.550781 114.527344 3.4375 112.917969 2.058594 C 111.304688 0.675781 109.089844 0.234375 107.082031 0.925781 L 60.175781 16.550781 C 54.425781 18.464844 49.117188 21.746094 44.832031 26.03125 C 35.53125 35.339844 31.515625 48.585938 34.09375 61.492188 L 34.933594 65.671875 L 7.332031 61.070312 C 5.457031 60.765625 3.558594 61.339844 2.1875 62.644531 C 0.816406 63.949219 0.132812 65.820312 0.339844 67.699219 L 0.542969 69.527344 C 2.800781 89.898438 8.957031 109.269531 18.742188 127.210938 C 14.8125 132.308594 12.378906 138.617188 12.378906 145.539062 C 12.378906 162.1875 25.925781 175.730469 42.574219 175.730469 L 48.917969 175.730469 C 51.394531 203.03125 70.433594 225.597656 95.898438 233.277344 C 89.117188 239.570312 84.84375 248.53125 84.84375 258.492188 L 84.84375 261.441406 C 84.84375 269.964844 87.984375 278.152344 93.683594 284.488281 L 96.921875 288.085938 L 96.921875 375.007812 L 193.539062 375.007812 L 193.539062 331.136719 L 230.445312 314.355469 C 234.570312 312.480469 238.105469 309.710938 240.90625 306.351562 L 262.972656 326.574219 C 267.308594 330.542969 272.929688 332.734375 278.796875 332.734375 C 283.0625 332.734375 287.011719 331.503906 290.457031 329.503906 L 294.421875 333.464844 C 297.839844 336.882812 302.390625 338.773438 307.234375 338.773438 L 356.582031 338.773438 C 359.910156 338.773438 362.621094 341.480469 362.621094 344.8125 C 362.621094 348.144531 359.910156 350.851562 356.582031 350.851562 L 235.808594 350.851562 C 225.820312 350.851562 217.691406 358.980469 217.691406 368.96875 L 217.691406 375.007812 L 229.769531 375.007812 L 229.769531 368.96875 C 229.769531 365.632812 232.480469 362.929688 235.808594 362.929688 L 356.582031 362.929688 C 366.570312 362.929688 374.699219 354.800781 374.699219 344.8125 C 374.699219 334.824219 366.570312 326.695312 356.582031 326.695312 Z M 223.730469 218 L 223.730469 227.578125 L 197.078125 254.234375 L 187.5 254.234375 C 184.558594 254.234375 181.714844 253.839844 178.972656 253.175781 L 222.675781 209.476562 C 223.339844 212.210938 223.730469 215.058594 223.730469 218 Z M 120.742188 296.503906 L 102.664062 276.414062 C 98.960938 272.292969 96.921875 266.980469 96.921875 261.441406 L 96.921875 258.492188 C 96.921875 246.152344 106.957031 236.117188 119.292969 236.117188 C 128.664062 236.117188 137.121094 242.027344 140.3125 250.839844 L 151.082031 280.445312 C 144.378906 290.378906 133.152344 296.503906 121.074219 296.503906 Z M 157.554688 238.363281 L 207.867188 188.054688 C 211.625 190.621094 214.878906 193.871094 217.441406 197.625 L 167.132812 247.941406 C 163.371094 245.378906 160.121094 242.125 157.554688 238.363281 Z M 152.320312 226.523438 C 151.660156 223.78125 151.269531 220.941406 151.269531 218 C 151.269531 198.019531 167.519531 181.769531 187.5 181.769531 C 190.441406 181.769531 193.285156 182.160156 196.027344 182.824219 Z M 142.90625 199.460938 C 141.683594 199.714844 140.453125 199.886719 139.191406 199.886719 L 127.113281 199.886719 C 119.238281 199.886719 112.523438 194.835938 110.03125 187.808594 L 149.847656 187.808594 C 147.023438 191.328125 144.667969 195.234375 142.90625 199.460938 Z M 167.160156 289.324219 L 153.78125 252.53125 C 159.355469 257.972656 166.226562 262.066406 173.890625 264.324219 C 177.707031 270.960938 180.101562 278.285156 180.976562 285.871094 Z M 192.800781 282.917969 C 192.011719 277.203125 190.472656 271.636719 188.273438 266.308594 L 197.226562 266.308594 L 208.769531 276.882812 C 208.574219 277.226562 208.34375 277.542969 208.171875 277.898438 L 207.5 279.246094 Z M 223.730469 163.652344 L 217.691406 163.652344 L 217.691406 127.421875 L 223.730469 127.421875 C 233.71875 127.421875 241.847656 135.550781 241.847656 145.539062 C 241.847656 155.523438 233.71875 163.652344 223.730469 163.652344 Z M 24.457031 145.539062 C 24.457031 135.550781 32.585938 127.421875 42.574219 127.421875 L 48.609375 127.421875 L 48.609375 163.652344 L 42.574219 163.652344 C 32.585938 163.652344 24.457031 155.523438 24.457031 145.539062 Z M 48.609375 115.34375 L 42.574219 115.34375 C 37.359375 115.34375 32.523438 116.792969 28.242188 119.128906 C 20.863281 105.035156 15.773438 90.054688 13.359375 74.324219 L 41.574219 79.027344 C 43.539062 79.339844 45.523438 78.695312 46.910156 77.269531 C 48.292969 75.84375 48.882812 73.835938 48.492188 71.882812 L 45.941406 59.125 C 44.15625 50.199219 46.9375 41.015625 53.375 34.578125 C 56.347656 31.613281 60.019531 29.339844 64.003906 28.007812 L 101.394531 15.550781 L 97.003906 41.890625 C 96.574219 44.480469 97.863281 47.046875 100.199219 48.253906 C 102.535156 49.445312 105.375 49.003906 107.234375 47.148438 C 107.558594 46.824219 137.886719 16.890625 174.023438 13.078125 L 169.503906 35.652344 C 169.082031 37.765625 169.8125 39.941406 171.429688 41.363281 C 173.042969 42.785156 175.296875 43.261719 177.335938 42.558594 C 199.410156 35.207031 222.863281 34.554688 245.273438 40.652344 L 230.417969 70.367188 C 229.636719 71.9375 229.570312 73.769531 230.242188 75.378906 C 230.910156 76.992188 232.253906 78.25 233.90625 78.792969 L 247.042969 83.175781 C 244.609375 95.144531 240.597656 106.671875 235.246094 117.644531 C 231.695312 116.171875 227.820312 115.34375 223.742188 115.34375 L 217.707031 115.34375 L 217.707031 103.265625 C 217.707031 82.808594 203.96875 64.59375 184.292969 58.96875 L 171.058594 55.1875 L 167.742188 66.804688 L 180.976562 70.585938 C 193.519531 74.171875 202.796875 84.691406 205.085938 97.226562 L 108.996094 97.226562 C 102.335938 97.226562 96.921875 91.8125 96.921875 85.152344 C 96.921875 78.492188 102.335938 73.074219 108.996094 73.074219 L 115.035156 73.074219 L 115.035156 60.996094 L 108.996094 60.996094 C 97.777344 60.996094 88.398438 68.71875 85.699219 79.113281 L 84.84375 79.113281 C 64.859375 79.113281 48.609375 95.363281 48.609375 115.34375 Z M 115.035156 224.039062 C 85.074219 224.039062 60.6875 199.660156 60.6875 169.691406 L 60.6875 115.34375 C 60.6875 102.023438 71.523438 91.191406 84.84375 91.191406 L 85.699219 91.191406 C 88.398438 101.582031 97.777344 109.304688 108.996094 109.304688 L 205.617188 109.304688 L 205.617188 169.691406 C 205.617188 170.859375 205.507812 172.015625 205.433594 173.183594 C 199.886719 170.953125 193.839844 169.691406 187.5 169.691406 C 179.039062 169.691406 171.085938 171.890625 164.167969 175.730469 L 96.921875 175.730469 L 96.921875 181.769531 C 96.921875 198.417969 110.464844 211.960938 127.113281 211.960938 L 139.191406 211.960938 C 139.335938 211.960938 139.476562 211.925781 139.613281 211.925781 C 139.359375 213.917969 139.191406 215.941406 139.191406 218 C 139.191406 220.046875 139.359375 222.058594 139.609375 224.039062 Z M 108.996094 362.929688 L 108.996094 301.503906 L 127.148438 321.679688 C 136.933594 332.542969 150.929688 338.773438 165.539062 338.773438 C 170.996094 338.773438 176.328125 337.917969 181.457031 336.25 L 181.457031 362.929688 Z M 225.453125 303.359375 L 181.921875 323.144531 C 176.75 325.5 171.238281 326.691406 165.550781 326.691406 C 154.355469 326.691406 143.628906 321.914062 136.136719 313.59375 L 130.660156 307.507812 C 140.289062 305.542969 149.105469 300.738281 155.898438 293.671875 L 156.957031 296.582031 L 151.582031 312.699219 L 163.039062 316.523438 L 168.03125 301.546875 L 215.820312 289.601562 L 218.972656 283.292969 C 220.488281 280.257812 223.53125 278.382812 226.921875 278.382812 C 231.824219 278.382812 235.808594 282.367188 235.808594 287.269531 C 235.808594 294.183594 231.746094 300.5 225.453125 303.359375 Z M 271.136719 317.675781 L 246.746094 295.320312 C 247.476562 292.730469 247.886719 290.035156 247.886719 287.269531 C 247.886719 275.710938 238.476562 266.304688 226.921875 266.304688 C 223.582031 266.304688 220.398438 267.121094 217.546875 268.542969 L 208.308594 260.078125 L 229.582031 238.804688 L 287.175781 301.628906 C 289.101562 303.730469 290.15625 306.457031 290.15625 309.304688 C 290.15625 315.5625 285.066406 320.660156 278.804688 320.660156 C 275.960938 320.660156 273.238281 319.59375 271.136719 317.675781 Z M 271.136719 317.675781 " fill-opacity="1" fill-rule="nonzero"/><path fill="#ffffff" d="M 115.035156 151.574219 L 127.113281 151.574219 C 127.113281 134.925781 113.570312 121.382812 96.921875 121.382812 C 80.273438 121.382812 66.726562 134.925781 66.726562 151.574219 L 78.804688 151.574219 C 78.804688 141.589844 86.933594 133.460938 96.921875 133.460938 C 106.910156 133.460938 115.035156 141.582031 115.035156 151.574219 Z M 115.035156 151.574219 " fill-opacity="1" fill-rule="nonzero"/><path fill="#ffffff" d="M 169.382812 133.460938 C 179.371094 133.460938 187.5 141.589844 187.5 151.574219 L 199.578125 151.574219 C 199.578125 134.925781 186.03125 121.382812 169.382812 121.382812 C 152.734375 121.382812 139.191406 134.925781 139.191406 151.574219 L 151.269531 151.574219 C 151.269531 141.582031 159.394531 133.460938 169.382812 133.460938 Z M 169.382812 133.460938 " fill-opacity="1" fill-rule="nonzero"/><path fill="#ffffff" d="M 24.457031 284.425781 L 24.457031 315.730469 C 22.558594 315.054688 20.542969 314.621094 18.417969 314.621094 C 8.429688 314.621094 0.300781 322.746094 0.300781 332.734375 C 0.300781 342.722656 8.429688 350.851562 18.417969 350.851562 C 28.40625 350.851562 36.535156 342.722656 36.535156 332.734375 L 36.535156 284.425781 C 36.535156 281.09375 39.246094 278.386719 42.574219 278.386719 L 60.6875 278.386719 L 60.6875 266.308594 L 42.574219 266.308594 C 32.585938 266.308594 24.457031 274.433594 24.457031 284.425781 Z M 18.417969 338.773438 C 15.089844 338.773438 12.378906 336.070312 12.378906 332.734375 C 12.378906 329.402344 15.089844 326.695312 18.417969 326.695312 C 21.746094 326.695312 24.457031 329.402344 24.457031 332.734375 C 24.457031 336.070312 21.746094 338.773438 18.417969 338.773438 Z M 18.417969 338.773438 " fill-opacity="1" fill-rule="nonzero"/><path fill="#ffffff" d="M 290.15625 85.152344 C 300.144531 85.152344 308.273438 77.023438 308.273438 67.035156 L 308.273438 18.726562 C 308.273438 15.390625 310.984375 12.6875 314.3125 12.6875 L 332.425781 12.6875 L 332.425781 0.609375 L 314.3125 0.609375 C 304.324219 0.609375 296.195312 8.738281 296.195312 18.726562 L 296.195312 50.03125 C 294.300781 49.355469 292.28125 48.917969 290.15625 48.917969 C 280.167969 48.917969 272.042969 57.046875 272.042969 67.035156 C 272.042969 77.023438 280.167969 85.152344 290.15625 85.152344 Z M 290.15625 60.996094 C 293.484375 60.996094 296.195312 63.703125 296.195312 67.035156 C 296.195312 70.367188 293.484375 73.074219 290.15625 73.074219 C 286.828125 73.074219 284.117188 70.367188 284.117188 67.035156 C 284.117188 63.703125 286.828125 60.996094 290.15625 60.996094 Z M 290.15625 60.996094 " fill-opacity="1" fill-rule="nonzero"/><path fill="#ffffff" d="M 356.582031 79.113281 C 346.59375 79.113281 338.464844 87.242188 338.464844 97.226562 L 338.464844 128.53125 C 336.570312 127.855469 334.554688 127.421875 332.425781 127.421875 C 322.441406 127.421875 314.3125 135.550781 314.3125 145.539062 C 314.3125 155.523438 322.441406 163.652344 332.425781 163.652344 C 342.414062 163.652344 350.542969 155.523438 350.542969 145.539062 L 350.542969 97.226562 C 350.542969 93.894531 353.253906 91.191406 356.582031 91.191406 L 374.699219 91.191406 L 374.699219 79.113281 Z M 332.425781 151.574219 C 329.101562 151.574219 326.390625 148.871094 326.390625 145.539062 C 326.390625 142.203125 329.101562 139.5 332.425781 139.5 C 335.753906 139.5 338.464844 142.203125 338.464844 145.539062 C 338.464844 148.871094 335.753906 151.574219 332.425781 151.574219 Z M 332.425781 151.574219 " fill-opacity="1" fill-rule="nonzero"/><path fill="#ffffff" d="M 302.234375 193.847656 L 302.234375 225.152344 C 300.339844 224.476562 298.320312 224.039062 296.195312 224.039062 C 286.207031 224.039062 278.078125 232.167969 278.078125 242.15625 C 278.078125 252.144531 286.207031 260.273438 296.195312 260.273438 C 306.183594 260.273438 314.3125 252.144531 314.3125 242.15625 L 314.3125 193.847656 C 314.3125 190.511719 317.023438 187.808594 320.351562 187.808594 L 338.464844 187.808594 L 338.464844 175.730469 L 320.351562 175.730469 C 310.363281 175.730469 302.234375 183.851562 302.234375 193.847656 Z M 296.195312 248.195312 C 292.867188 248.195312 290.15625 245.488281 290.15625 242.15625 C 290.15625 238.824219 292.867188 236.117188 296.195312 236.117188 C 299.523438 236.117188 302.234375 238.824219 302.234375 242.15625 C 302.234375 245.488281 299.523438 248.195312 296.195312 248.195312 Z M 296.195312 248.195312 " fill-opacity="1" fill-rule="nonzero"/><path fill="#ffffff" d="M 356.582031 326.695312 L 307.242188 326.695312 C 305.628906 326.695312 304.105469 326.070312 302.964844 324.925781 L 299.003906 320.964844 C 301.003906 317.519531 302.234375 313.570312 302.234375 309.304688 C 302.234375 303.425781 300.046875 297.808594 296.074219 293.472656 L 235.808594 227.730469 L 235.808594 218 C 235.808594 202.410156 228.351562 188.558594 216.847656 179.714844 C 217.046875 178.386719 217.253906 177.070312 217.375 175.730469 L 223.730469 175.730469 C 240.378906 175.730469 253.925781 162.1875 253.925781 145.539062 C 253.925781 137.34375 250.621094 129.921875 245.300781 124.480469 C 252.324219 110.472656 257.292969 95.597656 259.878906 80.101562 C 260.367188 77.175781 258.652344 74.324219 255.832031 73.386719 L 244.324219 69.546875 L 259.324219 39.542969 C 260.125 37.933594 260.175781 36.058594 259.449219 34.410156 C 258.726562 32.765625 257.3125 31.523438 255.578125 31.027344 L 250.03125 29.4375 C 228.109375 23.175781 205.234375 22.789062 183.292969 28.261719 L 187.378906 7.824219 C 187.734375 6.050781 187.277344 4.207031 186.128906 2.8125 C 184.980469 1.417969 183.273438 0.609375 181.460938 0.609375 C 152.367188 0.609375 126.429688 16.351562 111.628906 27.589844 L 114.953125 7.640625 C 115.300781 5.550781 114.527344 3.4375 112.917969 2.058594 C 111.304688 0.675781 109.089844 0.234375 107.082031 0.925781 L 60.175781 16.550781 C 54.425781 18.464844 49.117188 21.746094 44.832031 26.03125 C 35.53125 35.339844 31.515625 48.585938 34.09375 61.492188 L 34.933594 65.671875 L 7.332031 61.070312 C 5.457031 60.765625 3.558594 61.339844 2.1875 62.644531 C 0.816406 63.949219 0.132812 65.820312 0.339844 67.699219 L 0.542969 69.527344 C 2.800781 89.898438 8.957031 109.269531 18.742188 127.210938 C 14.8125 132.308594 12.378906 138.617188 12.378906 145.539062 C 12.378906 162.1875 25.925781 175.730469 42.574219 175.730469 L 48.917969 175.730469 C 51.394531 203.03125 70.433594 225.597656 95.898438 233.277344 C 89.117188 239.570312 84.84375 248.53125 84.84375 258.492188 L 84.84375 261.441406 C 84.84375 269.964844 87.984375 278.152344 93.683594 284.488281 L 96.921875 288.085938 L 96.921875 375.007812 L 193.539062 375.007812 L 193.539062 331.136719 L 230.445312 314.355469 C 234.570312 312.480469 238.105469 309.710938 240.90625 306.351562 L 262.972656 326.574219 C 267.308594 330.542969 272.929688 332.734375 278.796875 332.734375 C 283.0625 332.734375 287.011719 331.503906 290.457031 329.503906 L 294.421875 333.464844 C 297.839844 336.882812 302.390625 338.773438 307.234375 338.773438 L 356.582031 338.773438 C 359.910156 338.773438 362.621094 341.480469 362.621094 344.8125 C 362.621094 348.144531 359.910156 350.851562 356.582031 350.851562 L 235.808594 350.851562 C 225.820312 350.851562 217.691406 358.980469 217.691406 368.96875 L 217.691406 375.007812 L 229.769531 375.007812 L 229.769531 368.96875 C 229.769531 365.632812 232.480469 362.929688 235.808594 362.929688 L 356.582031 362.929688 C 366.570312 362.929688 374.699219 354.800781 374.699219 344.8125 C 374.699219 334.824219 366.570312 326.695312 356.582031 326.695312 Z M 223.730469 218 L 223.730469 227.578125 L 197.078125 254.234375 L 187.5 254.234375 C 184.558594 254.234375 181.714844 253.839844 178.972656 253.175781 L 222.675781 209.476562 C 223.339844 212.210938 223.730469 215.058594 223.730469 218 Z M 120.742188 296.503906 L 102.664062 276.414062 C 98.960938 272.292969 96.921875 266.980469 96.921875 261.441406 L 96.921875 258.492188 C 96.921875 246.152344 106.957031 236.117188 119.292969 236.117188 C 128.664062 236.117188 137.121094 242.027344 140.3125 250.839844 L 151.082031 280.445312 C 144.378906 290.378906 133.152344 296.503906 121.074219 296.503906 Z M 157.554688 238.363281 L 207.867188 188.054688 C 211.625 190.621094 214.878906 193.871094 217.441406 197.625 L 167.132812 247.941406 C 163.371094 245.378906 160.121094 242.125 157.554688 238.363281 Z M 152.320312 226.523438 C 151.660156 223.78125 151.269531 220.941406 151.269531 218 C 151.269531 198.019531 167.519531 181.769531 187.5 181.769531 C 190.441406 181.769531 193.285156 182.160156 196.027344 182.824219 Z M 142.90625 199.460938 C 141.683594 199.714844 140.453125 199.886719 139.191406 199.886719 L 127.113281 199.886719 C 119.238281 199.886719 112.523438 194.835938 110.03125 187.808594 L 149.847656 187.808594 C 147.023438 191.328125 144.667969 195.234375 142.90625 199.460938 Z M 167.160156 289.324219 L 153.78125 252.53125 C 159.355469 257.972656 166.226562 262.066406 173.890625 264.324219 C 177.707031 270.960938 180.101562 278.285156 180.976562 285.871094 Z M 192.800781 282.917969 C 192.011719 277.203125 190.472656 271.636719 188.273438 266.308594 L 197.226562 266.308594 L 208.769531 276.882812 C 208.574219 277.226562 208.34375 277.542969 208.171875 277.898438 L 207.5 279.246094 Z M 223.730469 163.652344 L 217.691406 163.652344 L 217.691406 127.421875 L 223.730469 127.421875 C 233.71875 127.421875 241.847656 135.550781 241.847656 145.539062 C 241.847656 155.523438 233.71875 163.652344 223.730469 163.652344 Z M 24.457031 145.539062 C 24.457031 135.550781 32.585938 127.421875 42.574219 127.421875 L 48.609375 127.421875 L 48.609375 163.652344 L 42.574219 163.652344 C 32.585938 163.652344 24.457031 155.523438 24.457031 145.539062 Z M 48.609375 115.34375 L 42.574219 115.34375 C 37.359375 115.34375 32.523438 116.792969 28.242188 119.128906 C 20.863281 105.035156 15.773438 90.054688 13.359375 74.324219 L 41.574219 79.027344 C 43.539062 79.339844 45.523438 78.695312 46.910156 77.269531 C 48.292969 75.84375 48.882812 73.835938 48.492188 71.882812 L 45.941406 59.125 C 44.15625 50.199219 46.9375 41.015625 53.375 34.578125 C 56.347656 31.613281 60.019531 29.339844 64.003906 28.007812 L 101.394531 15.550781 L 97.003906 41.890625 C 96.574219 44.480469 97.863281 47.046875 100.199219 48.253906 C 102.535156 49.445312 105.375 49.003906 107.234375 47.148438 C 107.558594 46.824219 137.886719 16.890625 174.023438 13.078125 L 169.503906 35.652344 C 169.082031 37.765625 169.8125 39.941406 171.429688 41.363281 C 173.042969 42.785156 175.296875 43.261719 177.335938 42.558594 C 199.410156 35.207031 222.863281 34.554688 245.273438 40.652344 L 230.417969 70.367188 C 229.636719 71.9375 229.570312 73.769531 230.242188 75.378906 C 230.910156 76.992188 232.253906 78.25 233.90625 78.792969 L 247.042969 83.175781 C 244.609375 95.144531 240.597656 106.671875 235.246094 117.644531 C 231.695312 116.171875 227.820312 115.34375 223.742188 115.34375 L 217.707031 115.34375 L 217.707031 103.265625 C 217.707031 82.808594 203.96875 64.59375 184.292969 58.96875 L 171.058594 55.1875 L 167.742188 66.804688 L 180.976562 70.585938 C 193.519531 74.171875 202.796875 84.691406 205.085938 97.226562 L 108.996094 97.226562 C 102.335938 97.226562 96.921875 91.8125 96.921875 85.152344 C 96.921875 78.492188 102.335938 73.074219 108.996094 73.074219 L 115.035156 73.074219 L 115.035156 60.996094 L 108.996094 60.996094 C 97.777344 60.996094 88.398438 68.71875 85.699219 79.113281 L 84.84375 79.113281 C 64.859375 79.113281 48.609375 95.363281 48.609375 115.34375 Z M 115.035156 224.039062 C 85.074219 224.039062 60.6875 199.660156 60.6875 169.691406 L 60.6875 115.34375 C 60.6875 102.023438 71.523438 91.191406 84.84375 91.191406 L 85.699219 91.191406 C 88.398438 101.582031 97.777344 109.304688 108.996094 109.304688 L 205.617188 109.304688 L 205.617188 169.691406 C 205.617188 170.859375 205.507812 172.015625 205.433594 173.183594 C 199.886719 170.953125 193.839844 169.691406 187.5 169.691406 C 179.039062 169.691406 171.085938 171.890625 164.167969 175.730469 L 96.921875 175.730469 L 96.921875 181.769531 C 96.921875 198.417969 110.464844 211.960938 127.113281 211.960938 L 139.191406 211.960938 C 139.335938 211.960938 139.476562 211.925781 139.613281 211.925781 C 139.359375 213.917969 139.191406 215.941406 139.191406 218 C 139.191406 220.046875 139.359375 222.058594 139.609375 224.039062 Z M 108.996094 362.929688 L 108.996094 301.503906 L 127.148438 321.679688 C 136.933594 332.542969 150.929688 338.773438 165.539062 338.773438 C 170.996094 338.773438 176.328125 337.917969 181.457031 336.25 L 181.457031 362.929688 Z M 225.453125 303.359375 L 181.921875 323.144531 C 176.75 325.5 171.238281 326.691406 165.550781 326.691406 C 154.355469 326.691406 143.628906 321.914062 136.136719 313.59375 L 130.660156 307.507812 C 140.289062 305.542969 149.105469 300.738281 155.898438 293.671875 L 156.957031 296.582031 L 151.582031 312.699219 L 163.039062 316.523438 L 168.03125 301.546875 L 215.820312 289.601562 L 218.972656 283.292969 C 220.488281 280.257812 223.53125 278.382812 226.921875 278.382812 C 231.824219 278.382812 235.808594 282.367188 235.808594 287.269531 C 235.808594 294.183594 231.746094 300.5 225.453125 303.359375 Z M 271.136719 317.675781 L 246.746094 295.320312 C 247.476562 292.730469 247.886719 290.035156 247.886719 287.269531 C 247.886719 275.710938 238.476562 266.304688 226.921875 266.304688 C 223.582031 266.304688 220.398438 267.121094 217.546875 268.542969 L 208.308594 260.078125 L 229.582031 238.804688 L 287.175781 301.628906 C 289.101562 303.730469 290.15625 306.457031 290.15625 309.304688 C 290.15625 315.5625 285.066406 320.660156 278.804688 320.660156 C 275.960938 320.660156 273.238281 319.59375 271.136719 317.675781 Z M 271.136719 317.675781 " fill-opacity="1" fill-rule="nonzero"/></svg>