<svg xmlns="http://www.w3.org/2000/svg" xmlns:xlink="http://www.w3.org/1999/xlink" width="500" zoomAndPan="magnify" viewBox="0 0 375 374.999991" height="500" preserveAspectRatio="xMidYMid meet" version="1.0"><defs><clipPath id="07bba220d6"><path d="M 0.5 0 L 360.441406 0 L 360.441406 375 L 0.5 375 Z M 0.5 0 " clip-rule="nonzero"/></clipPath><clipPath id="89254edc5a"><rect x="0" width="361" y="0" height="375"/></clipPath></defs><g transform="matrix(1, 0, 0, 1, 7, 0)"><g clip-path="url(#89254edc5a)"><g clip-path="url(#07bba220d6)"><path fill="#ffffff" d="M 224.910156 269.855469 C 205.707031 284.734375 181.601562 293.589844 155.425781 293.589844 C 107.851562 293.589844 67.117188 264.34375 50.214844 222.84375 C 48.957031 219.753906 50.445312 216.222656 53.535156 214.960938 C 56.628906 213.703125 60.160156 215.191406 61.421875 218.285156 C 76.519531 255.359375 112.917969 281.492188 155.425781 281.492188 C 180.585938 281.492188 203.605469 272.335938 221.332031 257.175781 C 227.839844 251.609375 233.636719 245.234375 238.5625 238.207031 C 241.320312 234.269531 243.808594 230.128906 245.996094 225.808594 C 247.503906 222.832031 251.148438 221.636719 254.125 223.148438 C 257.101562 224.65625 258.296875 228.296875 256.789062 231.273438 C 255.125 234.5625 253.304688 237.753906 251.339844 240.847656 L 277.515625 266.261719 C 283.476562 262.824219 291.292969 263.578125 296.457031 268.582031 L 296.464844 268.585938 L 355.5 325.878906 C 361.738281 331.917969 361.910156 341.96875 355.824219 348.253906 L 355.816406 348.257812 L 334.511719 370.207031 L 334.503906 370.210938 C 328.472656 376.441406 318.433594 376.609375 312.15625 370.574219 C 312.148438 370.566406 312.140625 370.558594 312.132812 370.554688 C 312.132812 370.554688 253.125 313.261719 253.125 313.261719 C 247.925781 308.25 246.929688 300.460938 250.195312 294.394531 Z M 325.824219 361.789062 L 347.132812 339.835938 C 348.566406 338.359375 348.554688 335.992188 347.085938 334.570312 L 347.082031 334.566406 L 288.042969 277.269531 C 286.574219 275.847656 284.199219 275.878906 282.777344 277.347656 L 282.769531 277.351562 L 261.460938 299.308594 C 261.457031 299.3125 261.453125 299.316406 261.449219 299.320312 C 260.023438 300.777344 260.054688 303.140625 261.523438 304.550781 C 261.53125 304.558594 261.539062 304.566406 261.546875 304.574219 C 261.546875 304.574219 320.542969 361.859375 320.554688 361.871094 C 322.039062 363.277344 324.398438 363.257812 325.820312 361.792969 Z M 244.234375 250.808594 C 241.101562 254.730469 237.71875 258.445312 234.101562 261.917969 L 258.195312 285.300781 L 268.660156 274.523438 Z M 222.480469 103.894531 C 219.976562 101.6875 219.734375 97.859375 221.941406 95.355469 C 224.148438 92.851562 227.972656 92.613281 230.480469 94.816406 C 254.085938 115.625 268.976562 146.089844 268.976562 180.035156 C 268.976562 183.851562 268.789062 187.617188 268.421875 191.335938 C 268.09375 194.65625 265.128906 197.085938 261.808594 196.757812 C 258.488281 196.429688 256.054688 193.46875 256.382812 190.144531 C 256.710938 186.820312 256.878906 183.449219 256.878906 180.035156 C 256.878906 149.707031 243.574219 122.484375 222.480469 103.894531 Z M 53.96875 179.242188 C 53.945312 182.578125 51.214844 185.269531 47.875 185.242188 C 44.535156 185.214844 41.847656 182.484375 41.875 179.148438 C 42.351562 116.839844 93 66.480469 155.425781 66.480469 C 169.699219 66.480469 183.359375 69.117188 195.945312 73.925781 C 199.0625 75.117188 200.628906 78.617188 199.4375 81.734375 C 198.246094 84.851562 194.746094 86.417969 191.628906 85.226562 C 180.382812 80.929688 168.179688 78.578125 155.425781 78.578125 C 99.652344 78.578125 54.394531 123.570312 53.96875 179.242188 Z M 149.382812 103.878906 C 116.910156 106.421875 90.144531 129.257812 81.761719 159.71875 C 80.875 162.9375 77.542969 164.832031 74.324219 163.945312 C 71.105469 163.058594 69.210938 159.726562 70.097656 156.507812 C 80.40625 119.054688 114.703125 91.546875 155.433594 91.546875 C 166.242188 91.546875 176.597656 93.484375 186.171875 97.035156 C 189.300781 98.195312 190.902344 101.679688 189.742188 104.808594 C 188.582031 107.9375 185.097656 109.539062 181.96875 108.378906 C 175.507812 105.984375 168.632812 104.4375 161.480469 103.878906 L 161.480469 174 L 231.582031 174.03125 C 230.214844 156.429688 222.882812 140.503906 211.609375 128.273438 C 209.34375 125.820312 209.5 121.988281 211.957031 119.726562 C 214.410156 117.464844 218.238281 117.621094 220.503906 120.074219 C 235.035156 135.84375 243.914062 156.90625 243.914062 180.046875 C 243.914062 183.933594 243.664062 187.761719 243.175781 191.519531 C 242.746094 194.828125 239.710938 197.167969 236.402344 196.738281 C 233.089844 196.308594 230.75 193.273438 231.179688 189.964844 C 231.34375 188.695312 231.476562 187.414062 231.578125 186.128906 L 166.003906 186.097656 L 199.230469 242.628906 C 206.152344 237.777344 212.230469 231.808594 217.207031 224.980469 C 219.171875 222.28125 222.960938 221.6875 225.65625 223.65625 C 228.355469 225.621094 228.949219 229.40625 226.984375 232.105469 C 210.894531 254.179688 184.835938 268.527344 155.433594 268.527344 C 115.8125 268.527344 82.277344 242.496094 70.996094 206.613281 C 69.992188 203.429688 71.765625 200.03125 74.949219 199.03125 C 78.132812 198.027344 81.53125 199.800781 82.535156 202.984375 C 92.277344 233.960938 121.226562 256.429688 155.433594 256.429688 C 167.398438 256.429688 178.726562 253.675781 188.808594 248.769531 L 150.21875 183.109375 C 149.671875 182.179688 149.382812 181.121094 149.382812 180.046875 Z M 265.324219 29.492188 C 257.039062 29.492188 241.886719 29.492188 241.886719 29.492188 L 194.890625 141.375 C 193.597656 144.449219 190.050781 145.898438 186.972656 144.605469 C 183.894531 143.3125 182.445312 139.765625 183.738281 136.6875 L 232.289062 21.101562 C 233.230469 18.855469 235.429688 17.394531 237.863281 17.394531 L 265.324219 17.394531 C 267.992188 7.382812 277.128906 0 287.976562 0 C 300.914062 0 311.417969 10.503906 311.417969 23.441406 C 311.417969 36.378906 300.914062 46.882812 287.976562 46.882812 C 277.128906 46.882812 267.992188 39.5 265.324219 29.492188 Z M 276.628906 23.441406 C 276.628906 29.703125 281.714844 34.789062 287.976562 34.789062 C 294.238281 34.789062 299.320312 29.703125 299.320312 23.441406 C 299.320312 17.179688 294.238281 12.097656 287.976562 12.097656 C 281.714844 12.097656 276.628906 17.179688 276.628906 23.441406 Z M 30.199219 283.113281 C 40.210938 285.78125 47.59375 294.917969 47.59375 305.765625 C 47.59375 318.703125 37.089844 329.207031 24.152344 329.207031 C 11.214844 329.207031 0.710938 318.703125 0.710938 305.765625 C 0.710938 294.917969 8.09375 285.78125 18.105469 283.113281 L 18.105469 220.742188 C 18.105469 218.839844 18.996094 217.050781 20.515625 215.910156 L 102.734375 154.027344 C 105.398438 152.019531 109.195312 152.554688 111.203125 155.222656 C 113.210938 157.890625 112.675781 161.683594 110.007812 163.691406 C 110.007812 163.691406 30.199219 223.757812 30.199219 223.757812 Z M 24.152344 294.417969 C 17.890625 294.417969 12.808594 299.503906 12.808594 305.765625 C 12.808594 312.027344 17.890625 317.109375 24.152344 317.109375 C 30.414062 317.109375 35.496094 312.027344 35.496094 305.765625 C 35.496094 299.503906 30.414062 294.417969 24.152344 294.417969 Z M 321.941406 190.035156 L 298.054688 213.917969 C 296.921875 215.050781 295.382812 215.691406 293.777344 215.691406 L 208.539062 215.691406 C 205.199219 215.691406 202.488281 212.980469 202.488281 209.640625 C 202.488281 206.304688 205.199219 203.59375 208.539062 203.59375 L 291.273438 203.59375 L 313.386719 181.480469 C 311.382812 178.027344 310.238281 174.015625 310.238281 169.742188 C 310.238281 156.804688 320.742188 146.300781 333.679688 146.300781 C 346.617188 146.300781 357.121094 156.804688 357.121094 169.742188 C 357.121094 182.679688 346.617188 193.183594 333.679688 193.183594 C 329.402344 193.183594 325.394531 192.035156 321.941406 190.035156 Z M 325.726562 177.832031 C 327.773438 179.84375 330.582031 181.085938 333.679688 181.085938 C 339.941406 181.085938 345.023438 176.003906 345.023438 169.742188 C 345.023438 163.480469 339.941406 158.398438 333.679688 158.398438 C 327.417969 158.398438 322.332031 163.480469 322.332031 169.742188 C 322.332031 172.835938 323.574219 175.644531 325.589844 177.691406 C 325.613281 177.714844 325.636719 177.738281 325.660156 177.761719 C 325.683594 177.785156 325.703125 177.808594 325.726562 177.832031 Z M 66.78125 311.8125 C 63.441406 311.8125 60.730469 309.101562 60.730469 305.765625 C 60.730469 302.425781 63.441406 299.714844 66.78125 299.714844 L 102.40625 299.714844 C 105.746094 299.714844 108.457031 302.425781 108.457031 305.765625 C 108.457031 309.101562 105.746094 311.8125 102.40625 311.8125 Z M 66.78125 333.800781 C 63.441406 333.800781 60.730469 331.089844 60.730469 327.753906 C 60.730469 324.414062 63.441406 321.703125 66.78125 321.703125 L 102.40625 321.703125 C 105.746094 321.703125 108.457031 324.414062 108.457031 327.753906 C 108.457031 331.089844 105.746094 333.800781 102.40625 333.800781 Z M 66.78125 355.789062 C 63.441406 355.789062 60.730469 353.078125 60.730469 349.742188 C 60.730469 346.402344 63.441406 343.695312 66.78125 343.695312 L 102.40625 343.695312 C 105.746094 343.695312 108.457031 346.402344 108.457031 349.742188 C 108.457031 353.078125 105.746094 355.789062 102.40625 355.789062 Z M 318.613281 222.179688 C 315.273438 222.179688 312.566406 219.46875 312.566406 216.128906 C 312.566406 212.792969 315.273438 210.082031 318.613281 210.082031 L 354.242188 210.082031 C 357.582031 210.082031 360.289062 212.792969 360.289062 216.128906 C 360.289062 219.46875 357.582031 222.179688 354.242188 222.179688 Z M 318.613281 244.167969 C 315.273438 244.167969 312.566406 241.457031 312.566406 238.117188 C 312.566406 234.78125 315.273438 232.070312 318.613281 232.070312 L 354.242188 232.070312 C 357.582031 232.070312 360.289062 234.78125 360.289062 238.117188 C 360.289062 241.457031 357.582031 244.167969 354.242188 244.167969 Z M 318.613281 266.15625 C 315.273438 266.15625 312.566406 263.445312 312.566406 260.109375 C 312.566406 256.769531 315.273438 254.058594 318.613281 254.058594 L 354.242188 254.058594 C 357.582031 254.058594 360.289062 256.769531 360.289062 260.109375 C 360.289062 263.445312 357.582031 266.15625 354.242188 266.15625 Z M 292.292969 65.296875 C 288.957031 65.296875 286.246094 62.585938 286.246094 59.246094 C 286.246094 55.910156 288.957031 53.199219 292.292969 53.199219 L 327.921875 53.199219 C 331.261719 53.199219 333.972656 55.910156 333.972656 59.246094 C 333.972656 62.585938 331.261719 65.296875 327.921875 65.296875 Z M 292.292969 87.285156 C 288.957031 87.285156 286.246094 84.574219 286.246094 81.238281 C 286.246094 77.898438 288.957031 75.1875 292.292969 75.1875 L 327.921875 75.1875 C 331.261719 75.1875 333.972656 77.898438 333.972656 81.238281 C 333.972656 84.574219 331.261719 87.285156 327.921875 87.285156 Z M 292.292969 109.273438 C 288.957031 109.273438 286.246094 106.5625 286.246094 103.226562 C 286.246094 99.886719 288.957031 97.175781 292.292969 97.175781 L 327.921875 97.175781 C 331.261719 97.175781 333.972656 99.886719 333.972656 103.226562 C 333.972656 106.5625 331.261719 109.273438 327.921875 109.273438 Z M 292.292969 109.273438 " fill-opacity="1" fill-rule="evenodd"/><path fill="#ffffff" d="M 224.910156 269.855469 C 205.707031 284.734375 181.601562 293.589844 155.425781 293.589844 C 107.851562 293.589844 67.117188 264.34375 50.214844 222.84375 C 48.957031 219.753906 50.445312 216.222656 53.535156 214.960938 C 56.628906 213.703125 60.160156 215.191406 61.421875 218.285156 C 76.519531 255.359375 112.917969 281.492188 155.425781 281.492188 C 180.585938 281.492188 203.605469 272.335938 221.332031 257.175781 C 227.839844 251.609375 233.636719 245.234375 238.5625 238.207031 C 241.320312 234.269531 243.808594 230.128906 245.996094 225.808594 C 247.503906 222.832031 251.148438 221.636719 254.125 223.148438 C 257.101562 224.65625 258.296875 228.296875 256.789062 231.273438 C 255.125 234.5625 253.304688 237.753906 251.339844 240.847656 L 277.515625 266.261719 C 283.476562 262.824219 291.292969 263.578125 296.457031 268.582031 L 296.464844 268.585938 L 355.5 325.878906 C 361.738281 331.917969 361.910156 341.96875 355.824219 348.253906 L 355.816406 348.257812 L 334.511719 370.207031 L 334.503906 370.210938 C 328.472656 376.441406 318.433594 376.609375 312.15625 370.574219 C 312.148438 370.566406 312.140625 370.558594 312.132812 370.554688 C 312.132812 370.554688 253.125 313.261719 253.125 313.261719 C 247.925781 308.25 246.929688 300.460938 250.195312 294.394531 Z M 325.824219 361.789062 L 347.132812 339.835938 C 348.566406 338.359375 348.554688 335.992188 347.085938 334.570312 L 347.082031 334.566406 L 288.042969 277.269531 C 286.574219 275.847656 284.199219 275.878906 282.777344 277.347656 L 282.769531 277.351562 L 261.460938 299.308594 C 261.457031 299.3125 261.453125 299.316406 261.449219 299.320312 C 260.023438 300.777344 260.054688 303.140625 261.523438 304.550781 C 261.53125 304.558594 261.539062 304.566406 261.546875 304.574219 C 261.546875 304.574219 320.542969 361.859375 320.554688 361.871094 C 322.039062 363.277344 324.398438 363.257812 325.820312 361.792969 Z M 244.234375 250.808594 C 241.101562 254.730469 237.71875 258.445312 234.101562 261.917969 L 258.195312 285.300781 L 268.660156 274.523438 Z M 222.480469 103.894531 C 219.976562 101.6875 219.734375 97.859375 221.941406 95.355469 C 224.148438 92.851562 227.972656 92.613281 230.480469 94.816406 C 254.085938 115.625 268.976562 146.089844 268.976562 180.035156 C 268.976562 183.851562 268.789062 187.617188 268.421875 191.335938 C 268.09375 194.65625 265.128906 197.085938 261.808594 196.757812 C 258.488281 196.429688 256.054688 193.46875 256.382812 190.144531 C 256.710938 186.820312 256.878906 183.449219 256.878906 180.035156 C 256.878906 149.707031 243.574219 122.484375 222.480469 103.894531 Z M 53.96875 179.242188 C 53.945312 182.578125 51.214844 185.269531 47.875 185.242188 C 44.535156 185.214844 41.847656 182.484375 41.875 179.148438 C 42.351562 116.839844 93 66.480469 155.425781 66.480469 C 169.699219 66.480469 183.359375 69.117188 195.945312 73.925781 C 199.0625 75.117188 200.628906 78.617188 199.4375 81.734375 C 198.246094 84.851562 194.746094 86.417969 191.628906 85.226562 C 180.382812 80.929688 168.179688 78.578125 155.425781 78.578125 C 99.652344 78.578125 54.394531 123.570312 53.96875 179.242188 Z M 149.382812 103.878906 C 116.910156 106.421875 90.144531 129.257812 81.761719 159.71875 C 80.875 162.9375 77.542969 164.832031 74.324219 163.945312 C 71.105469 163.058594 69.210938 159.726562 70.097656 156.507812 C 80.40625 119.054688 114.703125 91.546875 155.433594 91.546875 C 166.242188 91.546875 176.597656 93.484375 186.171875 97.035156 C 189.300781 98.195312 190.902344 101.679688 189.742188 104.808594 C 188.582031 107.9375 185.097656 109.539062 181.96875 108.378906 C 175.507812 105.984375 168.632812 104.4375 161.480469 103.878906 L 161.480469 174 L 231.582031 174.03125 C 230.214844 156.429688 222.882812 140.503906 211.609375 128.273438 C 209.34375 125.820312 209.5 121.988281 211.957031 119.726562 C 214.410156 117.464844 218.238281 117.621094 220.503906 120.074219 C 235.035156 135.84375 243.914062 156.90625 243.914062 180.046875 C 243.914062 183.933594 243.664062 187.761719 243.175781 191.519531 C 242.746094 194.828125 239.710938 197.167969 236.402344 196.738281 C 233.089844 196.308594 230.75 193.273438 231.179688 189.964844 C 231.34375 188.695312 231.476562 187.414062 231.578125 186.128906 L 166.003906 186.097656 L 199.230469 242.628906 C 206.152344 237.777344 212.230469 231.808594 217.207031 224.980469 C 219.171875 222.28125 222.960938 221.6875 225.65625 223.65625 C 228.355469 225.621094 228.949219 229.40625 226.984375 232.105469 C 210.894531 254.179688 184.835938 268.527344 155.433594 268.527344 C 115.8125 268.527344 82.277344 242.496094 70.996094 206.613281 C 69.992188 203.429688 71.765625 200.03125 74.949219 199.03125 C 78.132812 198.027344 81.53125 199.800781 82.535156 202.984375 C 92.277344 233.960938 121.226562 256.429688 155.433594 256.429688 C 167.398438 256.429688 178.726562 253.675781 188.808594 248.769531 L 150.21875 183.109375 C 149.671875 182.179688 149.382812 181.121094 149.382812 180.046875 Z M 265.324219 29.492188 C 257.039062 29.492188 241.886719 29.492188 241.886719 29.492188 L 194.890625 141.375 C 193.597656 144.449219 190.050781 145.898438 186.972656 144.605469 C 183.894531 143.3125 182.445312 139.765625 183.738281 136.6875 L 232.289062 21.101562 C 233.230469 18.855469 235.429688 17.394531 237.863281 17.394531 L 265.324219 17.394531 C 267.992188 7.382812 277.128906 0 287.976562 0 C 300.914062 0 311.417969 10.503906 311.417969 23.441406 C 311.417969 36.378906 300.914062 46.882812 287.976562 46.882812 C 277.128906 46.882812 267.992188 39.5 265.324219 29.492188 Z M 276.628906 23.441406 C 276.628906 29.703125 281.714844 34.789062 287.976562 34.789062 C 294.238281 34.789062 299.320312 29.703125 299.320312 23.441406 C 299.320312 17.179688 294.238281 12.097656 287.976562 12.097656 C 281.714844 12.097656 276.628906 17.179688 276.628906 23.441406 Z M 30.199219 283.113281 C 40.210938 285.78125 47.59375 294.917969 47.59375 305.765625 C 47.59375 318.703125 37.089844 329.207031 24.152344 329.207031 C 11.214844 329.207031 0.710938 318.703125 0.710938 305.765625 C 0.710938 294.917969 8.09375 285.78125 18.105469 283.113281 L 18.105469 220.742188 C 18.105469 218.839844 18.996094 217.050781 20.515625 215.910156 L 102.734375 154.027344 C 105.398438 152.019531 109.195312 152.554688 111.203125 155.222656 C 113.210938 157.890625 112.675781 161.683594 110.007812 163.691406 C 110.007812 163.691406 30.199219 223.757812 30.199219 223.757812 Z M 24.152344 294.417969 C 17.890625 294.417969 12.808594 299.503906 12.808594 305.765625 C 12.808594 312.027344 17.890625 317.109375 24.152344 317.109375 C 30.414062 317.109375 35.496094 312.027344 35.496094 305.765625 C 35.496094 299.503906 30.414062 294.417969 24.152344 294.417969 Z M 321.941406 190.035156 L 298.054688 213.917969 C 296.921875 215.050781 295.382812 215.691406 293.777344 215.691406 L 208.539062 215.691406 C 205.199219 215.691406 202.488281 212.980469 202.488281 209.640625 C 202.488281 206.304688 205.199219 203.59375 208.539062 203.59375 L 291.273438 203.59375 L 313.386719 181.480469 C 311.382812 178.027344 310.238281 174.015625 310.238281 169.742188 C 310.238281 156.804688 320.742188 146.300781 333.679688 146.300781 C 346.617188 146.300781 357.121094 156.804688 357.121094 169.742188 C 357.121094 182.679688 346.617188 193.183594 333.679688 193.183594 C 329.402344 193.183594 325.394531 192.035156 321.941406 190.035156 Z M 325.726562 177.832031 C 327.773438 179.84375 330.582031 181.085938 333.679688 181.085938 C 339.941406 181.085938 345.023438 176.003906 345.023438 169.742188 C 345.023438 163.480469 339.941406 158.398438 333.679688 158.398438 C 327.417969 158.398438 322.332031 163.480469 322.332031 169.742188 C 322.332031 172.835938 323.574219 175.644531 325.589844 177.691406 C 325.613281 177.714844 325.636719 177.738281 325.660156 177.761719 C 325.683594 177.785156 325.703125 177.808594 325.726562 177.832031 Z M 66.78125 311.8125 C 63.441406 311.8125 60.730469 309.101562 60.730469 305.765625 C 60.730469 302.425781 63.441406 299.714844 66.78125 299.714844 L 102.40625 299.714844 C 105.746094 299.714844 108.457031 302.425781 108.457031 305.765625 C 108.457031 309.101562 105.746094 311.8125 102.40625 311.8125 Z M 66.78125 333.800781 C 63.441406 333.800781 60.730469 331.089844 60.730469 327.753906 C 60.730469 324.414062 63.441406 321.703125 66.78125 321.703125 L 102.40625 321.703125 C 105.746094 321.703125 108.457031 324.414062 108.457031 327.753906 C 108.457031 331.089844 105.746094 333.800781 102.40625 333.800781 Z M 66.78125 355.789062 C 63.441406 355.789062 60.730469 353.078125 60.730469 349.742188 C 60.730469 346.402344 63.441406 343.695312 66.78125 343.695312 L 102.40625 343.695312 C 105.746094 343.695312 108.457031 346.402344 108.457031 349.742188 C 108.457031 353.078125 105.746094 355.789062 102.40625 355.789062 Z M 318.613281 222.179688 C 315.273438 222.179688 312.566406 219.46875 312.566406 216.128906 C 312.566406 212.792969 315.273438 210.082031 318.613281 210.082031 L 354.242188 210.082031 C 357.582031 210.082031 360.289062 212.792969 360.289062 216.128906 C 360.289062 219.46875 357.582031 222.179688 354.242188 222.179688 Z M 318.613281 244.167969 C 315.273438 244.167969 312.566406 241.457031 312.566406 238.117188 C 312.566406 234.78125 315.273438 232.070312 318.613281 232.070312 L 354.242188 232.070312 C 357.582031 232.070312 360.289062 234.78125 360.289062 238.117188 C 360.289062 241.457031 357.582031 244.167969 354.242188 244.167969 Z M 318.613281 266.15625 C 315.273438 266.15625 312.566406 263.445312 312.566406 260.109375 C 312.566406 256.769531 315.273438 254.058594 318.613281 254.058594 L 354.242188 254.058594 C 357.582031 254.058594 360.289062 256.769531 360.289062 260.109375 C 360.289062 263.445312 357.582031 266.15625 354.242188 266.15625 Z M 292.292969 65.296875 C 288.957031 65.296875 286.246094 62.585938 286.246094 59.246094 C 286.246094 55.910156 288.957031 53.199219 292.292969 53.199219 L 327.921875 53.199219 C 331.261719 53.199219 333.972656 55.910156 333.972656 59.246094 C 333.972656 62.585938 331.261719 65.296875 327.921875 65.296875 Z M 292.292969 87.285156 C 288.957031 87.285156 286.246094 84.574219 286.246094 81.238281 C 286.246094 77.898438 288.957031 75.1875 292.292969 75.1875 L 327.921875 75.1875 C 331.261719 75.1875 333.972656 77.898438 333.972656 81.238281 C 333.972656 84.574219 331.261719 87.285156 327.921875 87.285156 Z M 292.292969 109.273438 C 288.957031 109.273438 286.246094 106.5625 286.246094 103.226562 C 286.246094 99.886719 288.957031 97.175781 292.292969 97.175781 L 327.921875 97.175781 C 331.261719 97.175781 333.972656 99.886719 333.972656 103.226562 C 333.972656 106.5625 331.261719 109.273438 327.921875 109.273438 Z M 292.292969 109.273438 " fill-opacity="1" fill-rule="evenodd"/></g></g></g></svg>